{
  "title" : "",
  "description" : "",
  "author" : "",
  "targetLoudness" : -18.0,
  "shouldApplyLoudnessNormalization" : true,
  "videoFormatFrameRate" : 30,
  "audioFormatSampleRate" : 44100,
  "width" : 405.0,
  "height" : 189.0,
  "version" : "3.0",
  "editRate" : 30,
  "authoringClientName" :  {
    "name" : "Camtasia",
    "platform" : "Windows",
    "version" : "19.0"
  },
  "sourceBin" : [
    {
      "id" : 1,
      "src" : "C:\\Users\\Administrator\\Desktop\\Fasih\\Project Intro\\Videos\\OCR.mp4",
      "rect" : [0, 0, 405, 720],
      "lastMod" : "20201123T114155",
      "sourceTracks" : [
        {
          "range" : [0, 200666672],
          "type" : 0,
          "editRate" : 10000000,
          "trackRect" : [0, 0, 405, 720],
          "sampleRate" : "10000000/333333",
          "bitDepth" : 24,
          "numChannels" : 0,
          "integratedLUFS" : 100.0,
          "peakLevel" : -1.0,
          "metaData" : ""
        },
        {
          "range" : [0, 200666672],
          "type" : 2,
          "editRate" : 10000000,
          "trackRect" : [0, 0, 0, 0],
          "sampleRate" : 48000,
          "bitDepth" : 16,
          "numChannels" : 2,
          "integratedLUFS" : -49.2340242574698,
          "peakLevel" : 0.0149002065882087,
          "metaData" : ""
        }
      ],
      "metadata" : {
        "timeAdded" : "20201123T122624.778320"
      }
    },
    {
      "id" : 2,
      "src" : "C:\\Users\\Administrator\\Documents\\Camtasia\\Rec 11-23-20.trec",
      "rect" : [0, 0, 1204, 564],
      "lastMod" : "20201123T123450",
      "sourceTracks" : [
        {
          "range" : [0, 760],
          "type" : 0,
          "editRate" : 30,
          "trackRect" : [0, 0, 1204, 564],
          "sampleRate" : 29,
          "bitDepth" : 0,
          "numChannels" : 0,
          "integratedLUFS" : 100.0,
          "peakLevel" : -1.0,
          "metaData" : "2b7b6a00-7a1f-11e2-83d0-0017f200be7f;2b7b6aef-7a1f-11e2-83d0-0017f200be7f;2b7b6af0-7a1f-11e2-83d0-0017f200be7f;2b7b6af1-7a1f-11e2-83d0-0017f200be7f;2b7b6af2-7a1f-11e2-83d0-0017f200be7f;2b7b6af3-7a1f-11e2-83d0-0017f200be7f;2b7b6af5-7a1f-11e2-83d0-0017f200be7f;2b7b6af6-7a1f-11e2-83d0-0017f200be7f;2b7b6af7-7a1f-11e2-83d0-0017f200be7f;2b7b6af8-7a1f-11e2-83d0-0017f200be7f;2b7b6af9-7a1f-11e2-83d0-0017f200be7f;2b7b6afa-7a1f-11e2-83d0-0017f200be7f;"
        }
      ],
      "metadata" : {
        "timeAdded" : "20201123T123451.531966"
      }
    },
    {
      "id" : 3,
      "src" : "C:\\Users\\Administrator\\Desktop\\Fasih\\Project Intro\\Videos\\Smile Detector.mp4",
      "rect" : [0, 0, 442, 324],
      "lastMod" : "20201123T114115",
      "sourceTracks" : [
        {
          "range" : [0, 358666656],
          "type" : 0,
          "editRate" : 10000000,
          "trackRect" : [0, 0, 442, 324],
          "sampleRate" : "10000000/333333",
          "bitDepth" : 24,
          "numChannels" : 0,
          "integratedLUFS" : 100.0,
          "peakLevel" : -1.0,
          "metaData" : ""
        }
      ],
      "metadata" : {
        "timeAdded" : "20201123T124238.503438"
      }
    },
    {
      "id" : 4,
      "src" : "C:\\Users\\Administrator\\Desktop\\Fasih\\Project Intro\\Videos\\(187) 888 LED Cube - YouTube.MP4",
      "rect" : [0, 0, 405, 720],
      "lastMod" : "20201123T125637",
      "sourceTracks" : [
        {
          "range" : [0, 372000000],
          "type" : 0,
          "editRate" : 10000000,
          "trackRect" : [0, 0, 405, 720],
          "sampleRate" : 25,
          "bitDepth" : 24,
          "numChannels" : 0,
          "integratedLUFS" : 100.0,
          "peakLevel" : -1.0,
          "metaData" : ""
        },
        {
          "range" : [0, 372000000],
          "type" : 2,
          "editRate" : 10000000,
          "trackRect" : [0, 0, 0, 0],
          "sampleRate" : 44100,
          "bitDepth" : 16,
          "numChannels" : 2,
          "integratedLUFS" : -39.1076892841543,
          "peakLevel" : 0.240009188652039,
          "metaData" : ""
        }
      ],
      "metadata" : {
        "timeAdded" : "20201123T133817.451590"
      }
    },
    {
      "id" : 5,
      "src" : "C:\\Users\\Administrator\\Desktop\\Fasih\\Project Intro\\Videos\\(187) AI Based LFR - YouTube.MP4",
      "rect" : [0, 0, 405, 720],
      "lastMod" : "20201123T125715",
      "sourceTracks" : [
        {
          "range" : [0, 186400000],
          "type" : 0,
          "editRate" : 10000000,
          "trackRect" : [0, 0, 405, 720],
          "sampleRate" : 25,
          "bitDepth" : 24,
          "numChannels" : 0,
          "integratedLUFS" : 100.0,
          "peakLevel" : -1.0,
          "metaData" : ""
        },
        {
          "range" : [0, 186400000],
          "type" : 2,
          "editRate" : 10000000,
          "trackRect" : [0, 0, 0, 0],
          "sampleRate" : 44100,
          "bitDepth" : 16,
          "numChannels" : 2,
          "integratedLUFS" : -22.6440382495425,
          "peakLevel" : 0.462139129638672,
          "metaData" : ""
        }
      ],
      "metadata" : {
        "timeAdded" : "20201123T133817.641228"
      }
    },
    {
      "id" : 6,
      "src" : "C:\\Users\\Administrator\\Desktop\\Fasih\\Project Intro\\Videos\\Face Recognition.MP4",
      "rect" : [0, 0, 929, 720],
      "lastMod" : "20201123T130003",
      "sourceTracks" : [
        {
          "range" : [0, 271200000],
          "type" : 0,
          "editRate" : 10000000,
          "trackRect" : [0, 0, 929, 720],
          "sampleRate" : 25,
          "bitDepth" : 24,
          "numChannels" : 0,
          "integratedLUFS" : 100.0,
          "peakLevel" : -1.0,
          "metaData" : ""
        }
      ],
      "metadata" : {
        "timeAdded" : "20201123T133817.783392"
      }
    },
    {
      "id" : 7,
      "src" : "C:\\Users\\Administrator\\Desktop\\Fasih\\Project Intro\\Videos\\Flower Recognition.MP4",
      "rect" : [0, 0, 601, 720],
      "lastMod" : "20201123T130139",
      "sourceTracks" : [
        {
          "range" : [0, 451200000],
          "type" : 0,
          "editRate" : 10000000,
          "trackRect" : [0, 0, 601, 720],
          "sampleRate" : 25,
          "bitDepth" : 24,
          "numChannels" : 0,
          "integratedLUFS" : 100.0,
          "peakLevel" : -1.0,
          "metaData" : ""
        },
        {
          "range" : [0, 451200000],
          "type" : 2,
          "editRate" : 10000000,
          "trackRect" : [0, 0, 0, 0],
          "sampleRate" : 44100,
          "bitDepth" : 16,
          "numChannels" : 2,
          "integratedLUFS" : -24.5518458250394,
          "peakLevel" : 0.851486623287201,
          "metaData" : ""
        }
      ],
      "metadata" : {
        "timeAdded" : "20201123T133817.992265"
      }
    },
    {
      "id" : 8,
      "src" : "C:\\Users\\Administrator\\Desktop\\Fasih\\Project Intro\\Images\\IMG_20171106_214223.jpg",
      "rect" : [0, 0, 3120, 4160],
      "lastMod" : "20171106T114226",
      "sourceTracks" : [
        {
          "range" : [0, 1],
          "type" : 1,
          "editRate" : 10000000,
          "trackRect" : [0, 0, 3120, 4160],
          "sampleRate" : 0,
          "bitDepth" : 24,
          "numChannels" : 0,
          "integratedLUFS" : 100.0,
          "peakLevel" : -1.0,
          "metaData" : ""
        }
      ],
      "metadata" : {
        "timeAdded" : "20201124T101508.782499"
      }
    },
    {
      "id" : 9,
      "src" : "C:\\Users\\Administrator\\Desktop\\Fasih\\Project Intro\\Images\\IMG_20171107_153310.jpg",
      "rect" : [0, 0, 3120, 4160],
      "lastMod" : "20171107T053310",
      "sourceTracks" : [
        {
          "range" : [0, 1],
          "type" : 1,
          "editRate" : 10000000,
          "trackRect" : [0, 0, 3120, 4160],
          "sampleRate" : 0,
          "bitDepth" : 24,
          "numChannels" : 0,
          "integratedLUFS" : 100.0,
          "peakLevel" : -1.0,
          "metaData" : ""
        }
      ],
      "metadata" : {
        "timeAdded" : "20201124T101508.796566"
      }
    },
    {
      "id" : 10,
      "src" : "C:\\Users\\Administrator\\Desktop\\Fasih\\Project Intro\\Images\\IMG_20171107_224950.jpg",
      "rect" : [0, 0, 3120, 4160],
      "lastMod" : "20171107T124950",
      "sourceTracks" : [
        {
          "range" : [0, 1],
          "type" : 1,
          "editRate" : 10000000,
          "trackRect" : [0, 0, 3120, 4160],
          "sampleRate" : 0,
          "bitDepth" : 24,
          "numChannels" : 0,
          "integratedLUFS" : 100.0,
          "peakLevel" : -1.0,
          "metaData" : ""
        }
      ],
      "metadata" : {
        "timeAdded" : "20201124T101508.805089"
      }
    },
    {
      "id" : 11,
      "src" : "C:\\Users\\Administrator\\Desktop\\Fasih\\Project Intro\\Images\\received_1313332308793902.jpg",
      "rect" : [0, 0, 2048, 1228],
      "lastMod" : "20171002T084508",
      "sourceTracks" : [
        {
          "range" : [0, 1],
          "type" : 1,
          "editRate" : 10000000,
          "trackRect" : [0, 0, 2048, 1228],
          "sampleRate" : 0,
          "bitDepth" : 24,
          "numChannels" : 0,
          "integratedLUFS" : 100.0,
          "peakLevel" : -1.0,
          "metaData" : ""
        }
      ],
      "metadata" : {
        "timeAdded" : "20201124T101508.813108"
      }
    },
    {
      "id" : 12,
      "src" : "C:\\Users\\Administrator\\Desktop\\Fasih\\Project Intro\\Images\\received_1313332378793895.jpg",
      "rect" : [0, 0, 2048, 1228],
      "lastMod" : "20171002T084524",
      "sourceTracks" : [
        {
          "range" : [0, 1],
          "type" : 1,
          "editRate" : 10000000,
          "trackRect" : [0, 0, 2048, 1228],
          "sampleRate" : 0,
          "bitDepth" : 24,
          "numChannels" : 0,
          "integratedLUFS" : 100.0,
          "peakLevel" : -1.0,
          "metaData" : ""
        }
      ],
      "metadata" : {
        "timeAdded" : "20201124T101508.820126"
      }
    },
    {
      "id" : 13,
      "src" : "C:\\Users\\Administrator\\Desktop\\Fasih\\Project Intro\\Images\\received_1389831691143963.jpg",
      "rect" : [0, 0, 960, 1280],
      "lastMod" : "20180110T130410",
      "sourceTracks" : [
        {
          "range" : [0, 1],
          "type" : 1,
          "editRate" : 10000000,
          "trackRect" : [0, 0, 960, 1280],
          "sampleRate" : 0,
          "bitDepth" : 24,
          "numChannels" : 0,
          "integratedLUFS" : 100.0,
          "peakLevel" : -1.0,
          "metaData" : ""
        }
      ],
      "metadata" : {
        "timeAdded" : "20201124T101508.828146"
      }
    },
    {
      "id" : 14,
      "src" : "C:\\Users\\Administrator\\Desktop\\Fasih\\Project Intro\\Images\\received_1389831824477283.jpg",
      "rect" : [0, 0, 960, 1280],
      "lastMod" : "20180110T130412",
      "sourceTracks" : [
        {
          "range" : [0, 1],
          "type" : 1,
          "editRate" : 10000000,
          "trackRect" : [0, 0, 960, 1280],
          "sampleRate" : 0,
          "bitDepth" : 24,
          "numChannels" : 0,
          "integratedLUFS" : 100.0,
          "peakLevel" : -1.0,
          "metaData" : ""
        }
      ],
      "metadata" : {
        "timeAdded" : "20201124T101508.836192"
      }
    },
    {
      "id" : 15,
      "src" : "C:\\Users\\Administrator\\Desktop\\Fasih\\Project Intro\\Images\\received_1389832337810565.jpg",
      "rect" : [0, 0, 1280, 960],
      "lastMod" : "20180110T130412",
      "sourceTracks" : [
        {
          "range" : [0, 1],
          "type" : 1,
          "editRate" : 10000000,
          "trackRect" : [0, 0, 1280, 960],
          "sampleRate" : 0,
          "bitDepth" : 24,
          "numChannels" : 0,
          "integratedLUFS" : 100.0,
          "peakLevel" : -1.0,
          "metaData" : ""
        }
      ],
      "metadata" : {
        "timeAdded" : "20201124T101508.848228"
      }
    },
    {
      "id" : 16,
      "src" : "C:\\Users\\Administrator\\Desktop\\Fasih\\Project Intro\\Images\\Computer Vision.jpeg",
      "rect" : [0, 0, 1920, 1080],
      "lastMod" : "20201124T102629",
      "sourceTracks" : [
        {
          "range" : [0, 1],
          "type" : 1,
          "editRate" : 10000000,
          "trackRect" : [0, 0, 1920, 1080],
          "sampleRate" : 0,
          "bitDepth" : 24,
          "numChannels" : 0,
          "integratedLUFS" : 100.0,
          "peakLevel" : -1.0,
          "metaData" : ""
        }
      ],
      "metadata" : {
        "timeAdded" : "20201124T102638.847225"
      }
    },
    {
      "id" : 17,
      "src" : "C:\\ProgramData\\TechSmith\\Camtasia Studio 19\\Library 4.0\\Camtasia Libraries\\Camtasia 2019\\Intros\\spinningcomputer.asset\\Motion Graphics - Intro Clips - spinningcomputer-91.mp4",
      "rect" : [0, 0, 1920, 1080],
      "lastMod" : "20190205T055848",
      "sourceTracks" : [
        {
          "range" : [0, 229000000],
          "type" : 0,
          "editRate" : 10000000,
          "trackRect" : [0, 0, 1920, 1080],
          "sampleRate" : "10000000/333333",
          "bitDepth" : 24,
          "numChannels" : 0,
          "integratedLUFS" : 100.0,
          "peakLevel" : -1.0,
          "metaData" : ""
        }
      ],
      "metadata" : {
        "assetLibraryId" : "113ccc3d-11c8-4776-9fae-438b2a6334cd",
        "timeAdded" : "20201124T103549.997836"
      }
    },
    {
      "id" : 18,
      "src" : "C:\\Users\\Administrator\\Desktop\\Fasih\\Project Intro\\Images\\Arduino.jpg",
      "rect" : [0, 0, 1600, 867],
      "lastMod" : "20201124T112024",
      "sourceTracks" : [
        {
          "range" : [0, 1],
          "type" : 1,
          "editRate" : 10000000,
          "trackRect" : [0, 0, 1600, 867],
          "sampleRate" : 0,
          "bitDepth" : 24,
          "numChannels" : 0,
          "integratedLUFS" : 100.0,
          "peakLevel" : -1.0,
          "metaData" : ""
        }
      ],
      "metadata" : {
        "timeAdded" : "20201124T112034.272215"
      }
    },
    {
      "id" : 19,
      "src" : "C:\\Users\\Administrator\\Desktop\\Fasih\\Project Intro\\Images\\c++_programming.jpg",
      "rect" : [0, 0, 750, 300],
      "lastMod" : "20201124T131112",
      "sourceTracks" : [
        {
          "range" : [0, 1],
          "type" : 1,
          "editRate" : 10000000,
          "trackRect" : [0, 0, 750, 300],
          "sampleRate" : 0,
          "bitDepth" : 24,
          "numChannels" : 0,
          "integratedLUFS" : 100.0,
          "peakLevel" : -1.0,
          "metaData" : ""
        }
      ],
      "metadata" : {
        "timeAdded" : "20201124T131144.151203"
      }
    },
    {
      "id" : 20,
      "src" : "C:\\Users\\Administrator\\Desktop\\Fasih\\Project Intro\\Images\\orca-image-1504264582699.jpg_1504264582757.jpg",
      "rect" : [0, 0, 720, 405],
      "lastMod" : "20170901T061622",
      "sourceTracks" : [
        {
          "range" : [0, 1],
          "type" : 1,
          "editRate" : 10000000,
          "trackRect" : [0, 0, 720, 405],
          "sampleRate" : 0,
          "bitDepth" : 24,
          "numChannels" : 0,
          "integratedLUFS" : 100.0,
          "peakLevel" : -1.0,
          "metaData" : ""
        }
      ],
      "metadata" : {
        "timeAdded" : "20201124T131144.195971"
      }
    },
    {
      "id" : 21,
      "src" : "C:\\Users\\Administrator\\Desktop\\Fasih\\Project Intro\\Images\\received_1292239330903200.jpg",
      "rect" : [0, 0, 720, 405],
      "lastMod" : "20171010T035008",
      "sourceTracks" : [
        {
          "range" : [0, 1],
          "type" : 1,
          "editRate" : 10000000,
          "trackRect" : [0, 0, 720, 405],
          "sampleRate" : 0,
          "bitDepth" : 24,
          "numChannels" : 0,
          "integratedLUFS" : 100.0,
          "peakLevel" : -1.0,
          "metaData" : ""
        }
      ],
      "metadata" : {
        "timeAdded" : "20201124T131144.226613"
      }
    },
    {
      "id" : 22,
      "src" : "C:\\Users\\Administrator\\Desktop\\Fasih\\Project Intro\\Images\\20170313_225044.jpg",
      "rect" : [0, 0, 2560, 1536],
      "lastMod" : "20170313T125044",
      "sourceTracks" : [
        {
          "range" : [0, 1],
          "type" : 1,
          "editRate" : 10000000,
          "trackRect" : [0, 0, 2560, 1536],
          "sampleRate" : 0,
          "bitDepth" : 24,
          "numChannels" : 0,
          "integratedLUFS" : 100.0,
          "peakLevel" : -1.0,
          "metaData" : ""
        }
      ],
      "metadata" : {
        "timeAdded" : "20201124T132044.785696"
      }
    },
    {
      "id" : 23,
      "src" : "C:\\Users\\Administrator\\Desktop\\Fasih\\Project Intro\\Images\\IMG-20170420-WA0021.jpg",
      "rect" : [0, 0, 1080, 608],
      "lastMod" : "20170420T064242",
      "sourceTracks" : [
        {
          "range" : [0, 1],
          "type" : 1,
          "editRate" : 10000000,
          "trackRect" : [0, 0, 1080, 608],
          "sampleRate" : 0,
          "bitDepth" : 24,
          "numChannels" : 0,
          "integratedLUFS" : 100.0,
          "peakLevel" : -1.0,
          "metaData" : ""
        }
      ],
      "metadata" : {
        "timeAdded" : "20201124T132044.805725"
      }
    },
    {
      "id" : 24,
      "src" : "C:\\Users\\Administrator\\Desktop\\Fasih\\Project Intro\\Images\\IMG-20170428-WA0031.jpg",
      "rect" : [0, 0, 1080, 810],
      "lastMod" : "20170428T024232",
      "sourceTracks" : [
        {
          "range" : [0, 1],
          "type" : 1,
          "editRate" : 10000000,
          "trackRect" : [0, 0, 1080, 810],
          "sampleRate" : 0,
          "bitDepth" : 24,
          "numChannels" : 0,
          "integratedLUFS" : 100.0,
          "peakLevel" : -1.0,
          "metaData" : ""
        }
      ],
      "metadata" : {
        "timeAdded" : "20201124T132044.821796"
      }
    },
    {
      "id" : 25,
      "src" : "C:\\Users\\Administrator\\Desktop\\Fasih\\Project Intro\\Images\\IMG-20170428-WA0144.jpg",
      "rect" : [0, 0, 608, 1080],
      "lastMod" : "20170428T055340",
      "sourceTracks" : [
        {
          "range" : [0, 1],
          "type" : 1,
          "editRate" : 10000000,
          "trackRect" : [0, 0, 608, 1080],
          "sampleRate" : 0,
          "bitDepth" : 24,
          "numChannels" : 0,
          "integratedLUFS" : 100.0,
          "peakLevel" : -1.0,
          "metaData" : ""
        }
      ],
      "metadata" : {
        "timeAdded" : "20201124T132044.838808"
      }
    },
    {
      "id" : 26,
      "src" : "C:\\ProgramData\\TechSmith\\Camtasia Studio 19\\Library 4.0\\Camtasia Libraries\\Camtasia 2019\\Intros\\Stationary.asset\\circle.png",
      "rect" : [0, 0, 357, 357],
      "lastMod" : "20190205T055848",
      "sourceTracks" : [
        {
          "range" : [0, 1],
          "type" : 1,
          "editRate" : 10000000,
          "trackRect" : [0, 0, 357, 357],
          "sampleRate" : 0,
          "bitDepth" : 32,
          "numChannels" : 0,
          "integratedLUFS" : 100.0,
          "peakLevel" : -1.0,
          "metaData" : ""
        }
      ],
      "metadata" : {
        "assetLibraryId" : "69cb9cd3-28bd-4aeb-8ab3-0deceee73811",
        "timeAdded" : "20201124T141400.315495"
      }
    },
    {
      "id" : 27,
      "src" : "C:\\ProgramData\\TechSmith\\Camtasia Studio 19\\Library 4.0\\Camtasia Libraries\\Camtasia 2019\\Intros\\Stationary.asset\\triangle orange.png",
      "rect" : [0, 0, 349, 253],
      "lastMod" : "20190205T055848",
      "sourceTracks" : [
        {
          "range" : [0, 1],
          "type" : 1,
          "editRate" : 10000000,
          "trackRect" : [0, 0, 349, 253],
          "sampleRate" : 0,
          "bitDepth" : 32,
          "numChannels" : 0,
          "integratedLUFS" : 100.0,
          "peakLevel" : -1.0,
          "metaData" : ""
        }
      ],
      "metadata" : {
        "assetLibraryId" : "69cb9cd3-28bd-4aeb-8ab3-0deceee73811",
        "timeAdded" : "20201124T141400.315495"
      }
    },
    {
      "id" : 28,
      "src" : "C:\\ProgramData\\TechSmith\\Camtasia Studio 19\\Library 4.0\\Camtasia Libraries\\Camtasia 2019\\Intros\\Stationary.asset\\triangle orange copy 2.png",
      "rect" : [0, 0, 164, 214],
      "lastMod" : "20190205T055848",
      "sourceTracks" : [
        {
          "range" : [0, 1],
          "type" : 1,
          "editRate" : 10000000,
          "trackRect" : [0, 0, 164, 214],
          "sampleRate" : 0,
          "bitDepth" : 32,
          "numChannels" : 0,
          "integratedLUFS" : 100.0,
          "peakLevel" : -1.0,
          "metaData" : ""
        }
      ],
      "metadata" : {
        "assetLibraryId" : "69cb9cd3-28bd-4aeb-8ab3-0deceee73811",
        "timeAdded" : "20201124T141400.315495"
      }
    },
    {
      "id" : 29,
      "src" : "C:\\ProgramData\\TechSmith\\Camtasia Studio 19\\Library 4.0\\Camtasia Libraries\\Camtasia 2019\\Intros\\Stationary.asset\\triangle blue.png",
      "rect" : [0, 0, 260, 336],
      "lastMod" : "20190205T055848",
      "sourceTracks" : [
        {
          "range" : [0, 1],
          "type" : 1,
          "editRate" : 10000000,
          "trackRect" : [0, 0, 260, 336],
          "sampleRate" : 0,
          "bitDepth" : 32,
          "numChannels" : 0,
          "integratedLUFS" : 100.0,
          "peakLevel" : -1.0,
          "metaData" : ""
        }
      ],
      "metadata" : {
        "assetLibraryId" : "69cb9cd3-28bd-4aeb-8ab3-0deceee73811",
        "timeAdded" : "20201124T141400.315495"
      }
    },
    {
      "id" : 30,
      "src" : "C:\\ProgramData\\TechSmith\\Camtasia Studio 19\\Library 4.0\\Camtasia Libraries\\Camtasia 2019\\Intros\\Stationary.asset\\lines.png",
      "rect" : [0, 0, 303, 220],
      "lastMod" : "20190205T055848",
      "sourceTracks" : [
        {
          "range" : [0, 1],
          "type" : 1,
          "editRate" : 10000000,
          "trackRect" : [0, 0, 303, 220],
          "sampleRate" : 0,
          "bitDepth" : 32,
          "numChannels" : 0,
          "integratedLUFS" : 100.0,
          "peakLevel" : -1.0,
          "metaData" : ""
        }
      ],
      "metadata" : {
        "assetLibraryId" : "69cb9cd3-28bd-4aeb-8ab3-0deceee73811",
        "timeAdded" : "20201124T141400.315495"
      }
    },
    {
      "id" : 31,
      "src" : "C:\\ProgramData\\TechSmith\\Camtasia Studio 19\\Library 4.0\\Camtasia Libraries\\Camtasia 2019\\Intros\\Stationary.asset\\lines copy 2.png",
      "rect" : [0, 0, 323, 220],
      "lastMod" : "20190205T055848",
      "sourceTracks" : [
        {
          "range" : [0, 1],
          "type" : 1,
          "editRate" : 10000000,
          "trackRect" : [0, 0, 323, 220],
          "sampleRate" : 0,
          "bitDepth" : 32,
          "numChannels" : 0,
          "integratedLUFS" : 100.0,
          "peakLevel" : -1.0,
          "metaData" : ""
        }
      ],
      "metadata" : {
        "assetLibraryId" : "69cb9cd3-28bd-4aeb-8ab3-0deceee73811",
        "timeAdded" : "20201124T141400.315495"
      }
    },
    {
      "id" : 32,
      "src" : "C:\\ProgramData\\TechSmith\\Camtasia Studio 19\\Library 4.0\\Camtasia Libraries\\Camtasia 2019\\Intros\\Stationary.asset\\rectangle copy 2.png",
      "rect" : [0, 0, 620, 436],
      "lastMod" : "20190205T055848",
      "sourceTracks" : [
        {
          "range" : [0, 1],
          "type" : 1,
          "editRate" : 10000000,
          "trackRect" : [0, 0, 620, 436],
          "sampleRate" : 0,
          "bitDepth" : 32,
          "numChannels" : 0,
          "integratedLUFS" : 100.0,
          "peakLevel" : -1.0,
          "metaData" : ""
        }
      ],
      "metadata" : {
        "assetLibraryId" : "69cb9cd3-28bd-4aeb-8ab3-0deceee73811",
        "timeAdded" : "20201124T141400.315495"
      }
    },
    {
      "id" : 33,
      "src" : "C:\\ProgramData\\TechSmith\\Camtasia Studio 19\\Library 4.0\\Camtasia Libraries\\Camtasia 2019\\Intros\\Stationary.asset\\rectangle copy.png",
      "rect" : [0, 0, 238, 436],
      "lastMod" : "20190205T055848",
      "sourceTracks" : [
        {
          "range" : [0, 1],
          "type" : 1,
          "editRate" : 10000000,
          "trackRect" : [0, 0, 238, 436],
          "sampleRate" : 0,
          "bitDepth" : 32,
          "numChannels" : 0,
          "integratedLUFS" : 100.0,
          "peakLevel" : -1.0,
          "metaData" : ""
        }
      ],
      "metadata" : {
        "assetLibraryId" : "69cb9cd3-28bd-4aeb-8ab3-0deceee73811",
        "timeAdded" : "20201124T141400.315495"
      }
    },
    {
      "id" : 34,
      "src" : "C:\\ProgramData\\TechSmith\\Camtasia Studio 19\\Library 4.0\\Camtasia Libraries\\Camtasia 2019\\Intros\\Stationary.asset\\dots main.png",
      "rect" : [0, 0, 272, 268],
      "lastMod" : "20190205T055848",
      "sourceTracks" : [
        {
          "range" : [0, 1],
          "type" : 1,
          "editRate" : 10000000,
          "trackRect" : [0, 0, 272, 268],
          "sampleRate" : 0,
          "bitDepth" : 32,
          "numChannels" : 0,
          "integratedLUFS" : 100.0,
          "peakLevel" : -1.0,
          "metaData" : ""
        }
      ],
      "metadata" : {
        "assetLibraryId" : "69cb9cd3-28bd-4aeb-8ab3-0deceee73811",
        "timeAdded" : "20201124T141400.315495"
      }
    },
    {
      "id" : 35,
      "src" : "C:\\ProgramData\\TechSmith\\Camtasia Studio 19\\Library 4.0\\Camtasia Libraries\\Camtasia 2019\\Intros\\Stationary.asset\\dots long main.png",
      "rect" : [0, 0, 525, 249],
      "lastMod" : "20190205T055848",
      "sourceTracks" : [
        {
          "range" : [0, 1],
          "type" : 1,
          "editRate" : 10000000,
          "trackRect" : [0, 0, 525, 249],
          "sampleRate" : 0,
          "bitDepth" : 32,
          "numChannels" : 0,
          "integratedLUFS" : 100.0,
          "peakLevel" : -1.0,
          "metaData" : ""
        }
      ],
      "metadata" : {
        "assetLibraryId" : "69cb9cd3-28bd-4aeb-8ab3-0deceee73811",
        "timeAdded" : "20201124T141400.315495"
      }
    },
    {
      "id" : 36,
      "src" : "C:\\ProgramData\\TechSmith\\Camtasia Studio 19\\Library 4.0\\Camtasia Libraries\\Camtasia 2019\\Intros\\Stationary.asset\\circle copy.png",
      "rect" : [0, 0, 224, 224],
      "lastMod" : "20190205T055848",
      "sourceTracks" : [
        {
          "range" : [0, 1],
          "type" : 1,
          "editRate" : 10000000,
          "trackRect" : [0, 0, 224, 224],
          "sampleRate" : 0,
          "bitDepth" : 32,
          "numChannels" : 0,
          "integratedLUFS" : 100.0,
          "peakLevel" : -1.0,
          "metaData" : ""
        }
      ],
      "metadata" : {
        "assetLibraryId" : "69cb9cd3-28bd-4aeb-8ab3-0deceee73811",
        "timeAdded" : "20201124T141400.315495"
      }
    }
  ],
  "timeline" : {
    "id" : 37,
    "sceneTrack" : {
      "scenes" : [
        {
          "duration" : 145.566666666667,
          "title" : "",
          "type" : "",
          "csml" : {
            "tracks" : [
              {
                "trackIndex" : 0,
                "medias" : [
                  {
                    "id" : 38,
                    "_type" : "Group",
                    "parameters" : {
                      "translation0" : {
                        "type" : "double",
                        "defaultValue" : -2.79172240880143e-11,
                        "interp" : "eioe"
                      },
                      "scale0" : {
                        "type" : "double",
                        "defaultValue" : 0.210937499999965,
                        "interp" : "eioe"
                      },
                      "scale1" : {
                        "type" : "double",
                        "defaultValue" : 0.210937499999965,
                        "interp" : "eioe"
                      },
                      "volume" : 1.0
                    },
                    "tracks" : [
                      {
                        "trackIndex" : 0,
                        "medias" : [
                          {
                            "id" : 39,
                            "_type" : "Group",
                            "parameters" : {
                              "volume" : 1.0
                            },
                            "tracks" : [
                              {
                                "trackIndex" : 0,
                                "medias" : [
                                  {
                                    "id" : 40,
                                    "_type" : "StitchedMedia",
                                    "minMediaStart" : 0,
                                    "attributes" : {
                                      "ident" : "laptop-open-background",
                                      "gain" : 1.0,
                                      "mixToMono" : false
                                    },
                                    "parameters" : {
                                      "cursorOpacity" : {
                                        "type" : "double",
                                        "defaultValue" : 1.0,
                                        "interp" : "linr"
                                      },
                                      "cursorScale" : {
                                        "type" : "double",
                                        "defaultValue" : 1.0,
                                        "interp" : "linr"
                                      }
                                    },
                                    "medias" : [
                                        {
                                          "id" : 41,
                                          "_type" : "VMFile",
                                          "src" : 17,
                                          "trackNumber" : 0,
                                          "attributes" : {
                                            "ident" : "laptop-open-background"
                                          },
                                          "effects" : [

                                          ],
                                          "start" : 0,
                                          "duration" : 100,
                                          "mediaStart" : 0,
                                          "mediaDuration" : 100,
                                          "scalar" : 1,
                                          "metadata" : {
                                            "WinSubProjectDisplayName" : "",
                                            "clipSpeedAttribute" : false
                                          },
                                          "animationTracks" : {

                                          }
                                        },
                                        {
                                          "id" : 42,
                                          "_type" : "IMFile",
                                          "src" : 17,
                                          "trackNumber" : 0,
                                          "trimStartSum" : 0,
                                          "attributes" : {
                                            "ident" : "laptop-open-background"
                                          },
                                          "effects" : [

                                          ],
                                          "start" : 100,
                                          "duration" : 90,
                                          "mediaStart" : 99,
                                          "mediaDuration" : 1,
                                          "scalar" : 1,
                                          "metadata" : {
                                            "WinSubProjectDisplayName" : ""
                                          },
                                          "animationTracks" : {

                                          }
                                        },
                                        {
                                          "id" : 43,
                                          "_type" : "VMFile",
                                          "src" : 17,
                                          "trackNumber" : 0,
                                          "attributes" : {
                                            "ident" : "laptop-open-background"
                                          },
                                          "effects" : [

                                          ],
                                          "start" : 190,
                                          "duration" : 587,
                                          "mediaStart" : 100,
                                          "mediaDuration" : 587,
                                          "scalar" : 1,
                                          "metadata" : {
                                            "WinSubProjectDisplayName" : "",
                                            "clipSpeedAttribute" : false
                                          },
                                          "animationTracks" : {

                                          }
                                        }
                                    ],
                                    "effects" : [

                                    ],
                                    "start" : 0,
                                    "duration" : 191,
                                    "mediaStart" : 0,
                                    "mediaDuration" : 191,
                                    "scalar" : 1,
                                    "metadata" : {
                                      "WinSubProjectDisplayName" : "",
                                      "clipSpeedAttribute" : false
                                    },
                                    "animationTracks" : {

                                    }
                                  },
                                  {
                                    "id" : 44,
                                    "_type" : "VMFile",
                                    "src" : 17,
                                    "trackNumber" : 0,
                                    "attributes" : {
                                      "ident" : "laptop-open-background"
                                    },
                                    "effects" : [

                                    ],
                                    "start" : 191,
                                    "duration" : 104,
                                    "mediaStart" : 109,
                                    "mediaDuration" : 104,
                                    "scalar" : 1,
                                    "metadata" : {
                                      "WinSubProjectDisplayName" : "",
                                      "clipSpeedAttribute" : false
                                    },
                                    "animationTracks" : {

                                    }
                                  }
                                ],
                                  "ident" : "",
                                  "audioMuted" : false,
                                  "videoHidden" : false,
                                  "magnetic" : false,
                                  "matte" : 0,
                                  "metadata" : {
                                    "IsLocked" : "False",
                                    "WinTrackHeight" : "0"
                                  }
                              }
                            ],
                            "attributes" : {
                              "ident" : "Shapes",
                              "gain" : 1.0,
                              "mixToMono" : false
                            },
                            "effects" : [

                            ],
                            "start" : 0,
                            "duration" : 295,
                            "mediaStart" : 0.0,
                            "mediaDuration" : 295.0,
                            "scalar" : 1,
                            "metadata" : {
                              "IsGroupExpanded" : "False",
                              "WinSubProjectDisplayName" : "Shapes",
                              "clipSpeedAttribute" : false,
                              "effectApplied" : "none",
                              "isOpen" : false
                            },
                            "animationTracks" : {

                            }
                          }
                        ],
                          "ident" : "",
                          "audioMuted" : false,
                          "videoHidden" : false,
                          "magnetic" : false,
                          "matte" : 0,
                          "metadata" : {
                            "IsLocked" : "False",
                            "WinTrackHeight" : "0",
                            "trackHeight" : "48"
                          }
                      },
                      {
                        "trackIndex" : 1,
                        "medias" : [
                          {
                            "id" : 45,
                            "_type" : "Callout",
                            "def" : {
                              "kind" : "remix",
                              "shape" : "text",
                              "style" : "basic",
                              "height" : {
                                "type" : "double",
                                "defaultValue" : 441.250000000173,
                                "interp" : "linr"
                              },
                              "line-spacing" : {
                                "type" : "double",
                                "defaultValue" : 0.0,
                                "interp" : "linr"
                              },
                              "width" : {
                                "type" : "double",
                                "defaultValue" : 819.999999998967,
                                "interp" : "linr"
                              },
                              "word-wrap" : {
                                "type" : "double",
                                "defaultValue" : 1.0,
                                "interp" : "linr"
                              },
                              "horizontal-alignment" : "center",
                              "resize-behavior" : "resizeText",
                              "text" : "Fasih Uddin",
                              "vertical-alignment" : "center",
                              "font" : {
                                "color-blue" : {
                                  "type" : "double",
                                  "defaultValue" : 1.0,
                                  "interp" : "linr"
                                },
                                "color-green" : {
                                  "type" : "double",
                                  "defaultValue" : 1.0,
                                  "interp" : "linr"
                                },
                                "color-red" : {
                                  "type" : "double",
                                  "defaultValue" : 1.0,
                                  "interp" : "linr"
                                },
                                "size" : {
                                  "type" : "double",
                                  "defaultValue" : 96.0,
                                  "interp" : "linr"
                                },
                                "tracking" : {
                                  "type" : "double",
                                  "defaultValue" : 0.0,
                                  "interp" : "linr"
                                },
                                "name" : "Montserrat",
                                "weight" : "Regular"
                              },
                              "textAttributes" : {
                                "type" : "textAttributeList",
                                "keyframes" : [
                                  {
                                    "endTime" : 0,
                                    "time" : 0,
                                    "value" : [{"name":"fontItalic","rangeEnd":11,"rangeStart":0,"value":0,"valueType":"int"},{"name":"fontWeight","rangeEnd":11,"rangeStart":0,"value":100,"valueType":"int"},{"name":"underline","rangeEnd":11,"rangeStart":0,"value":0,"valueType":"int"},{"name":"fontName","rangeEnd":11,"rangeStart":0,"value":"Montserrat","valueType":"string"},{"name":"strikethrough","rangeEnd":11,"rangeStart":0,"value":0,"valueType":"int"},{"name":"fontSize","rangeEnd":11,"rangeStart":0,"value":75,"valueType":"double"},{"name":"fgColor","rangeEnd":11,"rangeStart":0,"value":"(6,5,5,255)","valueType":"color"}],
                                    "duration" : 0
                                  }
                                ]
                              }
                            },
                            "attributes" : {
                              "autoRotateText" : true
                            },
                            "parameters" : {
                              "translation0" : {
                                "type" : "double",
                                "defaultValue" : -28.7499999993803,
                                "interp" : "eioe"
                              },
                              "translation1" : {
                                "type" : "double",
                                "defaultValue" : 94.1250000000071,
                                "interp" : "eioe"
                              }
                            },
                            "effects" : [
                                {
                                  "_type" : "GenericBehaviorEffect",
                                  "effectName" : "scale",
                                  "start" : -1,
                                  "duration" : 91                                ,
                                  "in" : {
                                    "attributes" : {
                                      "name" : "grow",
                                      "type" : 1,
                                      "characterOrder" : 6,
                                      "offsetBetweenCharacters" : 1,
                                      "suggestedDurationPerCharacter" : 18,
                                      "overlapProportion" : "3/4",
                                      "movement" : 30,
                                      "springDamping" : 5.0,
                                      "springStiffness" : 50.0,
                                      "bounceBounciness" : 0.45
                                    }
                                  
                                  },
                                  "center" : {
                                    "attributes" : {
                                      "name" : "none",
                                      "type" : 1,
                                      "characterOrder" : 6,
                                      "offsetBetweenCharacters" : 0,
                                      "secondsPerLoop" : 1,
                                      "numberOfLoops" : -1,
                                      "delayBetweenLoops" : 0,
                                      "offsetBetweenCharacters" : 0
                                    }
                                  
                                  },
                                  "out" : {
                                    "attributes" : {
                                      "name" : "shrink",
                                      "type" : 1,
                                      "characterOrder" : 6,
                                      "offsetBetweenCharacters" : 1,
                                      "suggestedDurationPerCharacter" : "29/2",
                                      "overlapProportion" : "1/10",
                                      "movement" : 11,
                                      "springDamping" : 5.0,
                                      "springStiffness" : 50.0,
                                      "bounceBounciness" : 0.45
                                    }
                                  
                                  }
                                }
                            ],
                            "start" : 100,
                            "duration" : 91,
                            "mediaStart" : -1,
                            "mediaDuration" : 91,
                            "scalar" : 1,
                            "metadata" : {
                              "WinSubProjectDisplayName" : "",
                              "clipSpeedAttribute" : false,
                              "effectApplied" : "none"
                            },
                            "animationTracks" : {

                            }
                          }
                        ],
                          "ident" : "",
                          "audioMuted" : false,
                          "videoHidden" : false,
                          "magnetic" : false,
                          "matte" : 0,
                          "metadata" : {
                            "IsLocked" : "False",
                            "WinTrackHeight" : "1.05102561619514e-311",
                            "trackHeight" : "48"
                          }
                      }
                    ],
                    "attributes" : {
                      "ident" : "spinningcomputer",
                      "gain" : 1.0,
                      "mixToMono" : false,
                      "assetProperties" : [
                        {
                          "type" : 0,
                          "name" : "Title",
                          "objects" : [ 45 ],
                          "themeMappings" :  {
                            "font-color" : "foreground-1",
                            "font-family" : "font-1"
                          }
                        }
                      ]
                    },
                    "effects" : [

                    ],
                    "start" : 0,
                    "duration" : 182,
                    "mediaStart" : 0.0,
                    "mediaDuration" : 182.0,
                    "scalar" : 1,
                    "metadata" : {
                      "IsGroupExpanded" : "False",
                      "WinSubProjectDisplayName" : "",
                      "clipSpeedAttribute" : false,
                      "default-scale0" : 0.174999997019768,
                      "default-scale1" : 0.174999997019768,
                      "default-translation0" : 0.0,
                      "default-translation1" : 0.0,
                      "effectApplied" : "none",
                      "isOpen" : false
                    },
                    "animationTracks" : {

                    }
                  },
                  {
                    "id" : 46,
                    "_type" : "StitchedMedia",
                    "minMediaStart" : 0,
                    "attributes" : {
                      "ident" : "Rec 11-23-20",
                      "gain" : 1.0,
                      "mixToMono" : false
                    },
                    "parameters" : {
                      "translation0" : -2.16222595383897e-11,
                      "translation1" : -0.593023255824774,
                      "scale0" : 0.337209302325581,
                      "scale1" : 0.337209302325581,
                      "cursorOpacity" : 1.0,
                      "cursorScale" : 1.0
                    },
                    "medias" : [
                        {
                          "id" : 47,
                          "_type" : "ScreenVMFile",
                          "src" : 2,
                          "trackNumber" : 0,
                          "attributes" : {
                            "ident" : "Rec 11-23-20"
                          },
                          "parameters" : {
                            "cursorScale" : {
                              "type" : "double",
                              "defaultValue" : 0.0,
                              "interp" : "linr"
                            },
                            "cursorOpacity" : {
                              "type" : "double",
                              "defaultValue" : 0.0,
                              "interp" : "linr"
                            }
                          },
                          "effects" : [

                          ],
                          "start" : 0,
                          "duration" : 52,
                          "mediaStart" : 0,
                          "mediaDuration" : 52,
                          "scalar" : 1,
                          "metadata" : {
                            "AutoAppliedSmartFocus" : "False",
                            "clipSpeedAttribute" : false
                          },
                          "animationTracks" : {

                          }
                        },
                        {
                          "id" : 48,
                          "_type" : "ScreenIMFile",
                          "src" : 2,
                          "trackNumber" : 0,
                          "trimStartSum" : 0,
                          "attributes" : {
                            "ident" : "Rec 11-23-20"
                          },
                          "parameters" : {
                            "cursorOpacity" : 0.0,
                            "cursorScale" : 0.0
                          },
                          "effects" : [

                          ],
                          "start" : 52,
                          "duration" : 30,
                          "mediaStart" : 51,
                          "mediaDuration" : 1,
                          "scalar" : 1,
                          "metadata" : {
                            "AutoAppliedSmartFocus" : "False"
                          },
                          "animationTracks" : {

                          }
                        },
                        {
                          "id" : 49,
                          "_type" : "ScreenVMFile",
                          "src" : 2,
                          "trackNumber" : 0,
                          "attributes" : {
                            "ident" : "Rec 11-23-20"
                          },
                          "parameters" : {
                            "cursorScale" : {
                              "type" : "double",
                              "defaultValue" : 0.0,
                              "interp" : "linr"
                            },
                            "cursorOpacity" : {
                              "type" : "double",
                              "defaultValue" : 0.0,
                              "interp" : "linr"
                            }
                          },
                          "effects" : [

                          ],
                          "start" : 82,
                          "duration" : 708,
                          "mediaStart" : 52,
                          "mediaDuration" : 708,
                          "scalar" : 1,
                          "metadata" : {
                            "AutoAppliedSmartFocus" : "False",
                            "clipSpeedAttribute" : false
                          },
                          "animationTracks" : {

                          }
                        }
                    ],
                    "effects" : [

                    ],
                    "start" : 182,
                    "duration" : 90,
                    "mediaStart" : 0,
                    "mediaDuration" : 90,
                    "scalar" : 1,
                    "metadata" : {
                      "AutoAppliedSmartFocus" : "False",
                      "clipSpeedAttribute" : false,
                      "default-scale0" : 0.337209302325581,
                      "default-scale1" : 0.337209302325581,
                      "default-translation0" : 0.0,
                      "default-translation1" : 0.0
                    },
                    "animationTracks" : {

                    }
                  },
                  {
                    "id" : 50,
                    "_type" : "IMFile",
                    "src" : 19,
                    "trackNumber" : 0,
                    "trimStartSum" : -18,
                    "attributes" : {
                      "ident" : "c++_programming"
                    },
                    "parameters" : {
                      "translation1" : {
                        "type" : "double",
                        "defaultValue" : 7.32480742726693e-12,
                        "interp" : "eioe"
                      },
                      "scale0" : {
                        "type" : "double",
                        "defaultValue" : 0.630000000000045,
                        "interp" : "eioe"
                      },
                      "scale1" : {
                        "type" : "double",
                        "defaultValue" : 0.630000000000045,
                        "interp" : "eioe"
                      }
                    },
                    "effects" : [

                    ],
                    "start" : 272,
                    "duration" : 110,
                    "mediaStart" : 0,
                    "mediaDuration" : 1,
                    "scalar" : 1,
                    "metadata" : {
                      "clipSpeedAttribute" : false,
                      "default-scale0" : 0.54,
                      "default-scale1" : 0.54,
                      "default-translation1" : 0.0
                    },
                    "animationTracks" : {

                    }
                  },
                  {
                    "id" : 51,
                    "_type" : "IMFile",
                    "src" : 21,
                    "trackNumber" : 0,
                    "trimStartSum" : 0,
                    "attributes" : {
                      "ident" : "received_1292239330903200"
                    },
                    "parameters" : {
                      "translation0" : {
                        "type" : "double",
                        "defaultValue" : 23.410404624254,
                        "interp" : "eioe"
                      },
                      "translation1" : {
                        "type" : "double",
                        "defaultValue" : 5.58841861675319e-12,
                        "interp" : "eioe"
                      },
                      "scale0" : {
                        "type" : "double",
                        "defaultValue" : 0.699060693641442,
                        "interp" : "eioe"
                      },
                      "scale1" : {
                        "type" : "double",
                        "defaultValue" : 0.699060693641442,
                        "interp" : "eioe"
                      },
                      "geometryCrop0" : {
                        "type" : "double",
                        "defaultValue" : 36.8372093022333,
                        "interp" : "linr"
                      },
                      "geometryCrop2" : {
                        "type" : "double",
                        "defaultValue" : 103.813953488182,
                        "interp" : "linr"
                      }
                    },
                    "effects" : [

                    ],
                    "start" : 382,
                    "duration" : 180,
                    "mediaStart" : 0,
                    "mediaDuration" : 1,
                    "scalar" : 1,
                    "metadata" : {
                      "clipSpeedAttribute" : false,
                      "default-scale0" : 0.466666666666667,
                      "default-scale1" : 0.466666666666667,
                      "default-translation0" : 0.0,
                      "default-translation1" : 0.0
                    },
                    "animationTracks" : {

                    }
                  },
                  {
                    "id" : 52,
                    "_type" : "IMFile",
                    "src" : 18,
                    "trackNumber" : 0,
                    "trimStartSum" : 0,
                    "attributes" : {
                      "ident" : "Arduino"
                    },
                    "parameters" : {
                      "translation0" : {
                        "type" : "double",
                        "defaultValue" : -5.38324940180246e-11,
                        "interp" : "eioe"
                      },
                      "scale0" : {
                        "type" : "double",
                        "defaultValue" : 0.253124999999958,
                        "interp" : "eioe"
                      },
                      "scale1" : {
                        "type" : "double",
                        "defaultValue" : 0.253124999999958,
                        "interp" : "eioe"
                      }
                    },
                    "effects" : [

                    ],
                    "start" : 562,
                    "duration" : 94,
                    "mediaStart" : 0,
                    "mediaDuration" : 1,
                    "scalar" : 1,
                    "metadata" : {
                      "clipSpeedAttribute" : false,
                      "default-scale0" : 0.217993079584775,
                      "default-scale1" : 0.217993079584775,
                      "default-translation0" : 0.0
                    },
                    "animationTracks" : {

                    }
                  },
                  {
                    "id" : 53,
                    "_type" : "IMFile",
                    "src" : 22,
                    "trackNumber" : 0,
                    "trimStartSum" : 0,
                    "attributes" : {
                      "ident" : "20170313_225044"
                    },
                    "parameters" : {
                      "translation0" : {
                        "type" : "double",
                        "defaultValue" : 3.86286558295978e-11,
                        "interp" : "eioe"
                      },
                      "scale0" : {
                        "type" : "double",
                        "defaultValue" : 0.158203124999988,
                        "interp" : "eioe"
                      },
                      "scale1" : {
                        "type" : "double",
                        "defaultValue" : 0.158203124999988,
                        "interp" : "eioe"
                      }
                    },
                    "effects" : [

                    ],
                    "start" : 656,
                    "duration" : 60,
                    "mediaStart" : 0,
                    "mediaDuration" : 1,
                    "scalar" : 1,
                    "metadata" : {
                      "clipSpeedAttribute" : false,
                      "default-scale0" : 0.123046875,
                      "default-scale1" : 0.123046875,
                      "default-translation0" : 0.0
                    },
                    "animationTracks" : {

                    }
                  },
                  {
                    "id" : 54,
                    "_type" : "VMFile",
                    "src" : 5,
                    "trackNumber" : 0,
                    "attributes" : {
                      "ident" : "(187) AI Based LFR - YouTube"
                    },
                    "parameters" : {
                      "translation0" : 3.38218342221808e-11,
                      "scale0" : 1.00000000000004,
                      "scale1" : 1.00000000000004
                    },
                    "effects" : [

                    ],
                    "start" : 716,
                    "duration" : 497,
                    "mediaStart" : 61,
                    "mediaDuration" : 497,
                    "scalar" : 1,
                    "metadata" : {
                      "clipSpeedAttribute" : false,
                      "default-scale0" : 0.2625,
                      "default-scale1" : 0.2625,
                      "default-translation0" : 0.0,
                      "default-translation1" : 0.0
                    },
                    "animationTracks" : {

                    }
                  },
                  {
                    "id" : 55,
                    "_type" : "IMFile",
                    "src" : 15,
                    "trackNumber" : 0,
                    "trimStartSum" : 0,
                    "attributes" : {
                      "ident" : "received_1389832337810565"
                    },
                    "parameters" : {
                      "translation0" : {
                        "type" : "double",
                        "defaultValue" : -2.15365503208886e-11,
                        "interp" : "eioe"
                      },
                      "translation1" : {
                        "type" : "double",
                        "defaultValue" : 1.61577418111847e-11,
                        "interp" : "eioe"
                      },
                      "scale0" : {
                        "type" : "double",
                        "defaultValue" : 0.316406249999975,
                        "interp" : "eioe"
                      },
                      "scale1" : {
                        "type" : "double",
                        "defaultValue" : 0.316406249999974,
                        "interp" : "eioe"
                      }
                    },
                    "effects" : [

                    ],
                    "start" : 1333,
                    "duration" : 65,
                    "mediaStart" : 0,
                    "mediaDuration" : 1,
                    "scalar" : 1,
                    "metadata" : {
                      "clipSpeedAttribute" : false,
                      "default-scale0" : 0.196875,
                      "default-scale1" : 0.196875,
                      "default-translation0" : 0.0,
                      "default-translation1" : 0.0
                    },
                    "animationTracks" : {

                    }
                  },
                  {
                    "id" : 56,
                    "_type" : "IMFile",
                    "src" : 8,
                    "trackNumber" : 0,
                    "trimStartSum" : 0,
                    "attributes" : {
                      "ident" : "IMG_20171106_214223"
                    },
                    "parameters" : {
                      "translation0" : {
                        "type" : "double",
                        "defaultValue" : -1.37418965096003e-11,
                        "interp" : "eioe"
                      },
                      "translation1" : {
                        "type" : "double",
                        "defaultValue" : 7.88968890219621e-12,
                        "interp" : "eioe"
                      },
                      "scale0" : {
                        "type" : "double",
                        "defaultValue" : 0.129807692307723,
                        "interp" : "eioe"
                      },
                      "scale1" : {
                        "type" : "double",
                        "defaultValue" : 0.129807692307723,
                        "interp" : "eioe"
                      }
                    },
                    "effects" : [

                    ],
                    "start" : 1398,
                    "duration" : 63,
                    "mediaStart" : 0,
                    "mediaDuration" : 1,
                    "scalar" : 1,
                    "metadata" : {
                      "clipSpeedAttribute" : false,
                      "default-scale0" : 0.0454326923076923,
                      "default-scale1" : 0.0454326923076923,
                      "default-translation0" : 0.0,
                      "default-translation1" : 0.0
                    },
                    "animationTracks" : {

                    }
                  },
                  {
                    "id" : 57,
                    "_type" : "IMFile",
                    "src" : 9,
                    "trackNumber" : 0,
                    "trimStartSum" : 0,
                    "attributes" : {
                      "ident" : "IMG_20171107_153310"
                    },
                    "parameters" : {
                      "translation0" : {
                        "type" : "double",
                        "defaultValue" : -2.96580537906266e-11,
                        "interp" : "eioe"
                      },
                      "scale0" : {
                        "type" : "double",
                        "defaultValue" : 0.129807692307666,
                        "interp" : "eioe"
                      },
                      "scale1" : {
                        "type" : "double",
                        "defaultValue" : 0.129807692307666,
                        "interp" : "eioe"
                      }
                    },
                    "effects" : [

                    ],
                    "start" : 1461,
                    "duration" : 69,
                    "mediaStart" : 0,
                    "mediaDuration" : 1,
                    "scalar" : 1,
                    "metadata" : {
                      "clipSpeedAttribute" : false,
                      "default-scale0" : 0.0454326923076923,
                      "default-scale1" : 0.0454326923076923,
                      "default-translation0" : 0.0
                    },
                    "animationTracks" : {

                    }
                  },
                  {
                    "id" : 58,
                    "_type" : "IMFile",
                    "src" : 11,
                    "trackNumber" : 0,
                    "trimStartSum" : 0,
                    "attributes" : {
                      "ident" : "received_1313332308793902"
                    },
                    "parameters" : {
                      "translation0" : {
                        "type" : "double",
                        "defaultValue" : 4.66862104531174e-11,
                        "interp" : "eioe"
                      },
                      "scale0" : {
                        "type" : "double",
                        "defaultValue" : 0.197753906250002,
                        "interp" : "eioe"
                      },
                      "scale1" : {
                        "type" : "double",
                        "defaultValue" : 0.197753906250002,
                        "interp" : "eioe"
                      }
                    },
                    "effects" : [

                    ],
                    "start" : 1530,
                    "duration" : 65,
                    "mediaStart" : 0,
                    "mediaDuration" : 1,
                    "scalar" : 1,
                    "metadata" : {
                      "clipSpeedAttribute" : false,
                      "default-scale0" : 0.153908794788274,
                      "default-scale1" : 0.153908794788274,
                      "default-translation0" : 0.0
                    },
                    "animationTracks" : {

                    }
                  },
                  {
                    "id" : 59,
                    "_type" : "IMFile",
                    "src" : 12,
                    "trackNumber" : 0,
                    "trimStartSum" : 0,
                    "attributes" : {
                      "ident" : "received_1313332378793895"
                    },
                    "parameters" : {
                      "translation0" : {
                        "type" : "double",
                        "defaultValue" : -2.26370033828971e-11,
                        "interp" : "eioe"
                      },
                      "scale0" : {
                        "type" : "double",
                        "defaultValue" : 0.197753906249973,
                        "interp" : "eioe"
                      },
                      "scale1" : {
                        "type" : "double",
                        "defaultValue" : 0.197753906249973,
                        "interp" : "eioe"
                      }
                    },
                    "effects" : [

                    ],
                    "start" : 1595,
                    "duration" : 65,
                    "mediaStart" : 0,
                    "mediaDuration" : 1,
                    "scalar" : 1,
                    "metadata" : {
                      "clipSpeedAttribute" : false,
                      "default-scale0" : 0.153908794788274,
                      "default-scale1" : 0.153908794788274,
                      "default-translation0" : 0.0
                    },
                    "animationTracks" : {

                    }
                  },
                  {
                    "id" : 60,
                    "_type" : "IMFile",
                    "src" : 14,
                    "trackNumber" : 0,
                    "trimStartSum" : 0,
                    "attributes" : {
                      "ident" : "received_1389831824477283"
                    },
                    "parameters" : {
                      "translation0" : {
                        "type" : "double",
                        "defaultValue" : 3.76587649952853e-12,
                        "interp" : "eioe"
                      },
                      "scale0" : {
                        "type" : "double",
                        "defaultValue" : 0.421874999999997,
                        "interp" : "eioe"
                      },
                      "scale1" : {
                        "type" : "double",
                        "defaultValue" : 0.421874999999997,
                        "interp" : "eioe"
                      }
                    },
                    "effects" : [

                    ],
                    "start" : 1660,
                    "duration" : 67,
                    "mediaStart" : 0,
                    "mediaDuration" : 1,
                    "scalar" : 1,
                    "metadata" : {
                      "clipSpeedAttribute" : false,
                      "default-scale0" : 0.14765625,
                      "default-scale1" : 0.14765625,
                      "default-translation0" : 0.0
                    },
                    "animationTracks" : {

                    }
                  },
                  {
                    "id" : 61,
                    "_type" : "IMFile",
                    "src" : 13,
                    "trackNumber" : 0,
                    "trimStartSum" : 0,
                    "attributes" : {
                      "ident" : "received_1389831691143963"
                    },
                    "parameters" : {
                      "translation0" : {
                        "type" : "double",
                        "defaultValue" : 3.76587649952853e-12,
                        "interp" : "eioe"
                      },
                      "scale0" : {
                        "type" : "double",
                        "defaultValue" : 0.421874999999997,
                        "interp" : "eioe"
                      },
                      "scale1" : {
                        "type" : "double",
                        "defaultValue" : 0.421874999999997,
                        "interp" : "eioe"
                      }
                    },
                    "effects" : [

                    ],
                    "start" : 1727,
                    "duration" : 69,
                    "mediaStart" : 0,
                    "mediaDuration" : 1,
                    "scalar" : 1,
                    "metadata" : {
                      "clipSpeedAttribute" : false,
                      "default-scale0" : 0.14765625,
                      "default-scale1" : 0.14765625,
                      "default-translation0" : 0.0
                    },
                    "animationTracks" : {

                    }
                  },
                  {
                    "id" : 62,
                    "_type" : "IMFile",
                    "src" : 10,
                    "trackNumber" : 0,
                    "trimStartSum" : 0,
                    "attributes" : {
                      "ident" : "IMG_20171107_224950"
                    },
                    "parameters" : {
                      "translation0" : {
                        "type" : "double",
                        "defaultValue" : -4.11913281261865e-11,
                        "interp" : "eioe"
                      },
                      "scale0" : {
                        "type" : "double",
                        "defaultValue" : 0.129807692307659,
                        "interp" : "eioe"
                      },
                      "scale1" : {
                        "type" : "double",
                        "defaultValue" : 0.129807692307659,
                        "interp" : "eioe"
                      }
                    },
                    "effects" : [

                    ],
                    "start" : 1796,
                    "duration" : 63,
                    "mediaStart" : 0,
                    "mediaDuration" : 1,
                    "scalar" : 1,
                    "metadata" : {
                      "clipSpeedAttribute" : false,
                      "default-scale0" : 0.0454326923076923,
                      "default-scale1" : 0.0454326923076923,
                      "default-translation0" : 0.0
                    },
                    "animationTracks" : {

                    }
                  },
                  {
                    "id" : 63,
                    "_type" : "VMFile",
                    "src" : 4,
                    "trackNumber" : 0,
                    "attributes" : {
                      "ident" : "(187) 888 LED Cube - YouTube"
                    },
                    "parameters" : {
                      "translation0" : -4.00000000001938,
                      "translation1" : 37.000000000044,
                      "scale0" : 1.74015370370526,
                      "scale1" : 1.74015370370526
                    },
                    "effects" : [

                    ],
                    "start" : 1859,
                    "duration" : 598,
                    "mediaStart" : 269,
                    "mediaDuration" : 598,
                    "scalar" : 1,
                    "metadata" : {
                      "clipSpeedAttribute" : false,
                      "default-scale0" : 0.666666666666667,
                      "default-scale1" : 0.666666666666667,
                      "default-translation0" : 0.0,
                      "default-translation1" : 0.0
                    },
                    "animationTracks" : {

                    }
                  },
                  {
                    "id" : 64,
                    "_type" : "IMFile",
                    "src" : 24,
                    "trackNumber" : 0,
                    "trimStartSum" : 0,
                    "attributes" : {
                      "ident" : "IMG-20170428-WA0031"
                    },
                    "parameters" : {
                      "translation0" : {
                        "type" : "double",
                        "defaultValue" : -4.91056084683805e-11,
                        "interp" : "eioe"
                      },
                      "scale0" : {
                        "type" : "double",
                        "defaultValue" : 0.375000000000046,
                        "interp" : "eioe"
                      },
                      "scale1" : {
                        "type" : "double",
                        "defaultValue" : 0.375000000000046,
                        "interp" : "eioe"
                      }
                    },
                    "effects" : [

                    ],
                    "start" : 2457,
                    "duration" : 90,
                    "mediaStart" : 0,
                    "mediaDuration" : 1,
                    "scalar" : 1,
                    "metadata" : {
                      "clipSpeedAttribute" : false,
                      "default-scale0" : 0.233333333333333,
                      "default-scale1" : 0.233333333333333,
                      "default-translation0" : 0.0
                    },
                    "animationTracks" : {

                    }
                  },
                  {
                    "id" : 65,
                    "_type" : "IMFile",
                    "src" : 25,
                    "trackNumber" : 0,
                    "trimStartSum" : 0,
                    "attributes" : {
                      "ident" : "IMG-20170428-WA0144"
                    },
                    "parameters" : {
                      "translation0" : {
                        "type" : "double",
                        "defaultValue" : -1.29261934489477e-10,
                        "interp" : "eioe"
                      },
                      "scale0" : {
                        "type" : "double",
                        "defaultValue" : 1.05986842105255,
                        "interp" : "eioe"
                      },
                      "scale1" : {
                        "type" : "double",
                        "defaultValue" : 1.05986842105255,
                        "interp" : "eioe"
                      }
                    },
                    "effects" : [

                    ],
                    "start" : 2547,
                    "duration" : 90,
                    "mediaStart" : 0,
                    "mediaDuration" : 1,
                    "scalar" : 1,
                    "metadata" : {
                      "clipSpeedAttribute" : false,
                      "default-scale0" : 0.175,
                      "default-scale1" : 0.175,
                      "default-translation0" : 0.0
                    },
                    "animationTracks" : {

                    }
                  },
                  {
                    "id" : 66,
                    "_type" : "IMFile",
                    "src" : 16,
                    "trackNumber" : 0,
                    "trimStartSum" : 0,
                    "attributes" : {
                      "ident" : "Computer Vision"
                    },
                    "parameters" : {
                      "translation0" : {
                        "type" : "double",
                        "defaultValue" : -1.75326420048805e-11,
                        "interp" : "eioe"
                      },
                      "scale0" : {
                        "type" : "double",
                        "defaultValue" : 0.210937499999959,
                        "interp" : "eioe"
                      },
                      "scale1" : {
                        "type" : "double",
                        "defaultValue" : 0.210937499999959,
                        "interp" : "eioe"
                      }
                    },
                    "effects" : [

                    ],
                    "start" : 2637,
                    "duration" : 150,
                    "mediaStart" : 0,
                    "mediaDuration" : 1,
                    "scalar" : 1,
                    "metadata" : {
                      "clipSpeedAttribute" : false,
                      "default-scale0" : 0.175,
                      "default-scale1" : 0.175,
                      "default-translation0" : 0.0
                    },
                    "animationTracks" : {

                    }
                  },
                  {
                    "id" : 67,
                    "_type" : "VMFile",
                    "src" : 7,
                    "trackNumber" : 0,
                    "attributes" : {
                      "ident" : "Flower Recognition"
                    },
                    "parameters" : {
                      "translation0" : -3.03259639622411e-11,
                      "translation1" : -9.16600129130529e-13,
                      "scale0" : 0.863165557404176,
                      "scale1" : 0.863165557404176
                    },
                    "effects" : [

                    ],
                    "start" : 2787,
                    "duration" : 81,
                    "mediaStart" : 0,
                    "mediaDuration" : 81,
                    "scalar" : 1,
                    "metadata" : {
                      "clipSpeedAttribute" : false,
                      "default-scale0" : 0.2625,
                      "default-scale1" : 0.2625,
                      "default-translation0" : 0.0,
                      "default-translation1" : 0.0
                    },
                    "animationTracks" : {

                    }
                  },
                  {
                    "id" : 68,
                    "_type" : "VMFile",
                    "src" : 7,
                    "trackNumber" : 0,
                    "attributes" : {
                      "ident" : "Flower Recognition"
                    },
                    "parameters" : {
                      "translation0" : -3.03259639622411e-11,
                      "translation1" : -9.16600129130529e-13,
                      "scale0" : 0.863165557404176,
                      "scale1" : 0.863165557404176
                    },
                    "effects" : [

                    ],
                    "start" : 2868,
                    "duration" : 90,
                    "mediaStart" : 308,
                    "mediaDuration" : 90,
                    "scalar" : 1,
                    "metadata" : {
                      "clipSpeedAttribute" : false,
                      "default-scale0" : 0.2625,
                      "default-scale1" : 0.2625,
                      "default-translation0" : 0.0,
                      "default-translation1" : 0.0
                    },
                    "animationTracks" : {

                    }
                  },
                  {
                    "id" : 69,
                    "_type" : "VMFile",
                    "src" : 7,
                    "trackNumber" : 0,
                    "attributes" : {
                      "ident" : "Flower Recognition"
                    },
                    "parameters" : {
                      "translation0" : -3.03259639622411e-11,
                      "translation1" : -9.16600129130529e-13,
                      "scale0" : 0.863165557404176,
                      "scale1" : 0.863165557404176
                    },
                    "effects" : [

                    ],
                    "start" : 2958,
                    "duration" : 303,
                    "mediaStart" : 524,
                    "mediaDuration" : 303,
                    "scalar" : 1,
                    "metadata" : {
                      "clipSpeedAttribute" : false,
                      "default-scale0" : 0.2625,
                      "default-scale1" : 0.2625,
                      "default-translation0" : 0.0,
                      "default-translation1" : 0.0
                    },
                    "animationTracks" : {

                    }
                  },
                  {
                    "id" : 70,
                    "_type" : "VMFile",
                    "src" : 7,
                    "trackNumber" : 0,
                    "attributes" : {
                      "ident" : "Flower Recognition"
                    },
                    "parameters" : {
                      "translation0" : -3.03259639622411e-11,
                      "translation1" : -9.16600129130529e-13,
                      "scale0" : 0.863165557404176,
                      "scale1" : 0.863165557404176
                    },
                    "effects" : [

                    ],
                    "start" : 3261,
                    "duration" : 77,
                    "mediaStart" : 977,
                    "mediaDuration" : 77,
                    "scalar" : 1,
                    "metadata" : {
                      "clipSpeedAttribute" : false,
                      "default-scale0" : 0.2625,
                      "default-scale1" : 0.2625,
                      "default-translation0" : 0.0,
                      "default-translation1" : 0.0
                    },
                    "animationTracks" : {

                    }
                  },
                  {
                    "id" : 71,
                    "_type" : "VMFile",
                    "src" : 3,
                    "trackNumber" : 0,
                    "attributes" : {
                      "ident" : "Smile Detector"
                    },
                    "parameters" : {
                      "translation0" : {
                        "type" : "double",
                        "defaultValue" : -3.98401311940688e-11,
                        "interp" : "eioe"
                      },
                      "scale0" : {
                        "type" : "double",
                        "defaultValue" : 0.916289592760266,
                        "interp" : "eioe"
                      },
                      "scale1" : {
                        "type" : "double",
                        "defaultValue" : 0.916289592760266,
                        "interp" : "eioe"
                      }
                    },
                    "effects" : [

                    ],
                    "start" : 3621,
                    "duration" : 184,
                    "mediaStart" : 41,
                    "mediaDuration" : 184,
                    "scalar" : 1,
                    "metadata" : {
                      "clipSpeedAttribute" : false,
                      "default-scale0" : 0.583333333333333,
                      "default-scale1" : 0.583333333333333,
                      "default-translation0" : 0.0
                    },
                    "animationTracks" : {

                    }
                  },
                  {
                    "id" : 72,
                    "_type" : "VMFile",
                    "src" : 6,
                    "trackNumber" : 0,
                    "attributes" : {
                      "ident" : "Face Recognition"
                    },
                    "parameters" : {
                      "translation0" : {
                        "type" : "double",
                        "defaultValue" : 9.00257646208047e-12,
                        "interp" : "eioe"
                      },
                      "scale0" : {
                        "type" : "double",
                        "defaultValue" : 0.435952637244418,
                        "interp" : "eioe"
                      },
                      "scale1" : {
                        "type" : "double",
                        "defaultValue" : 0.435952637244418,
                        "interp" : "eioe"
                      }
                    },
                    "effects" : [

                    ],
                    "start" : 3805,
                    "duration" : 287,
                    "mediaStart" : 0,
                    "mediaDuration" : 287,
                    "scalar" : 1,
                    "metadata" : {
                      "clipSpeedAttribute" : false,
                      "default-scale0" : 0.2625,
                      "default-scale1" : 0.2625,
                      "default-translation0" : 0.0
                    },
                    "animationTracks" : {

                    }
                  },
                  {
                    "id" : 73,
                    "_type" : "Group",
                    "parameters" : {
                      "translation0" : {
                        "type" : "double",
                        "defaultValue" : -114.309690187605,
                        "interp" : "eioe"
                      },
                      "translation1" : {
                        "type" : "double",
                        "defaultValue" : -16.0000000000368,
                        "interp" : "eioe"
                      },
                      "scale0" : {
                        "type" : "double",
                        "defaultValue" : 0.218032534515077,
                        "interp" : "eioe"
                      },
                      "scale1" : {
                        "type" : "double",
                        "defaultValue" : 0.218032534515077,
                        "interp" : "eioe"
                      },
                      "volume" : 1.0
                    },
                    "tracks" : [
                      {
                        "trackIndex" : 0,
                        "medias" : [
                          {
                            "id" : 74,
                            "_type" : "Group",
                            "parameters" : {
                              "translation0" : {
                                "type" : "double",
                                "defaultValue" : 792.457338541838,
                                "interp" : "eioe"
                              },
                              "translation1" : {
                                "type" : "double",
                                "defaultValue" : 82.4538003167917,
                                "interp" : "eioe"
                              },
                              "volume" : 1.0
                            },
                            "tracks" : [
                              {
                                "trackIndex" : 0,
                                "medias" : [
                                  {
                                    "id" : 75,
                                    "_type" : "Callout",
                                    "def" : {
                                      "kind" : "remix",
                                      "shape" : "shape-rectangle",
                                      "style" : "urban",
                                      "fill-color-blue" : {
                                        "type" : "double",
                                        "defaultValue" : 0.149019607843137,
                                        "interp" : "linr",
                                        "keyframes" : [
                                          {
                                            "endTime" : 13,
                                            "time" : 0,
                                            "value" : 0.149019607843137,
                                            "duration" : 13
                                          }
                                        ]
                                      },
                                      "fill-color-green" : {
                                        "type" : "double",
                                        "defaultValue" : 0.654901960784314,
                                        "interp" : "linr",
                                        "keyframes" : [
                                          {
                                            "endTime" : 13,
                                            "time" : 0,
                                            "value" : 0.654901960784314,
                                            "duration" : 13
                                          }
                                        ]
                                      },
                                      "fill-color-opacity" : {
                                        "type" : "double",
                                        "defaultValue" : 1.0,
                                        "interp" : "linr"
                                      },
                                      "fill-color-red" : {
                                        "type" : "double",
                                        "defaultValue" : 1.0,
                                        "interp" : "linr",
                                        "keyframes" : [
                                          {
                                            "endTime" : 13,
                                            "time" : 0,
                                            "value" : 1.0,
                                            "duration" : 13
                                          }
                                        ]
                                      },
                                      "height" : {
                                        "type" : "double",
                                        "defaultValue" : 1079.99997965507,
                                        "interp" : "linr"
                                      },
                                      "stroke-color-blue" : {
                                        "type" : "double",
                                        "defaultValue" : 1.0,
                                        "interp" : "linr"
                                      },
                                      "stroke-color-green" : {
                                        "type" : "double",
                                        "defaultValue" : 1.0,
                                        "interp" : "linr"
                                      },
                                      "stroke-color-opacity" : {
                                        "type" : "double",
                                        "defaultValue" : 1.0,
                                        "interp" : "linr"
                                      },
                                      "stroke-color-red" : {
                                        "type" : "double",
                                        "defaultValue" : 1.0,
                                        "interp" : "linr"
                                      },
                                      "stroke-width" : {
                                        "type" : "double",
                                        "defaultValue" : 0.0,
                                        "interp" : "linr"
                                      },
                                      "width" : {
                                        "type" : "double",
                                        "defaultValue" : 21.666648945554,
                                        "interp" : "linr",
                                        "keyframes" : [
                                          {
                                            "endTime" : 13,
                                            "time" : 0,
                                            "value" : 1921.74718739368,
                                            "duration" : 13
                                          },
                                          {
                                            "endTime" : 249,
                                            "time" : 233,
                                            "value" : 21.6666514803603,
                                            "duration" : 16
                                          }
                                        ]
                                      },
                                      "fill-style" : "solid",
                                      "horizontal-alignment" : "center",
                                      "stroke-style" : "solid",
                                      "vertical-alignment" : "center",
                                      "textAttributes" : {
                                        "type" : "textAttributeList",
                                        "keyframes" : [
                                          {
                                            "endTime" : 0,
                                            "time" : 0,
                                            "value" : null,
                                            "duration" : 0
                                          }
                                        ]
                                      }
                                    },
                                    "attributes" : {
                                      "autoRotateText" : true
                                    },
                                    "parameters" : {
                                      "translation0" : {
                                        "type" : "double",
                                        "defaultValue" : -287.235284220497,
                                        "interp" : "eioe",
                                        "keyframes" : [
                                          {
                                            "endTime" : 13,
                                            "time" : 0,
                                            "value" : -277.195014996547,
                                            "duration" : 13
                                          },
                                          {
                                            "endTime" : 249,
                                            "time" : 233,
                                            "value" : -287.235282953014,
                                            "duration" : 16
                                          }
                                        ]
                                      },
                                      "translation1" : {
                                        "type" : "double",
                                        "defaultValue" : 6.79620985569119,
                                        "interp" : "eioe",
                                        "keyframes" : [
                                          {
                                            "endTime" : 13,
                                            "time" : 0,
                                            "value" : 6.79620985569119,
                                            "duration" : 13
                                          },
                                          {
                                            "endTime" : 249,
                                            "time" : 233,
                                            "value" : 6.79620985569119,
                                            "duration" : 16
                                          }
                                        ]
                                      }
                                    },
                                    "effects" : [

                                    ],
                                    "start" : 0,
                                    "duration" : 251,
                                    "mediaStart" : 0,
                                    "mediaDuration" : 251,
                                    "scalar" : 1,
                                    "metadata" : {
                                      "WinSubProjectDisplayName" : "",
                                      "clipSpeedAttribute" : false
                                    },
                                    "animationTracks" : {
                                      "visual" : [
                                        {
                                          "endTime" : 13,
                                          "duration" : 13,
                                          "range" : [ 0, 13],
                                          "interp" : "eioe"
                                        },
                                        {
                                          "endTime" : 249,
                                          "duration" : 16,
                                          "range" : [ 233, 16],
                                          "interp" : "eioe"
                                        }
                                      ]
                                    }
                                  }
                                ],
                                  "ident" : "",
                                  "audioMuted" : false,
                                  "videoHidden" : false,
                                  "magnetic" : false,
                                  "matte" : 0,
                                  "metadata" : {
                                    "IsLocked" : "False",
                                    "WinTrackHeight" : "0"
                                  }
                              },
                              {
                                "trackIndex" : 1,
                                "medias" : [
                                  {
                                    "id" : 76,
                                    "_type" : "Callout",
                                    "def" : {
                                      "kind" : "remix",
                                      "shape" : "shape-rectangle",
                                      "style" : "urban",
                                      "fill-color-blue" : {
                                        "type" : "double",
                                        "defaultValue" : 1.0,
                                        "interp" : "linr"
                                      },
                                      "fill-color-green" : {
                                        "type" : "double",
                                        "defaultValue" : 1.0,
                                        "interp" : "linr"
                                      },
                                      "fill-color-opacity" : {
                                        "type" : "double",
                                        "defaultValue" : 1.0,
                                        "interp" : "linr"
                                      },
                                      "fill-color-red" : {
                                        "type" : "double",
                                        "defaultValue" : 1.0,
                                        "interp" : "linr"
                                      },
                                      "height" : {
                                        "type" : "double",
                                        "defaultValue" : 1079.99997965507,
                                        "interp" : "linr"
                                      },
                                      "stroke-color-blue" : {
                                        "type" : "double",
                                        "defaultValue" : 1.0,
                                        "interp" : "linr"
                                      },
                                      "stroke-color-green" : {
                                        "type" : "double",
                                        "defaultValue" : 1.0,
                                        "interp" : "linr"
                                      },
                                      "stroke-color-opacity" : {
                                        "type" : "double",
                                        "defaultValue" : 1.0,
                                        "interp" : "linr"
                                      },
                                      "stroke-color-red" : {
                                        "type" : "double",
                                        "defaultValue" : 1.0,
                                        "interp" : "linr"
                                      },
                                      "stroke-width" : {
                                        "type" : "double",
                                        "defaultValue" : 0.0,
                                        "interp" : "linr"
                                      },
                                      "width" : {
                                        "type" : "double",
                                        "defaultValue" : 21.666648945554,
                                        "interp" : "linr",
                                        "keyframes" : [
                                          {
                                            "endTime" : 13,
                                            "time" : 0,
                                            "value" : 1921.74718739368,
                                            "duration" : 13
                                          },
                                          {
                                            "endTime" : 245,
                                            "time" : 229,
                                            "value" : 21.6666514803603,
                                            "duration" : 16
                                          }
                                        ]
                                      },
                                      "fill-style" : "solid",
                                      "horizontal-alignment" : "center",
                                      "stroke-style" : "solid",
                                      "vertical-alignment" : "center",
                                      "textAttributes" : {
                                        "type" : "textAttributeList",
                                        "keyframes" : [
                                          {
                                            "endTime" : 0,
                                            "time" : 0,
                                            "value" : null,
                                            "duration" : 0
                                          }
                                        ]
                                      }
                                    },
                                    "attributes" : {
                                      "autoRotateText" : true
                                    },
                                    "parameters" : {
                                      "translation0" : {
                                        "type" : "double",
                                        "defaultValue" : -287.235284220497,
                                        "interp" : "eioe",
                                        "keyframes" : [
                                          {
                                            "endTime" : 13,
                                            "time" : 0,
                                            "value" : -277.195014996547,
                                            "duration" : 13
                                          },
                                          {
                                            "endTime" : 245,
                                            "time" : 229,
                                            "value" : -287.235282953014,
                                            "duration" : 16
                                          }
                                        ]
                                      },
                                      "translation1" : {
                                        "type" : "double",
                                        "defaultValue" : 6.79620985569119,
                                        "interp" : "eioe",
                                        "keyframes" : [
                                          {
                                            "endTime" : 13,
                                            "time" : 0,
                                            "value" : 6.79620985569119,
                                            "duration" : 13
                                          },
                                          {
                                            "endTime" : 245,
                                            "time" : 229,
                                            "value" : 6.79620985569119,
                                            "duration" : 16
                                          }
                                        ]
                                      }
                                    },
                                    "effects" : [

                                    ],
                                    "start" : 2,
                                    "duration" : 247,
                                    "mediaStart" : 0,
                                    "mediaDuration" : 247,
                                    "scalar" : 1,
                                    "metadata" : {
                                      "WinSubProjectDisplayName" : "",
                                      "clipSpeedAttribute" : false
                                    },
                                    "animationTracks" : {
                                      "visual" : [
                                        {
                                          "endTime" : 13,
                                          "duration" : 13,
                                          "range" : [ 0, 13],
                                          "interp" : "eioe"
                                        },
                                        {
                                          "endTime" : 245,
                                          "duration" : 16,
                                          "range" : [ 229, 16],
                                          "interp" : "eioe"
                                        }
                                      ]
                                    }
                                  }
                                ],
                                  "ident" : "",
                                  "audioMuted" : false,
                                  "videoHidden" : false,
                                  "magnetic" : false,
                                  "matte" : 0,
                                  "metadata" : {
                                    "IsLocked" : "False",
                                    "WinTrackHeight" : "8.20837662215884e-312"
                                  }
                              },
                              {
                                "trackIndex" : 2,
                                "medias" : [
                                  {
                                    "id" : 77,
                                    "_type" : "IMFile",
                                    "src" : 26,
                                    "trackNumber" : 0,
                                    "trimStartSum" : 0,
                                    "attributes" : {
                                      "ident" : "circle"
                                    },
                                    "parameters" : {
                                      "translation0" : {
                                        "type" : "double",
                                        "defaultValue" : 246.431376080432,
                                        "interp" : "eioe",
                                        "keyframes" : [
                                          {
                                            "endTime" : 43,
                                            "time" : 0,
                                            "value" : 238.098042747482,
                                            "duration" : 43
                                          },
                                          {
                                            "endTime" : 238,
                                            "time" : 203,
                                            "value" : 248.431376080706,
                                            "duration" : 35
                                          }
                                        ]
                                      },
                                      "translation1" : {
                                        "type" : "double",
                                        "defaultValue" : 767.169128021294,
                                        "interp" : "eioe",
                                        "keyframes" : [
                                          {
                                            "endTime" : 43,
                                            "time" : 0,
                                            "value" : 114.830871978751,
                                            "duration" : 43
                                          },
                                          {
                                            "endTime" : 238,
                                            "time" : 203,
                                            "value" : -767.169128021294,
                                            "duration" : 35
                                          }
                                        ]
                                      }
                                    },
                                    "effects" : [
                                        {
                                          "_type" : "GenericBehaviorEffect",
                                          "effectName" : "pulsating",
                                          "start" : 0,
                                          "duration" : 240                                        ,
                                          "in" : {
                                            "attributes" : {
                                              "name" : "grow",
                                              "type" : 0,
                                              "characterOrder" : 6,
                                              "offsetBetweenCharacters" : 1,
                                              "suggestedDurationPerCharacter" : 18,
                                              "overlapProportion" : "3/4",
                                              "movement" : 30,
                                              "springDamping" : 5.0,
                                              "springStiffness" : 50.0,
                                              "bounceBounciness" : 0.45
                                            }
                                          
                                          },
                                          "center" : {
                                            "attributes" : {
                                              "name" : "pulsate",
                                              "type" : 0,
                                              "characterOrder" : 6,
                                              "offsetBetweenCharacters" : "21/10",
                                              "secondsPerLoop" : 1,
                                              "numberOfLoops" : -1,
                                              "delayBetweenLoops" : 0,
                                              "offsetBetweenCharacters" : "21/10"
                                            },
                                            "parameters" : {
                                              "movement" : {
                                                "type" : "int",
                                                "valueBounds" : {
                                                  "minValue" : 0,
                                                  "maxValue" : 31,
                                                  "defaultValue" : 27
                                                },
                                                "uiHints" : {
                                                  "userInterfaceType" : 4,
                                                  "unitType" : 0
                                                },
                                                "keyframes" : [
                                                  {
                                                    "endTime" : 0,
                                                    "time" : 0,
                                                    "value" : 27,
                                                    "duration" : 0
                                                  }
                                                ]
                                              },
                                              "scale" : {
                                                "type" : "double",
                                                "defaultValue" : 1.0402,
                                                "interp" : "linr",
                                                "valueBounds" : {
                                                  "minValue" : 0.01,
                                                  "maxValue" : 2.0,
                                                  "defaultValue" : 1.08
                                                },
                                                "uiHints" : {
                                                  "userInterfaceType" : 1,
                                                  "unitType" : 1
                                                }
                                              }
                                            }
                                          
                                          },
                                          "out" : {
                                            "attributes" : {
                                              "name" : "shrink",
                                              "type" : 0,
                                              "characterOrder" : 6,
                                              "offsetBetweenCharacters" : 1,
                                              "suggestedDurationPerCharacter" : "29/2",
                                              "overlapProportion" : "1/10",
                                              "movement" : 11,
                                              "springDamping" : 5.0,
                                              "springStiffness" : 50.0,
                                              "bounceBounciness" : 0.45
                                            }
                                          
                                          }
                                        }
                                    ],
                                    "start" : 6,
                                    "duration" : 240,
                                    "mediaStart" : 0,
                                    "mediaDuration" : 1,
                                    "scalar" : 1,
                                    "metadata" : {
                                      "WinSubProjectDisplayName" : "",
                                      "clipSpeedAttribute" : false
                                    },
                                    "animationTracks" : {
                                      "visual" : [
                                        {
                                          "endTime" : 43,
                                          "duration" : 43,
                                          "range" : [ 0, 43],
                                          "interp" : "sprg"
                                        },
                                        {
                                          "endTime" : 238,
                                          "duration" : 35,
                                          "range" : [ 203, 35]
                                        }
                                      ]
                                    }
                                  }
                                ],
                                  "ident" : "",
                                  "audioMuted" : false,
                                  "videoHidden" : false,
                                  "magnetic" : false,
                                  "matte" : 0,
                                  "metadata" : {
                                    "IsLocked" : "False",
                                    "WinTrackHeight" : "8.20837662215884e-312"
                                  }
                              },
                              {
                                "trackIndex" : 3,
                                "medias" : [
                                  {
                                    "id" : 78,
                                    "_type" : "IMFile",
                                    "src" : 27,
                                    "trackNumber" : 0,
                                    "trimStartSum" : 0,
                                    "attributes" : {
                                      "ident" : "triangle orange"
                                    },
                                    "parameters" : {
                                      "translation0" : {
                                        "type" : "double",
                                        "defaultValue" : 591.09804274717,
                                        "interp" : "eioe",
                                        "keyframes" : [
                                          {
                                            "endTime" : 16,
                                            "time" : 0,
                                            "value" : 591.09804274717,
                                            "duration" : 16
                                          },
                                          {
                                            "endTime" : 223,
                                            "time" : 211,
                                            "value" : 562.931376080266,
                                            "duration" : 12
                                          }
                                        ]
                                      },
                                      "translation1" : {
                                        "type" : "double",
                                        "defaultValue" : -300.370466983477,
                                        "interp" : "eioe",
                                        "keyframes" : [
                                          {
                                            "endTime" : 16,
                                            "time" : 0,
                                            "value" : -300.370466983477,
                                            "duration" : 16
                                          },
                                          {
                                            "endTime" : 223,
                                            "time" : 211,
                                            "value" : -279.951651319503,
                                            "duration" : 12
                                          }
                                        ]
                                      },
                                      "rotation2" : {
                                        "type" : "double",
                                        "defaultValue" : 2.21429743558818,
                                        "interp" : "eioe",
                                        "keyframes" : [
                                          {
                                            "endTime" : 16,
                                            "time" : 0,
                                            "value" : 0.0,
                                            "duration" : 16
                                          }
                                        ]
                                      },
                                      "scale0" : {
                                        "type" : "double",
                                        "defaultValue" : 0.01,
                                        "interp" : "eioe",
                                        "keyframes" : [
                                          {
                                            "endTime" : 16,
                                            "time" : 0,
                                            "value" : 1.0,
                                            "duration" : 16
                                          },
                                          {
                                            "endTime" : 223,
                                            "time" : 211,
                                            "value" : 1.0003744928415e-12,
                                            "duration" : 12
                                          }
                                        ]
                                      },
                                      "scale1" : {
                                        "type" : "double",
                                        "defaultValue" : 0.01,
                                        "interp" : "eioe",
                                        "keyframes" : [
                                          {
                                            "endTime" : 16,
                                            "time" : 0,
                                            "value" : 1.0,
                                            "duration" : 16
                                          },
                                          {
                                            "endTime" : 223,
                                            "time" : 211,
                                            "value" : 1.0003744928415e-12,
                                            "duration" : 12
                                          }
                                        ]
                                      }
                                    },
                                    "effects" : [
                                        {
                                          "_type" : "GenericBehaviorEffect",
                                          "effectName" : "pulsating",
                                          "start" : 0,
                                          "duration" : 227                                        ,
                                          "in" : {
                                            "attributes" : {
                                              "name" : "grow",
                                              "type" : 0,
                                              "characterOrder" : 6,
                                              "offsetBetweenCharacters" : 1,
                                              "suggestedDurationPerCharacter" : 18,
                                              "overlapProportion" : "3/4",
                                              "movement" : 30,
                                              "springDamping" : 5.0,
                                              "springStiffness" : 50.0,
                                              "bounceBounciness" : 0.45
                                            }
                                          
                                          },
                                          "center" : {
                                            "attributes" : {
                                              "name" : "pulsate",
                                              "type" : 0,
                                              "characterOrder" : 6,
                                              "offsetBetweenCharacters" : "21/10",
                                              "secondsPerLoop" : 1,
                                              "numberOfLoops" : -1,
                                              "delayBetweenLoops" : 0,
                                              "offsetBetweenCharacters" : "21/10"
                                            },
                                            "parameters" : {
                                              "movement" : {
                                                "type" : "int",
                                                "valueBounds" : {
                                                  "minValue" : 0,
                                                  "maxValue" : 31,
                                                  "defaultValue" : 27
                                                },
                                                "uiHints" : {
                                                  "userInterfaceType" : 4,
                                                  "unitType" : 0
                                                },
                                                "keyframes" : [
                                                  {
                                                    "endTime" : 0,
                                                    "time" : 0,
                                                    "value" : 27,
                                                    "duration" : 0
                                                  }
                                                ]
                                              },
                                              "scale" : {
                                                "type" : "double",
                                                "defaultValue" : 1.02693333333333,
                                                "interp" : "linr",
                                                "valueBounds" : {
                                                  "minValue" : 0.01,
                                                  "maxValue" : 2.0,
                                                  "defaultValue" : 1.08
                                                },
                                                "uiHints" : {
                                                  "userInterfaceType" : 1,
                                                  "unitType" : 1
                                                }
                                              }
                                            }
                                          
                                          },
                                          "out" : {
                                            "attributes" : {
                                              "name" : "shrink",
                                              "type" : 0,
                                              "characterOrder" : 6,
                                              "offsetBetweenCharacters" : 1,
                                              "suggestedDurationPerCharacter" : "29/2",
                                              "overlapProportion" : "1/10",
                                              "movement" : 11,
                                              "springDamping" : 5.0,
                                              "springStiffness" : 50.0,
                                              "bounceBounciness" : 0.45
                                            }
                                          
                                          }
                                        }
                                    ],
                                    "start" : 8,
                                    "duration" : 227,
                                    "mediaStart" : 0,
                                    "mediaDuration" : 1,
                                    "scalar" : 1,
                                    "metadata" : {
                                      "WinSubProjectDisplayName" : "",
                                      "clipSpeedAttribute" : false
                                    },
                                    "animationTracks" : {
                                      "visual" : [
                                        {
                                          "endTime" : 16,
                                          "duration" : 16,
                                          "range" : [ 0, 16]
                                        },
                                        {
                                          "endTime" : 223,
                                          "duration" : 12,
                                          "range" : [ 211, 12]
                                        }
                                      ]
                                    }
                                  }
                                ],
                                  "ident" : "",
                                  "audioMuted" : false,
                                  "videoHidden" : false,
                                  "magnetic" : false,
                                  "matte" : 0,
                                  "metadata" : {
                                    "IsLocked" : "False",
                                    "WinTrackHeight" : "8.20837662215884e-312"
                                  }
                              },
                              {
                                "trackIndex" : 4,
                                "medias" : [
                                  {
                                    "id" : 79,
                                    "_type" : "IMFile",
                                    "src" : 27,
                                    "trackNumber" : 0,
                                    "trimStartSum" : 0,
                                    "attributes" : {
                                      "ident" : "triangle orange"
                                    },
                                    "parameters" : {
                                      "translation0" : {
                                        "type" : "double",
                                        "defaultValue" : 659.624077122047,
                                        "interp" : "eioe",
                                        "keyframes" : [
                                          {
                                            "endTime" : 16,
                                            "time" : 0,
                                            "value" : 659.624077122047,
                                            "duration" : 16
                                          },
                                          {
                                            "endTime" : 218,
                                            "time" : 206,
                                            "value" : 655.741354326697,
                                            "duration" : 12
                                          }
                                        ]
                                      },
                                      "translation1" : {
                                        "type" : "double",
                                        "defaultValue" : 522.189346499358,
                                        "interp" : "eioe",
                                        "keyframes" : [
                                          {
                                            "endTime" : 16,
                                            "time" : 0,
                                            "value" : 522.189346499358,
                                            "duration" : 16
                                          },
                                          {
                                            "endTime" : 218,
                                            "time" : 206,
                                            "value" : 561.732405790248,
                                            "duration" : 12
                                          }
                                        ]
                                      },
                                      "rotation2" : {
                                        "type" : "double",
                                        "defaultValue" : 2.21429743558818,
                                        "interp" : "eioe",
                                        "keyframes" : [
                                          {
                                            "endTime" : 16,
                                            "time" : 0,
                                            "value" : -0.816303983672377,
                                            "duration" : 16
                                          }
                                        ]
                                      },
                                      "scale0" : {
                                        "type" : "double",
                                        "defaultValue" : 0.01,
                                        "interp" : "eioe",
                                        "keyframes" : [
                                          {
                                            "endTime" : 16,
                                            "time" : 0,
                                            "value" : 1.11732028038894,
                                            "duration" : 16
                                          },
                                          {
                                            "endTime" : 218,
                                            "time" : 206,
                                            "value" : 1.11773870883561e-12,
                                            "duration" : 12
                                          }
                                        ]
                                      },
                                      "scale1" : {
                                        "type" : "double",
                                        "defaultValue" : 0.01,
                                        "interp" : "eioe",
                                        "keyframes" : [
                                          {
                                            "endTime" : 16,
                                            "time" : 0,
                                            "value" : 1.18786323822365,
                                            "duration" : 16
                                          },
                                          {
                                            "endTime" : 218,
                                            "time" : 206,
                                            "value" : 1.18830808450305e-12,
                                            "duration" : 12
                                          }
                                        ]
                                      }
                                    },
                                    "effects" : [
                                        {
                                          "_type" : "GenericBehaviorEffect",
                                          "effectName" : "pulsating",
                                          "start" : 0,
                                          "duration" : 222                                        ,
                                          "in" : {
                                            "attributes" : {
                                              "name" : "grow",
                                              "type" : 0,
                                              "characterOrder" : 6,
                                              "offsetBetweenCharacters" : 1,
                                              "suggestedDurationPerCharacter" : 18,
                                              "overlapProportion" : "3/4",
                                              "movement" : 30,
                                              "springDamping" : 5.0,
                                              "springStiffness" : 50.0,
                                              "bounceBounciness" : 0.45
                                            }
                                          
                                          },
                                          "center" : {
                                            "attributes" : {
                                              "name" : "pulsate",
                                              "type" : 0,
                                              "characterOrder" : 6,
                                              "offsetBetweenCharacters" : "21/10",
                                              "secondsPerLoop" : 1,
                                              "numberOfLoops" : -1,
                                              "delayBetweenLoops" : 0,
                                              "offsetBetweenCharacters" : "21/10"
                                            },
                                            "parameters" : {
                                              "movement" : {
                                                "type" : "int",
                                                "valueBounds" : {
                                                  "minValue" : 0,
                                                  "maxValue" : 31,
                                                  "defaultValue" : 27
                                                },
                                                "uiHints" : {
                                                  "userInterfaceType" : 4,
                                                  "unitType" : 0
                                                },
                                                "keyframes" : [
                                                  {
                                                    "endTime" : 0,
                                                    "time" : 0,
                                                    "value" : 27,
                                                    "duration" : 0
                                                  }
                                                ]
                                              },
                                              "scale" : {
                                                "type" : "double",
                                                "defaultValue" : 1.02693333333334,
                                                "interp" : "linr",
                                                "valueBounds" : {
                                                  "minValue" : 0.01,
                                                  "maxValue" : 2.0,
                                                  "defaultValue" : 1.08
                                                },
                                                "uiHints" : {
                                                  "userInterfaceType" : 1,
                                                  "unitType" : 1
                                                }
                                              }
                                            }
                                          
                                          },
                                          "out" : {
                                            "attributes" : {
                                              "name" : "shrink",
                                              "type" : 0,
                                              "characterOrder" : 6,
                                              "offsetBetweenCharacters" : 1,
                                              "suggestedDurationPerCharacter" : "29/2",
                                              "overlapProportion" : "1/10",
                                              "movement" : 11,
                                              "springDamping" : 5.0,
                                              "springStiffness" : 50.0,
                                              "bounceBounciness" : 0.45
                                            }
                                          
                                          }
                                        }
                                    ],
                                    "start" : 13,
                                    "duration" : 222,
                                    "mediaStart" : 0,
                                    "mediaDuration" : 1,
                                    "scalar" : 1,
                                    "metadata" : {
                                      "WinSubProjectDisplayName" : "",
                                      "clipSpeedAttribute" : false
                                    },
                                    "animationTracks" : {
                                      "visual" : [
                                        {
                                          "endTime" : 16,
                                          "duration" : 16,
                                          "range" : [ 0, 16]
                                        },
                                        {
                                          "endTime" : 218,
                                          "duration" : 12,
                                          "range" : [ 206, 12]
                                        }
                                      ]
                                    }
                                  }
                                ],
                                  "ident" : "",
                                  "audioMuted" : false,
                                  "videoHidden" : false,
                                  "magnetic" : false,
                                  "matte" : 0,
                                  "metadata" : {
                                    "IsLocked" : "False",
                                    "WinTrackHeight" : "8.20837662215884e-312"
                                  }
                              },
                              {
                                "trackIndex" : 5,
                                "medias" : [
                                  {
                                    "id" : 80,
                                    "_type" : "Group",
                                    "parameters" : {
                                      "translation0" : {
                                        "type" : "double",
                                        "defaultValue" : -1151.41416386943,
                                        "interp" : "eioe"
                                      },
                                      "translation1" : {
                                        "type" : "double",
                                        "defaultValue" : 342.129533016531,
                                        "interp" : "eioe"
                                      },
                                      "volume" : 1.0
                                    },
                                    "tracks" : [
                                      {
                                        "trackIndex" : 0,
                                        "medias" : [
                                          {
                                            "id" : 81,
                                            "_type" : "IMFile",
                                            "src" : 28,
                                            "trackNumber" : 0,
                                            "trimStartSum" : 0,
                                            "attributes" : {
                                              "ident" : "triangle orange copy 2"
                                            },
                                            "parameters" : {
                                              "translation0" : {
                                                "type" : "double",
                                                "defaultValue" : 201.653278214217,
                                                "interp" : "eioe",
                                                "keyframes" : [
                                                  {
                                                    "endTime" : 16,
                                                    "time" : 0,
                                                    "value" : 201.653278214217,
                                                    "duration" : 16
                                                  },
                                                  {
                                                    "endTime" : 221,
                                                    "time" : 209,
                                                    "value" : 188.417366084211,
                                                    "duration" : 12
                                                  }
                                                ]
                                              },
                                              "translation1" : {
                                                "type" : "double",
                                                "defaultValue" : 88.3333282469929,
                                                "interp" : "eioe",
                                                "keyframes" : [
                                                  {
                                                    "endTime" : 16,
                                                    "time" : 0,
                                                    "value" : 88.3333282469929,
                                                    "duration" : 16
                                                  },
                                                  {
                                                    "endTime" : 221,
                                                    "time" : 209,
                                                    "value" : 105.604579441026,
                                                    "duration" : 12
                                                  }
                                                ]
                                              },
                                              "rotation2" : {
                                                "type" : "double",
                                                "defaultValue" : 2.21429743558818,
                                                "interp" : "eioe",
                                                "keyframes" : [
                                                  {
                                                    "endTime" : 16,
                                                    "time" : 0,
                                                    "value" : 0.0,
                                                    "duration" : 16
                                                  }
                                                ]
                                              },
                                              "scale0" : {
                                                "type" : "double",
                                                "defaultValue" : 0.01,
                                                "interp" : "eioe",
                                                "keyframes" : [
                                                  {
                                                    "endTime" : 16,
                                                    "time" : 0,
                                                    "value" : 1.0,
                                                    "duration" : 16
                                                  },
                                                  {
                                                    "endTime" : 221,
                                                    "time" : 209,
                                                    "value" : 1.0003744928415e-12,
                                                    "duration" : 12
                                                  }
                                                ]
                                              },
                                              "scale1" : {
                                                "type" : "double",
                                                "defaultValue" : 0.01,
                                                "interp" : "eioe",
                                                "keyframes" : [
                                                  {
                                                    "endTime" : 16,
                                                    "time" : 0,
                                                    "value" : 1.0,
                                                    "duration" : 16
                                                  },
                                                  {
                                                    "endTime" : 221,
                                                    "time" : 209,
                                                    "value" : 1.0003744928415e-12,
                                                    "duration" : 12
                                                  }
                                                ]
                                              }
                                            },
                                            "effects" : [
                                                {
                                                  "_type" : "GenericBehaviorEffect",
                                                  "effectName" : "pulsating",
                                                  "start" : 0,
                                                  "duration" : 225                                                ,
                                                  "in" : {
                                                    "attributes" : {
                                                      "name" : "grow",
                                                      "type" : 0,
                                                      "characterOrder" : 6,
                                                      "offsetBetweenCharacters" : 1,
                                                      "suggestedDurationPerCharacter" : 18,
                                                      "overlapProportion" : "3/4",
                                                      "movement" : 30,
                                                      "springDamping" : 5.0,
                                                      "springStiffness" : 50.0,
                                                      "bounceBounciness" : 0.45
                                                    }
                                                  
                                                  },
                                                  "center" : {
                                                    "attributes" : {
                                                      "name" : "pulsate",
                                                      "type" : 0,
                                                      "characterOrder" : 6,
                                                      "offsetBetweenCharacters" : "21/10",
                                                      "secondsPerLoop" : 1,
                                                      "numberOfLoops" : -1,
                                                      "delayBetweenLoops" : 0,
                                                      "offsetBetweenCharacters" : "21/10"
                                                    },
                                                    "parameters" : {
                                                      "movement" : {
                                                        "type" : "int",
                                                        "valueBounds" : {
                                                          "minValue" : 0,
                                                          "maxValue" : 31,
                                                          "defaultValue" : 27
                                                        },
                                                        "uiHints" : {
                                                          "userInterfaceType" : 4,
                                                          "unitType" : 0
                                                        },
                                                        "keyframes" : [
                                                          {
                                                            "endTime" : 0,
                                                            "time" : 0,
                                                            "value" : 27,
                                                            "duration" : 0
                                                          }
                                                        ]
                                                      },
                                                      "scale" : {
                                                        "type" : "double",
                                                        "defaultValue" : 1.08,
                                                        "interp" : "linr",
                                                        "valueBounds" : {
                                                          "minValue" : 0.01,
                                                          "maxValue" : 2.0,
                                                          "defaultValue" : 1.08
                                                        },
                                                        "uiHints" : {
                                                          "userInterfaceType" : 1,
                                                          "unitType" : 1
                                                        }
                                                      }
                                                    }
                                                  
                                                  },
                                                  "out" : {
                                                    "attributes" : {
                                                      "name" : "shrink",
                                                      "type" : 0,
                                                      "characterOrder" : 6,
                                                      "offsetBetweenCharacters" : 1,
                                                      "suggestedDurationPerCharacter" : "29/2",
                                                      "overlapProportion" : "1/10",
                                                      "movement" : 11,
                                                      "springDamping" : 5.0,
                                                      "springStiffness" : 50.0,
                                                      "bounceBounciness" : 0.45
                                                    }
                                                  
                                                  }
                                                }
                                            ],
                                            "start" : 0,
                                            "duration" : 225,
                                            "mediaStart" : 0,
                                            "mediaDuration" : 1,
                                            "scalar" : 1,
                                            "metadata" : {
                                              "WinSubProjectDisplayName" : "",
                                              "clipSpeedAttribute" : false
                                            },
                                            "animationTracks" : {
                                              "visual" : [
                                                {
                                                  "endTime" : 16,
                                                  "duration" : 16,
                                                  "range" : [ 0, 16]
                                                },
                                                {
                                                  "endTime" : 221,
                                                  "duration" : 12,
                                                  "range" : [ 209, 12]
                                                }
                                              ]
                                            }
                                          }
                                        ],
                                          "ident" : "",
                                          "audioMuted" : false,
                                          "videoHidden" : false,
                                          "magnetic" : false,
                                          "matte" : 0,
                                          "metadata" : {
                                            "IsLocked" : "False",
                                            "WinTrackHeight" : "0"
                                          }
                                      },
                                      {
                                        "trackIndex" : 1,
                                        "medias" : [
                                          {
                                            "id" : 82,
                                            "_type" : "IMFile",
                                            "src" : 29,
                                            "trackNumber" : 0,
                                            "trimStartSum" : 0,
                                            "attributes" : {
                                              "ident" : "triangle blue"
                                            },
                                            "parameters" : {
                                              "translation0" : {
                                                "type" : "double",
                                                "defaultValue" : -10.3467217860104,
                                                "interp" : "eioe",
                                                "keyframes" : [
                                                  {
                                                    "endTime" : 16,
                                                    "time" : 0,
                                                    "value" : -10.3467217860104,
                                                    "duration" : 16
                                                  },
                                                  {
                                                    "endTime" : 210,
                                                    "time" : 198,
                                                    "value" : -31.3304849189471,
                                                    "duration" : 12
                                                  }
                                                ]
                                              },
                                              "translation1" : {
                                                "type" : "double",
                                                "defaultValue" : -125.000005086307,
                                                "interp" : "eioe",
                                                "keyframes" : [
                                                  {
                                                    "endTime" : 16,
                                                    "time" : 0,
                                                    "value" : -125.000005086307,
                                                    "duration" : 16
                                                  },
                                                  {
                                                    "endTime" : 210,
                                                    "time" : 198,
                                                    "value" : -97.8825265760501,
                                                    "duration" : 12
                                                  }
                                                ]
                                              },
                                              "rotation2" : {
                                                "type" : "double",
                                                "defaultValue" : 2.21429743558818,
                                                "interp" : "eioe",
                                                "keyframes" : [
                                                  {
                                                    "endTime" : 16,
                                                    "time" : 0,
                                                    "value" : 0.0,
                                                    "duration" : 16
                                                  }
                                                ]
                                              },
                                              "scale0" : {
                                                "type" : "double",
                                                "defaultValue" : 0.01,
                                                "interp" : "eioe",
                                                "keyframes" : [
                                                  {
                                                    "endTime" : 16,
                                                    "time" : 0,
                                                    "value" : 1.0,
                                                    "duration" : 16
                                                  },
                                                  {
                                                    "endTime" : 210,
                                                    "time" : 198,
                                                    "value" : 1.0003744928415e-12,
                                                    "duration" : 12
                                                  }
                                                ]
                                              },
                                              "scale1" : {
                                                "type" : "double",
                                                "defaultValue" : 0.01,
                                                "interp" : "eioe",
                                                "keyframes" : [
                                                  {
                                                    "endTime" : 16,
                                                    "time" : 0,
                                                    "value" : 1.0,
                                                    "duration" : 16
                                                  },
                                                  {
                                                    "endTime" : 210,
                                                    "time" : 198,
                                                    "value" : 1.0003744928415e-12,
                                                    "duration" : 12
                                                  }
                                                ]
                                              }
                                            },
                                            "effects" : [
                                                {
                                                  "_type" : "GenericBehaviorEffect",
                                                  "effectName" : "pulsating",
                                                  "start" : 0,
                                                  "duration" : 214                                                ,
                                                  "in" : {
                                                    "attributes" : {
                                                      "name" : "grow",
                                                      "type" : 0,
                                                      "characterOrder" : 6,
                                                      "offsetBetweenCharacters" : 1,
                                                      "suggestedDurationPerCharacter" : 18,
                                                      "overlapProportion" : "3/4",
                                                      "movement" : 30,
                                                      "springDamping" : 5.0,
                                                      "springStiffness" : 50.0,
                                                      "bounceBounciness" : 0.45
                                                    }
                                                  
                                                  },
                                                  "center" : {
                                                    "attributes" : {
                                                      "name" : "pulsate",
                                                      "type" : 0,
                                                      "characterOrder" : 6,
                                                      "offsetBetweenCharacters" : "21/10",
                                                      "secondsPerLoop" : 1,
                                                      "numberOfLoops" : -1,
                                                      "delayBetweenLoops" : 0,
                                                      "offsetBetweenCharacters" : "21/10"
                                                    },
                                                    "parameters" : {
                                                      "movement" : {
                                                        "type" : "int",
                                                        "valueBounds" : {
                                                          "minValue" : 0,
                                                          "maxValue" : 31,
                                                          "defaultValue" : 27
                                                        },
                                                        "uiHints" : {
                                                          "userInterfaceType" : 4,
                                                          "unitType" : 0
                                                        },
                                                        "keyframes" : [
                                                          {
                                                            "endTime" : 0,
                                                            "time" : 0,
                                                            "value" : 27,
                                                            "duration" : 0
                                                          }
                                                        ]
                                                      },
                                                      "scale" : {
                                                        "type" : "double",
                                                        "defaultValue" : 1.05346666666667,
                                                        "interp" : "linr",
                                                        "valueBounds" : {
                                                          "minValue" : 0.01,
                                                          "maxValue" : 2.0,
                                                          "defaultValue" : 1.08
                                                        },
                                                        "uiHints" : {
                                                          "userInterfaceType" : 1,
                                                          "unitType" : 1
                                                        }
                                                      }
                                                    }
                                                  
                                                  },
                                                  "out" : {
                                                    "attributes" : {
                                                      "name" : "shrink",
                                                      "type" : 0,
                                                      "characterOrder" : 6,
                                                      "offsetBetweenCharacters" : 1,
                                                      "suggestedDurationPerCharacter" : "29/2",
                                                      "overlapProportion" : "1/10",
                                                      "movement" : 11,
                                                      "springDamping" : 5.0,
                                                      "springStiffness" : 50.0,
                                                      "bounceBounciness" : 0.45
                                                    }
                                                  
                                                  }
                                                }
                                            ],
                                            "start" : 11,
                                            "duration" : 214,
                                            "mediaStart" : 0,
                                            "mediaDuration" : 1,
                                            "scalar" : 1,
                                            "metadata" : {
                                              "WinSubProjectDisplayName" : "",
                                              "clipSpeedAttribute" : false
                                            },
                                            "animationTracks" : {
                                              "visual" : [
                                                {
                                                  "endTime" : 16,
                                                  "duration" : 16,
                                                  "range" : [ 0, 16]
                                                },
                                                {
                                                  "endTime" : 210,
                                                  "duration" : 12,
                                                  "range" : [ 198, 12]
                                                }
                                              ]
                                            }
                                          }
                                        ],
                                          "ident" : "",
                                          "audioMuted" : false,
                                          "videoHidden" : false,
                                          "magnetic" : false,
                                          "matte" : 0,
                                          "metadata" : {
                                            "IsLocked" : "False",
                                            "WinTrackHeight" : "8.20453521646648e-312"
                                          }
                                      },
                                      {
                                        "trackIndex" : 2,
                                        "medias" : [
                                          {
                                            "id" : 83,
                                            "_type" : "IMFile",
                                            "src" : 30,
                                            "trackNumber" : 0,
                                            "trimStartSum" : 0,
                                            "attributes" : {
                                              "ident" : "lines"
                                            },
                                            "parameters" : {
                                              "translation0" : {
                                                "type" : "double",
                                                "defaultValue" : -245.846721785804,
                                                "interp" : "eioe",
                                                "keyframes" : [
                                                  {
                                                    "endTime" : 28,
                                                    "time" : 0,
                                                    "value" : 55.4866115472616,
                                                    "duration" : 28
                                                  },
                                                  {
                                                    "endTime" : 238,
                                                    "time" : 218,
                                                    "value" : -271.153278214199,
                                                    "duration" : 20
                                                  }
                                                ]
                                              },
                                              "translation1" : {
                                                "type" : "double",
                                                "defaultValue" : 10.7466935413442,
                                                "interp" : "eioe",
                                                "keyframes" : [
                                                  {
                                                    "endTime" : 28,
                                                    "time" : 0,
                                                    "value" : 14.746693541227,
                                                    "duration" : 28
                                                  },
                                                  {
                                                    "endTime" : 238,
                                                    "time" : 218,
                                                    "value" : 12.1174734240811,
                                                    "duration" : 20
                                                  }
                                                ]
                                              }
                                            },
                                            "effects" : [

                                            ],
                                            "start" : 0,
                                            "duration" : 240,
                                            "mediaStart" : 0,
                                            "mediaDuration" : 1,
                                            "scalar" : 1,
                                            "metadata" : {
                                              "WinSubProjectDisplayName" : "",
                                              "clipSpeedAttribute" : false
                                            },
                                            "animationTracks" : {
                                              "visual" : [
                                                {
                                                  "endTime" : 28,
                                                  "duration" : 28,
                                                  "range" : [ 0, 28],
                                                  "interp" : "eioe"
                                                },
                                                {
                                                  "endTime" : 238,
                                                  "duration" : 20,
                                                  "range" : [ 218, 20],
                                                  "interp" : "eioe"
                                                }
                                              ]
                                            }
                                          }
                                        ],
                                          "ident" : "",
                                          "audioMuted" : false,
                                          "videoHidden" : false,
                                          "magnetic" : false,
                                          "matte" : 0,
                                          "metadata" : {
                                            "IsLocked" : "False",
                                            "WinTrackHeight" : "8.20453521646648e-312"
                                          }
                                      },
                                      {
                                        "trackIndex" : 3,
                                        "medias" : [
                                          {
                                            "id" : 84,
                                            "_type" : "IMFile",
                                            "src" : 31,
                                            "trackNumber" : 0,
                                            "trimStartSum" : 0,
                                            "attributes" : {
                                              "ident" : "lines copy 2"
                                            },
                                            "parameters" : {
                                              "translation0" : {
                                                "type" : "double",
                                                "defaultValue" : -255.846721785731,
                                                "interp" : "eioe",
                                                "keyframes" : [
                                                  {
                                                    "endTime" : 25,
                                                    "time" : 0,
                                                    "value" : 281.153278213996,
                                                    "duration" : 25
                                                  },
                                                  {
                                                    "endTime" : 236,
                                                    "time" : 218,
                                                    "value" : -281.153278213996,
                                                    "duration" : 18
                                                  }
                                                ]
                                              },
                                              "translation1" : {
                                                "type" : "double",
                                                "defaultValue" : 180.999994913671,
                                                "interp" : "eioe",
                                                "keyframes" : [
                                                  {
                                                    "endTime" : 25,
                                                    "time" : 0,
                                                    "value" : 183.000005086307,
                                                    "duration" : 25
                                                  },
                                                  {
                                                    "endTime" : 236,
                                                    "time" : 218,
                                                    "value" : 181.000005086152,
                                                    "duration" : 18
                                                  }
                                                ]
                                              },
                                              "scale0" : {
                                                "type" : "double",
                                                "defaultValue" : 1.0,
                                                "interp" : "eioe",
                                                "keyframes" : [
                                                  {
                                                    "endTime" : 25,
                                                    "time" : 0,
                                                    "value" : 1.0,
                                                    "duration" : 25
                                                  }
                                                ]
                                              },
                                              "scale1" : {
                                                "type" : "double",
                                                "defaultValue" : 1.0,
                                                "interp" : "eioe",
                                                "keyframes" : [
                                                  {
                                                    "endTime" : 25,
                                                    "time" : 0,
                                                    "value" : 1.0,
                                                    "duration" : 25
                                                  }
                                                ]
                                              }
                                            },
                                            "effects" : [

                                            ],
                                            "start" : 0,
                                            "duration" : 240,
                                            "mediaStart" : 0,
                                            "mediaDuration" : 1,
                                            "scalar" : 1,
                                            "metadata" : {
                                              "WinSubProjectDisplayName" : "",
                                              "clipSpeedAttribute" : false
                                            },
                                            "animationTracks" : {
                                              "visual" : [
                                                {
                                                  "endTime" : 25,
                                                  "duration" : 25,
                                                  "range" : [ 0, 25],
                                                  "interp" : "eioe"
                                                },
                                                {
                                                  "endTime" : 236,
                                                  "duration" : 18,
                                                  "range" : [ 218, 18],
                                                  "interp" : "eioe"
                                                }
                                              ]
                                            }
                                          }
                                        ],
                                          "ident" : "",
                                          "audioMuted" : false,
                                          "videoHidden" : false,
                                          "magnetic" : false,
                                          "matte" : 0,
                                          "metadata" : {
                                            "IsLocked" : "False",
                                            "WinTrackHeight" : "8.20453521646648e-312"
                                          }
                                      }
                                    ],
                                    "attributes" : {
                                      "ident" : "upper left shapes",
                                      "gain" : 1.0,
                                      "mixToMono" : false
                                    },
                                    "effects" : [

                                    ],
                                    "start" : 10,
                                    "duration" : 240,
                                    "mediaStart" : 0.0,
                                    "mediaDuration" : 240.0,
                                    "scalar" : 1,
                                    "metadata" : {
                                      "IsGroupExpanded" : "False",
                                      "WinSubProjectDisplayName" : "upper left shapes"
                                    },
                                    "animationTracks" : {

                                    }
                                  }
                                ],
                                  "ident" : "",
                                  "audioMuted" : false,
                                  "videoHidden" : false,
                                  "magnetic" : false,
                                  "matte" : 0,
                                  "metadata" : {
                                    "IsLocked" : "False",
                                    "WinTrackHeight" : "8.20837662215884e-312"
                                  }
                              },
                              {
                                "trackIndex" : 6,
                                "medias" : [
                                  {
                                    "id" : 85,
                                    "_type" : "IMFile",
                                    "src" : 29,
                                    "trackNumber" : 0,
                                    "trimStartSum" : 0,
                                    "attributes" : {
                                      "ident" : "triangle blue"
                                    },
                                    "parameters" : {
                                      "translation0" : {
                                        "type" : "double",
                                        "defaultValue" : -950.307749845259,
                                        "interp" : "eioe",
                                        "keyframes" : [
                                          {
                                            "endTime" : 16,
                                            "time" : 0,
                                            "value" : -950.307749845259,
                                            "duration" : 16
                                          },
                                          {
                                            "endTime" : 213,
                                            "time" : 201,
                                            "value" : -912.794921978977,
                                            "duration" : 12
                                          }
                                        ]
                                      },
                                      "translation1" : {
                                        "type" : "double",
                                        "defaultValue" : -460.087606914475,
                                        "interp" : "eioe",
                                        "keyframes" : [
                                          {
                                            "endTime" : 16,
                                            "time" : 0,
                                            "value" : -460.087606914475,
                                            "duration" : 16
                                          },
                                          {
                                            "endTime" : 213,
                                            "time" : 201,
                                            "value" : -426.745939062905,
                                            "duration" : 12
                                          }
                                        ]
                                      },
                                      "rotation2" : {
                                        "type" : "double",
                                        "defaultValue" : 2.21429743558818,
                                        "interp" : "eioe",
                                        "keyframes" : [
                                          {
                                            "endTime" : 16,
                                            "time" : 0,
                                            "value" : -1.50485433701133,
                                            "duration" : 16
                                          }
                                        ]
                                      },
                                      "scale0" : {
                                        "type" : "double",
                                        "defaultValue" : 0.01,
                                        "interp" : "eioe",
                                        "keyframes" : [
                                          {
                                            "endTime" : 16,
                                            "time" : 0,
                                            "value" : 1.46767408656743,
                                            "duration" : 16
                                          },
                                          {
                                            "endTime" : 213,
                                            "time" : 201,
                                            "value" : 1.4682237200065e-12,
                                            "duration" : 12
                                          }
                                        ]
                                      },
                                      "scale1" : {
                                        "type" : "double",
                                        "defaultValue" : 0.01,
                                        "interp" : "eioe",
                                        "keyframes" : [
                                          {
                                            "endTime" : 16,
                                            "time" : 0,
                                            "value" : 1.46135714277402,
                                            "duration" : 16
                                          },
                                          {
                                            "endTime" : 213,
                                            "time" : 201,
                                            "value" : 1.46190441056286e-12,
                                            "duration" : 12
                                          }
                                        ]
                                      },
                                      "opacity" : {
                                        "type" : "double",
                                        "defaultValue" : 0.9,
                                        "interp" : "linr",
                                        "keyframes" : [
                                          {
                                            "endTime" : 16,
                                            "time" : 0,
                                            "value" : 0.9,
                                            "duration" : 16
                                          },
                                          {
                                            "endTime" : 213,
                                            "time" : 201,
                                            "value" : 0.9,
                                            "duration" : 12
                                          }
                                        ]
                                      }
                                    },
                                    "effects" : [
                                        {
                                          "_type" : "GenericBehaviorEffect",
                                          "effectName" : "pulsating",
                                          "start" : 0,
                                          "duration" : 217                                        ,
                                          "in" : {
                                            "attributes" : {
                                              "name" : "grow",
                                              "type" : 0,
                                              "characterOrder" : 6,
                                              "offsetBetweenCharacters" : 1,
                                              "suggestedDurationPerCharacter" : 18,
                                              "overlapProportion" : "3/4",
                                              "movement" : 30,
                                              "springDamping" : 5.0,
                                              "springStiffness" : 50.0,
                                              "bounceBounciness" : 0.45
                                            }
                                          
                                          },
                                          "center" : {
                                            "attributes" : {
                                              "name" : "pulsate",
                                              "type" : 0,
                                              "characterOrder" : 6,
                                              "offsetBetweenCharacters" : "21/10",
                                              "secondsPerLoop" : 1,
                                              "numberOfLoops" : -1,
                                              "delayBetweenLoops" : 0,
                                              "offsetBetweenCharacters" : "21/10"
                                            },
                                            "parameters" : {
                                              "movement" : {
                                                "type" : "int",
                                                "valueBounds" : {
                                                  "minValue" : 0,
                                                  "maxValue" : 31,
                                                  "defaultValue" : 27
                                                },
                                                "uiHints" : {
                                                  "userInterfaceType" : 4,
                                                  "unitType" : 0
                                                },
                                                "keyframes" : [
                                                  {
                                                    "endTime" : 0,
                                                    "time" : 0,
                                                    "value" : 27,
                                                    "duration" : 0
                                                  }
                                                ]
                                              },
                                              "scale" : {
                                                "type" : "double",
                                                "defaultValue" : 1.02693333333334,
                                                "interp" : "linr",
                                                "valueBounds" : {
                                                  "minValue" : 0.01,
                                                  "maxValue" : 2.0,
                                                  "defaultValue" : 1.08
                                                },
                                                "uiHints" : {
                                                  "userInterfaceType" : 1,
                                                  "unitType" : 1
                                                }
                                              }
                                            }
                                          
                                          },
                                          "out" : {
                                            "attributes" : {
                                              "name" : "shrink",
                                              "type" : 0,
                                              "characterOrder" : 6,
                                              "offsetBetweenCharacters" : 1,
                                              "suggestedDurationPerCharacter" : "29/2",
                                              "overlapProportion" : "1/10",
                                              "movement" : 11,
                                              "springDamping" : 5.0,
                                              "springStiffness" : 50.0,
                                              "bounceBounciness" : 0.45
                                            }
                                          
                                          }
                                        }
                                    ],
                                    "start" : 18,
                                    "duration" : 217,
                                    "mediaStart" : 0,
                                    "mediaDuration" : 1,
                                    "scalar" : 1,
                                    "metadata" : {
                                      "WinSubProjectDisplayName" : "",
                                      "clipSpeedAttribute" : false
                                    },
                                    "animationTracks" : {
                                      "visual" : [
                                        {
                                          "endTime" : 16,
                                          "duration" : 16,
                                          "range" : [ 0, 16]
                                        },
                                        {
                                          "endTime" : 213,
                                          "duration" : 12,
                                          "range" : [ 201, 12]
                                        }
                                      ]
                                    }
                                  }
                                ],
                                  "ident" : "",
                                  "audioMuted" : false,
                                  "videoHidden" : false,
                                  "magnetic" : false,
                                  "matte" : 0,
                                  "metadata" : {
                                    "IsLocked" : "False",
                                    "WinTrackHeight" : "8.20837662215884e-312"
                                  }
                              },
                              {
                                "trackIndex" : 7,
                                "medias" : [
                                  {
                                    "id" : 86,
                                    "_type" : "IMFile",
                                    "src" : 32,
                                    "trackNumber" : 0,
                                    "trimStartSum" : 0,
                                    "attributes" : {
                                      "ident" : "rectangle copy 2"
                                    },
                                    "parameters" : {
                                      "translation0" : {
                                        "type" : "double",
                                        "defaultValue" : 1099.23912592621,
                                        "interp" : "eioe",
                                        "keyframes" : [
                                          {
                                            "endTime" : 43,
                                            "time" : 0,
                                            "value" : -692.760874074643,
                                            "duration" : 43
                                          },
                                          {
                                            "endTime" : 232,
                                            "time" : 210,
                                            "value" : -1624.76087407473,
                                            "duration" : 22
                                          }
                                        ]
                                      },
                                      "translation1" : {
                                        "type" : "double",
                                        "defaultValue" : 6.79619968311995,
                                        "interp" : "eioe",
                                        "keyframes" : [
                                          {
                                            "endTime" : 43,
                                            "time" : 0,
                                            "value" : 23.1295330165834,
                                            "duration" : 43
                                          },
                                          {
                                            "endTime" : 232,
                                            "time" : 210,
                                            "value" : 23.1295330165834,
                                            "duration" : 22
                                          }
                                        ]
                                      }
                                    },
                                    "effects" : [

                                    ],
                                    "start" : 9,
                                    "duration" : 240,
                                    "mediaStart" : 0,
                                    "mediaDuration" : 1,
                                    "scalar" : 1,
                                    "metadata" : {
                                      "WinSubProjectDisplayName" : "",
                                      "clipSpeedAttribute" : false
                                    },
                                    "animationTracks" : {
                                      "visual" : [
                                        {
                                          "endTime" : 43,
                                          "duration" : 43,
                                          "range" : [ 0, 43],
                                          "interp" : "sprg"
                                        },
                                        {
                                          "endTime" : 232,
                                          "duration" : 22,
                                          "range" : [ 210, 22]
                                        }
                                      ]
                                    }
                                  }
                                ],
                                  "ident" : "",
                                  "audioMuted" : false,
                                  "videoHidden" : false,
                                  "magnetic" : false,
                                  "matte" : 0,
                                  "metadata" : {
                                    "IsLocked" : "False",
                                    "WinTrackHeight" : "8.20837662215884e-312"
                                  }
                              },
                              {
                                "trackIndex" : 8,
                                "medias" : [
                                  {
                                    "id" : 87,
                                    "_type" : "IMFile",
                                    "src" : 32,
                                    "trackNumber" : 0,
                                    "trimStartSum" : 0,
                                    "attributes" : {
                                      "ident" : "rectangle copy 2"
                                    },
                                    "parameters" : {
                                      "translation0" : {
                                        "type" : "double",
                                        "defaultValue" : 1453.42754074136,
                                        "interp" : "eioe",
                                        "keyframes" : [
                                          {
                                            "endTime" : 61,
                                            "time" : 0,
                                            "value" : -338.57245925949,
                                            "duration" : 61
                                          },
                                          {
                                            "endTime" : 240,
                                            "time" : 210,
                                            "value" : -1618.57245925968,
                                            "duration" : 30
                                          }
                                        ]
                                      },
                                      "translation1" : {
                                        "type" : "double",
                                        "defaultValue" : 6.79619968314555,
                                        "interp" : "eioe",
                                        "keyframes" : [
                                          {
                                            "endTime" : 61,
                                            "time" : 0,
                                            "value" : 23.129533016609,
                                            "duration" : 61
                                          },
                                          {
                                            "endTime" : 240,
                                            "time" : 210,
                                            "value" : 23.129533016609,
                                            "duration" : 30
                                          }
                                        ]
                                      }
                                    },
                                    "effects" : [

                                    ],
                                    "start" : 13,
                                    "duration" : 77,
                                    "mediaStart" : 0,
                                    "mediaDuration" : 1,
                                    "scalar" : 1,
                                    "metadata" : {
                                      "WinSubProjectDisplayName" : "",
                                      "clipSpeedAttribute" : false
                                    },
                                    "animationTracks" : {
                                      "visual" : [
                                        {
                                          "endTime" : 61,
                                          "duration" : 61,
                                          "range" : [ 0, 61],
                                          "interp" : "sprg"
                                        },
                                        {
                                          "endTime" : 240,
                                          "duration" : 30,
                                          "range" : [ 210, 30]
                                        }
                                      ]
                                    }
                                  }
                                ],
                                  "ident" : "",
                                  "audioMuted" : false,
                                  "videoHidden" : false,
                                  "magnetic" : false,
                                  "matte" : 0,
                                  "metadata" : {
                                    "IsLocked" : "False",
                                    "WinTrackHeight" : "8.20837662215884e-312"
                                  }
                              },
                              {
                                "trackIndex" : 9,
                                "medias" : [
                                  {
                                    "id" : 88,
                                    "_type" : "IMFile",
                                    "src" : 33,
                                    "trackNumber" : 0,
                                    "trimStartSum" : 0,
                                    "attributes" : {
                                      "ident" : "rectangle copy"
                                    },
                                    "parameters" : {
                                      "translation0" : {
                                        "type" : "double",
                                        "defaultValue" : 1815.76087407473,
                                        "interp" : "eioe",
                                        "keyframes" : [
                                          {
                                            "endTime" : 80,
                                            "time" : 0,
                                            "value" : 23.7608740738804,
                                            "duration" : 80
                                          },
                                          {
                                            "endTime" : 231,
                                            "time" : 210,
                                            "value" : -1508.23912592628,
                                            "duration" : 21
                                          }
                                        ]
                                      },
                                      "translation1" : {
                                        "type" : "double",
                                        "defaultValue" : 23.0,
                                        "interp" : "eioe",
                                        "keyframes" : [
                                          {
                                            "endTime" : 80,
                                            "time" : 0,
                                            "value" : 23.0,
                                            "duration" : 80
                                          },
                                          {
                                            "endTime" : 231,
                                            "time" : 210,
                                            "value" : 23.1295330166525,
                                            "duration" : 21
                                          }
                                        ]
                                      }
                                    },
                                    "effects" : [

                                    ],
                                    "start" : 18,
                                    "duration" : 72,
                                    "mediaStart" : 0,
                                    "mediaDuration" : 1,
                                    "scalar" : 1,
                                    "metadata" : {
                                      "WinSubProjectDisplayName" : "",
                                      "clipSpeedAttribute" : false
                                    },
                                    "animationTracks" : {
                                      "visual" : [
                                        {
                                          "endTime" : 80,
                                          "duration" : 80,
                                          "range" : [ 0, 80],
                                          "interp" : "sprg"
                                        },
                                        {
                                          "endTime" : 231,
                                          "duration" : 21,
                                          "range" : [ 210, 21]
                                        }
                                      ]
                                    }
                                  }
                                ],
                                  "ident" : "",
                                  "audioMuted" : false,
                                  "videoHidden" : false,
                                  "magnetic" : false,
                                  "matte" : 0,
                                  "metadata" : {
                                    "IsLocked" : "False",
                                    "WinTrackHeight" : "8.20837662215884e-312"
                                  }
                              },
                              {
                                "trackIndex" : 10,
                                "medias" : [
                                  {
                                    "id" : 89,
                                    "_type" : "IMFile",
                                    "src" : 34,
                                    "trackNumber" : 0,
                                    "trimStartSum" : 0,
                                    "attributes" : {
                                      "ident" : "dots main"
                                    },
                                    "parameters" : {
                                      "translation0" : {
                                        "type" : "double",
                                        "defaultValue" : 562.931376080618,
                                        "interp" : "eioe",
                                        "keyframes" : [
                                          {
                                            "endTime" : 30,
                                            "time" : 0,
                                            "value" : 562.931376080618,
                                            "duration" : 30
                                          },
                                          {
                                            "endTime" : 226,
                                            "time" : 210,
                                            "value" : 562.931376080618,
                                            "duration" : 16
                                          }
                                        ]
                                      },
                                      "translation1" : {
                                        "type" : "double",
                                        "defaultValue" : 427.330871978799,
                                        "interp" : "eioe",
                                        "keyframes" : [
                                          {
                                            "endTime" : 30,
                                            "time" : 0,
                                            "value" : 427.330871978799,
                                            "duration" : 30
                                          },
                                          {
                                            "endTime" : 226,
                                            "time" : 210,
                                            "value" : 427.330871978799,
                                            "duration" : 16
                                          }
                                        ]
                                      },
                                      "scale0" : {
                                        "type" : "double",
                                        "defaultValue" : 0.01,
                                        "interp" : "eioe",
                                        "keyframes" : [
                                          {
                                            "endTime" : 30,
                                            "time" : 0,
                                            "value" : 1.0,
                                            "duration" : 30
                                          },
                                          {
                                            "endTime" : 226,
                                            "time" : 210,
                                            "value" : 0.01,
                                            "duration" : 16
                                          }
                                        ]
                                      },
                                      "scale1" : {
                                        "type" : "double",
                                        "defaultValue" : 0.01,
                                        "interp" : "eioe",
                                        "keyframes" : [
                                          {
                                            "endTime" : 30,
                                            "time" : 0,
                                            "value" : 1.0,
                                            "duration" : 30
                                          },
                                          {
                                            "endTime" : 226,
                                            "time" : 210,
                                            "value" : 0.01,
                                            "duration" : 16
                                          }
                                        ]
                                      }
                                    },
                                    "effects" : [

                                    ],
                                    "start" : 18,
                                    "duration" : 232,
                                    "mediaStart" : 0,
                                    "mediaDuration" : 1,
                                    "scalar" : 1,
                                    "metadata" : {
                                      "WinSubProjectDisplayName" : "",
                                      "clipSpeedAttribute" : false
                                    },
                                    "animationTracks" : {
                                      "visual" : [
                                        {
                                          "endTime" : 30,
                                          "duration" : 30,
                                          "range" : [ 0, 30],
                                          "interp" : "sprg"
                                        },
                                        {
                                          "endTime" : 226,
                                          "duration" : 16,
                                          "range" : [ 210, 16],
                                          "interp" : "eioe"
                                        }
                                      ]
                                    }
                                  }
                                ],
                                  "ident" : "",
                                  "audioMuted" : false,
                                  "videoHidden" : false,
                                  "magnetic" : false,
                                  "matte" : 0,
                                  "metadata" : {
                                    "IsLocked" : "False",
                                    "WinTrackHeight" : "8.20837662215884e-312"
                                  }
                              },
                              {
                                "trackIndex" : 11,
                                "medias" : [
                                  {
                                    "id" : 90,
                                    "_type" : "IMFile",
                                    "src" : 35,
                                    "trackNumber" : 0,
                                    "trimStartSum" : 0,
                                    "attributes" : {
                                      "ident" : "dots long main"
                                    },
                                    "parameters" : {
                                      "translation0" : {
                                        "type" : "double",
                                        "defaultValue" : -1212.80774984544,
                                        "interp" : "eioe",
                                        "keyframes" : [
                                          {
                                            "endTime" : 30,
                                            "time" : 0,
                                            "value" : -1212.80774984544,
                                            "duration" : 30
                                          },
                                          {
                                            "endTime" : 217,
                                            "time" : 199,
                                            "value" : -1216.69468148186,
                                            "duration" : 18
                                          }
                                        ]
                                      },
                                      "translation1" : {
                                        "type" : "double",
                                        "defaultValue" : -421.537133650049,
                                        "interp" : "eioe",
                                        "keyframes" : [
                                          {
                                            "endTime" : 30,
                                            "time" : 0,
                                            "value" : -421.537133650049,
                                            "duration" : 30
                                          },
                                          {
                                            "endTime" : 217,
                                            "time" : 199,
                                            "value" : -657.703800316747,
                                            "duration" : 18
                                          }
                                        ]
                                      },
                                      "scale0" : {
                                        "type" : "double",
                                        "defaultValue" : 0.01,
                                        "interp" : "eioe",
                                        "keyframes" : [
                                          {
                                            "endTime" : 30,
                                            "time" : 0,
                                            "value" : 1.0,
                                            "duration" : 30
                                          }
                                        ]
                                      },
                                      "scale1" : {
                                        "type" : "double",
                                        "defaultValue" : 0.01,
                                        "interp" : "eioe",
                                        "keyframes" : [
                                          {
                                            "endTime" : 30,
                                            "time" : 0,
                                            "value" : 1.0,
                                            "duration" : 30
                                          }
                                        ]
                                      }
                                    },
                                    "effects" : [

                                    ],
                                    "start" : 29,
                                    "duration" : 221,
                                    "mediaStart" : 0,
                                    "mediaDuration" : 1,
                                    "scalar" : 1,
                                    "metadata" : {
                                      "WinSubProjectDisplayName" : "",
                                      "clipSpeedAttribute" : false
                                    },
                                    "animationTracks" : {
                                      "visual" : [
                                        {
                                          "endTime" : 30,
                                          "duration" : 30,
                                          "range" : [ 0, 30],
                                          "interp" : "sprg"
                                        },
                                        {
                                          "endTime" : 217,
                                          "duration" : 18,
                                          "range" : [ 199, 18],
                                          "interp" : "eioe"
                                        }
                                      ]
                                    }
                                  }
                                ],
                                  "ident" : "",
                                  "audioMuted" : false,
                                  "videoHidden" : false,
                                  "magnetic" : false,
                                  "matte" : 0,
                                  "metadata" : {
                                    "IsLocked" : "False",
                                    "WinTrackHeight" : "8.20837662215884e-312"
                                  }
                              },
                              {
                                "trackIndex" : 12,
                                "medias" : [
                                  {
                                    "id" : 91,
                                    "_type" : "IMFile",
                                    "src" : 36,
                                    "trackNumber" : 0,
                                    "trimStartSum" : 0,
                                    "attributes" : {
                                      "ident" : "circle copy"
                                    },
                                    "parameters" : {
                                      "translation0" : {
                                        "type" : "double",
                                        "defaultValue" : 450.931376080413,
                                        "interp" : "eioe",
                                        "keyframes" : [
                                          {
                                            "endTime" : 34,
                                            "time" : 0,
                                            "value" : 450.931376080413,
                                            "duration" : 34
                                          },
                                          {
                                            "endTime" : 225,
                                            "time" : 209,
                                            "value" : 450.931376080413,
                                            "duration" : 16
                                          }
                                        ]
                                      },
                                      "translation1" : {
                                        "type" : "double",
                                        "defaultValue" : -412.370466983496,
                                        "interp" : "eioe",
                                        "keyframes" : [
                                          {
                                            "endTime" : 34,
                                            "time" : 0,
                                            "value" : -412.370466983496,
                                            "duration" : 34
                                          },
                                          {
                                            "endTime" : 225,
                                            "time" : 209,
                                            "value" : -412.370466983496,
                                            "duration" : 16
                                          }
                                        ]
                                      },
                                      "scale0" : {
                                        "type" : "double",
                                        "defaultValue" : 0.01,
                                        "interp" : "eioe",
                                        "keyframes" : [
                                          {
                                            "endTime" : 34,
                                            "time" : 0,
                                            "value" : 1.0,
                                            "duration" : 34
                                          },
                                          {
                                            "endTime" : 225,
                                            "time" : 209,
                                            "value" : 0.01,
                                            "duration" : 16
                                          }
                                        ]
                                      },
                                      "scale1" : {
                                        "type" : "double",
                                        "defaultValue" : 0.01,
                                        "interp" : "eioe",
                                        "keyframes" : [
                                          {
                                            "endTime" : 34,
                                            "time" : 0,
                                            "value" : 1.0,
                                            "duration" : 34
                                          },
                                          {
                                            "endTime" : 225,
                                            "time" : 209,
                                            "value" : 0.01,
                                            "duration" : 16
                                          }
                                        ]
                                      }
                                    },
                                    "effects" : [

                                    ],
                                    "start" : 10,
                                    "duration" : 227,
                                    "mediaStart" : 0,
                                    "mediaDuration" : 1,
                                    "scalar" : 1,
                                    "metadata" : {
                                      "WinSubProjectDisplayName" : "",
                                      "clipSpeedAttribute" : false
                                    },
                                    "animationTracks" : {
                                      "visual" : [
                                        {
                                          "endTime" : 34,
                                          "duration" : 34,
                                          "range" : [ 0, 34],
                                          "interp" : "sprg"
                                        },
                                        {
                                          "endTime" : 225,
                                          "duration" : 16,
                                          "range" : [ 209, 16],
                                          "interp" : "eioe"
                                        }
                                      ]
                                    }
                                  }
                                ],
                                  "ident" : "",
                                  "audioMuted" : false,
                                  "videoHidden" : false,
                                  "magnetic" : false,
                                  "matte" : 0,
                                  "metadata" : {
                                    "IsLocked" : "False",
                                    "WinTrackHeight" : "8.20837662215884e-312"
                                  }
                              }
                            ],
                            "attributes" : {
                              "ident" : "shapes",
                              "gain" : 1.0,
                              "mixToMono" : false
                            },
                            "effects" : [

                            ],
                            "start" : 0,
                            "duration" : 90,
                            "mediaStart" : 0.0,
                            "mediaDuration" : 90.0,
                            "scalar" : 1,
                            "metadata" : {
                              "IsGroupExpanded" : "False",
                              "WinSubProjectDisplayName" : "shapes"
                            },
                            "animationTracks" : {

                            }
                          }
                        ],
                          "ident" : "",
                          "audioMuted" : false,
                          "videoHidden" : false,
                          "magnetic" : false,
                          "matte" : 0,
                          "metadata" : {
                            "IsLocked" : "False",
                            "WinTrackHeight" : "0"
                          }
                      },
                      {
                        "trackIndex" : 1,
                        "medias" : [
                          {
                            "id" : 92,
                            "_type" : "Callout",
                            "def" : {
                              "kind" : "remix",
                              "shape" : "text",
                              "style" : "basic",
                              "height" : {
                                "type" : "double",
                                "defaultValue" : 250.0,
                                "interp" : "linr"
                              },
                              "line-spacing" : {
                                "type" : "double",
                                "defaultValue" : 0.0,
                                "interp" : "linr"
                              },
                              "width" : {
                                "type" : "double",
                                "defaultValue" : 931.319843342086,
                                "interp" : "linr"
                              },
                              "word-wrap" : {
                                "type" : "double",
                                "defaultValue" : 1.0,
                                "interp" : "linr"
                              },
                              "horizontal-alignment" : "center",
                              "resize-behavior" : "resizeText",
                              "text" : "",
                              "vertical-alignment" : "bottom",
                              "font" : {
                                "color-blue" : {
                                  "type" : "double",
                                  "defaultValue" : 1.0,
                                  "interp" : "linr"
                                },
                                "color-green" : {
                                  "type" : "double",
                                  "defaultValue" : 1.0,
                                  "interp" : "linr"
                                },
                                "color-red" : {
                                  "type" : "double",
                                  "defaultValue" : 1.0,
                                  "interp" : "linr"
                                },
                                "size" : {
                                  "type" : "double",
                                  "defaultValue" : 96.0,
                                  "interp" : "linr"
                                },
                                "tracking" : {
                                  "type" : "double",
                                  "defaultValue" : 0.0,
                                  "interp" : "linr"
                                },
                                "name" : "Montserrat",
                                "weight" : "Regular"
                              },
                              "textAttributes" : {
                                "type" : "textAttributeList",
                                "keyframes" : [
                                  {
                                    "endTime" : 0,
                                    "time" : 0,
                                    "value" : [{"name":"fgColor","rangeEnd":0,"rangeStart":0,"value":"(0,0,0,255)","valueType":"color"},{"name":"fontName","rangeEnd":0,"rangeStart":0,"value":"Montserrat","valueType":"string"},{"name":"fontItalic","rangeEnd":0,"rangeStart":0,"value":0,"valueType":"int"},{"name":"fontWeight","rangeEnd":0,"rangeStart":0,"value":700,"valueType":"int"},{"name":"fontSize","rangeEnd":0,"rangeStart":0,"value":57,"valueType":"double"},{"name":"strikethrough","rangeEnd":0,"rangeStart":0,"value":0,"valueType":"int"},{"name":"underline","rangeEnd":0,"rangeStart":0,"value":0,"valueType":"int"}],
                                    "duration" : 0
                                  }
                                ]
                              }
                            },
                            "attributes" : {
                              "autoRotateText" : true
                            },
                            "parameters" : {
                              "translation0" : {
                                "type" : "double",
                                "defaultValue" : 516.395459617586,
                                "interp" : "eioe"
                              },
                              "translation1" : {
                                "type" : "double",
                                "defaultValue" : 30.2230200175273,
                                "interp" : "eioe"
                              }
                            },
                            "effects" : [
                                {
                                  "effectName" : "DropShadow",
                                  "category" : "categoryVisualEffects",
                                  "parameters" : {
                                    "angle" : {
                                      "type" : "double",
                                      "defaultValue" : 5.49778714378214,
                                      "interp" : "linr",
                                      "uiHints" : {
                                        "userInterfaceType" : 0,
                                        "unitType" : 0
                                      }
                                    },
                                    "blur" : {
                                      "type" : "double",
                                      "defaultValue" : 0.0,
                                      "interp" : "linr",
                                      "uiHints" : {
                                        "userInterfaceType" : 0,
                                        "unitType" : 0
                                      }
                                    },
                                    "color-alpha" : {
                                      "type" : "double",
                                      "defaultValue" : 1.0,
                                      "interp" : "linr",
                                      "uiHints" : {
                                        "userInterfaceType" : 0,
                                        "unitType" : 0
                                      }
                                    },
                                    "color-blue" : {
                                      "type" : "double",
                                      "defaultValue" : 0.917647058823529,
                                      "interp" : "linr",
                                      "uiHints" : {
                                        "userInterfaceType" : 0,
                                        "unitType" : 0
                                      }
                                    },
                                    "color-green" : {
                                      "type" : "double",
                                      "defaultValue" : 0.898039215686275,
                                      "interp" : "linr",
                                      "uiHints" : {
                                        "userInterfaceType" : 0,
                                        "unitType" : 0
                                      }
                                    },
                                    "color-red" : {
                                      "type" : "double",
                                      "defaultValue" : 0.72156862745098,
                                      "interp" : "linr",
                                      "uiHints" : {
                                        "userInterfaceType" : 0,
                                        "unitType" : 0
                                      }
                                    },
                                    "enabled" : 1,
                                    "offset" : {
                                      "type" : "double",
                                      "defaultValue" : 10.0,
                                      "interp" : "linr",
                                      "uiHints" : {
                                        "userInterfaceType" : 0,
                                        "unitType" : 0
                                      }
                                    },
                                    "opacity" : {
                                      "type" : "double",
                                      "defaultValue" : 1.0,
                                      "interp" : "linr",
                                      "uiHints" : {
                                        "userInterfaceType" : 0,
                                        "unitType" : 0
                                      }
                                    }
                                  }
                                },
                                {
                                  "_type" : "GenericBehaviorEffect",
                                  "effectName" : "sliding",
                                  "start" : 0,
                                  "duration" : 228                                ,
                                  "in" : {
                                    "attributes" : {
                                      "name" : "sliding",
                                      "type" : 1,
                                      "characterOrder" : 6,
                                      "offsetBetweenCharacters" : "3/5",
                                      "suggestedDurationPerCharacter" : "3599/100",
                                      "overlapProportion" : "11/20",
                                      "movement" : 16,
                                      "springDamping" : 5.0,
                                      "springStiffness" : 50.0,
                                      "bounceBounciness" : 0.45
                                    },
                                    "parameters" : {
                                      "direction" : {
                                        "type" : "int",
                                        "valueBounds" : {
                                          "minValue" : 0,
                                          "maxValue" : 3,
                                          "defaultValue" : 0
                                        },
                                        "uiHints" : {
                                          "userInterfaceType" : 2,
                                          "unitType" : 0
                                        },
                                        "keyframes" : [
                                          {
                                            "endTime" : 0,
                                            "time" : 0,
                                            "value" : 3,
                                            "duration" : 0
                                          }
                                        ]
                                      }
                                    }
                                  
                                  },
                                  "center" : {
                                    "attributes" : {
                                      "name" : "fading",
                                      "type" : 1,
                                      "characterOrder" : 6,
                                      "offsetBetweenCharacters" : "12/5",
                                      "secondsPerLoop" : 2,
                                      "numberOfLoops" : -1,
                                      "delayBetweenLoops" : 0,
                                      "offsetBetweenCharacters" : "12/5"
                                    },
                                    "parameters" : {
                                      "movement" : {
                                        "type" : "int",
                                        "valueBounds" : {
                                          "minValue" : 0,
                                          "maxValue" : 31,
                                          "defaultValue" : 0
                                        },
                                        "uiHints" : {
                                          "userInterfaceType" : 4,
                                          "unitType" : 0
                                        },
                                        "keyframes" : [
                                          {
                                            "endTime" : 0,
                                            "time" : 0,
                                            "value" : 0,
                                            "duration" : 0
                                          }
                                        ]
                                      },
                                      "opacity" : {
                                        "type" : "double",
                                        "defaultValue" : 0.65,
                                        "interp" : "linr",
                                        "valueBounds" : {
                                          "minValue" : 0.0,
                                          "maxValue" : 1.0,
                                          "defaultValue" : 0.65
                                        },
                                        "uiHints" : {
                                          "userInterfaceType" : 1,
                                          "unitType" : 1
                                        }
                                      }
                                    }
                                  
                                  },
                                  "out" : {
                                    "attributes" : {
                                      "name" : "sliding",
                                      "type" : 1,
                                      "characterOrder" : 7,
                                      "offsetBetweenCharacters" : "3/10",
                                      "suggestedDurationPerCharacter" : 30,
                                      "overlapProportion" : "11/20",
                                      "movement" : 8,
                                      "springDamping" : 5.0,
                                      "springStiffness" : 50.0,
                                      "bounceBounciness" : 0.45
                                    },
                                    "parameters" : {
                                      "direction" : {
                                        "type" : "int",
                                        "valueBounds" : {
                                          "minValue" : 0,
                                          "maxValue" : 3,
                                          "defaultValue" : 2
                                        },
                                        "uiHints" : {
                                          "userInterfaceType" : 2,
                                          "unitType" : 0
                                        },
                                        "keyframes" : [
                                          {
                                            "endTime" : 0,
                                            "time" : 0,
                                            "value" : 3,
                                            "duration" : 0
                                          }
                                        ]
                                      }
                                    }
                                  
                                  }
                                }
                            ],
                            "start" : 15,
                            "duration" : 228,
                            "mediaStart" : 0,
                            "mediaDuration" : 228,
                            "scalar" : 1,
                            "metadata" : {
                              "WinSubProjectDisplayName" : "",
                              "clipSpeedAttribute" : false
                            },
                            "animationTracks" : {

                            }
                          }
                        ],
                          "ident" : "",
                          "audioMuted" : false,
                          "videoHidden" : false,
                          "magnetic" : false,
                          "matte" : 0,
                          "metadata" : {
                            "IsLocked" : "False",
                            "WinTrackHeight" : "8.20840064505345e-312"
                          }
                      },
                      {
                        "trackIndex" : 2,
                        "medias" : [
                          {
                            "id" : 93,
                            "_type" : "Callout",
                            "def" : {
                              "kind" : "remix",
                              "shape" : "text",
                              "style" : "basic",
                              "height" : {
                                "type" : "double",
                                "defaultValue" : 306.0,
                                "interp" : "linr"
                              },
                              "line-spacing" : {
                                "type" : "double",
                                "defaultValue" : 0.0,
                                "interp" : "linr"
                              },
                              "width" : {
                                "type" : "double",
                                "defaultValue" : 1139.93548825071,
                                "interp" : "linr"
                              },
                              "word-wrap" : {
                                "type" : "double",
                                "defaultValue" : 1.0,
                                "interp" : "linr"
                              },
                              "horizontal-alignment" : "center",
                              "resize-behavior" : "resizeText",
                              "text" : "Want to know more?",
                              "vertical-alignment" : "top",
                              "font" : {
                                "color-blue" : {
                                  "type" : "double",
                                  "defaultValue" : 1.0,
                                  "interp" : "linr"
                                },
                                "color-green" : {
                                  "type" : "double",
                                  "defaultValue" : 1.0,
                                  "interp" : "linr"
                                },
                                "color-red" : {
                                  "type" : "double",
                                  "defaultValue" : 1.0,
                                  "interp" : "linr"
                                },
                                "size" : {
                                  "type" : "double",
                                  "defaultValue" : 96.0,
                                  "interp" : "linr"
                                },
                                "tracking" : {
                                  "type" : "double",
                                  "defaultValue" : 0.0,
                                  "interp" : "linr"
                                },
                                "name" : "Montserrat",
                                "weight" : "Regular"
                              },
                              "textAttributes" : {
                                "type" : "textAttributeList",
                                "keyframes" : [
                                  {
                                    "endTime" : 0,
                                    "time" : 0,
                                    "value" : [{"name":"fontName","rangeEnd":18,"rangeStart":0,"value":"Montserrat","valueType":"string"},{"name":"strikethrough","rangeEnd":18,"rangeStart":0,"value":0,"valueType":"int"},{"name":"underline","rangeEnd":18,"rangeStart":0,"value":0,"valueType":"int"},{"name":"fgColor","rangeEnd":18,"rangeStart":0,"value":"(255,255,255,255)","valueType":"color"},{"name":"fontWeight","rangeEnd":18,"rangeStart":0,"value":700,"valueType":"int"},{"name":"fontItalic","rangeEnd":18,"rangeStart":0,"value":0,"valueType":"int"},{"name":"fontSize","rangeEnd":18,"rangeStart":0,"value":134,"valueType":"double"}],
                                    "duration" : 0
                                  }
                                ]
                              }
                            },
                            "attributes" : {
                              "autoRotateText" : true
                            },
                            "parameters" : {
                              "translation0" : {
                                "type" : "double",
                                "defaultValue" : 516.087637163533,
                                "interp" : "eioe"
                              },
                              "translation1" : {
                                "type" : "double",
                                "defaultValue" : 144.889686684126,
                                "interp" : "eioe"
                              }
                            },
                            "effects" : [
                                {
                                  "effectName" : "DropShadow",
                                  "category" : "categoryVisualEffects",
                                  "parameters" : {
                                    "angle" : {
                                      "type" : "double",
                                      "defaultValue" : 5.49778714378214,
                                      "interp" : "linr",
                                      "uiHints" : {
                                        "userInterfaceType" : 0,
                                        "unitType" : 0
                                      }
                                    },
                                    "blur" : {
                                      "type" : "double",
                                      "defaultValue" : 0.0,
                                      "interp" : "linr",
                                      "uiHints" : {
                                        "userInterfaceType" : 0,
                                        "unitType" : 0
                                      }
                                    },
                                    "color-alpha" : {
                                      "type" : "double",
                                      "defaultValue" : 1.0,
                                      "interp" : "linr",
                                      "uiHints" : {
                                        "userInterfaceType" : 0,
                                        "unitType" : 0
                                      }
                                    },
                                    "color-blue" : {
                                      "type" : "double",
                                      "defaultValue" : 0.380392156862745,
                                      "interp" : "linr",
                                      "uiHints" : {
                                        "userInterfaceType" : 0,
                                        "unitType" : 0
                                      }
                                    },
                                    "color-green" : {
                                      "type" : "double",
                                      "defaultValue" : 0.768627450980392,
                                      "interp" : "linr",
                                      "uiHints" : {
                                        "userInterfaceType" : 0,
                                        "unitType" : 0
                                      }
                                    },
                                    "color-red" : {
                                      "type" : "double",
                                      "defaultValue" : 0.992156862745098,
                                      "interp" : "linr",
                                      "uiHints" : {
                                        "userInterfaceType" : 0,
                                        "unitType" : 0
                                      }
                                    },
                                    "enabled" : 1,
                                    "offset" : {
                                      "type" : "double",
                                      "defaultValue" : 10.0,
                                      "interp" : "linr",
                                      "uiHints" : {
                                        "userInterfaceType" : 0,
                                        "unitType" : 0
                                      }
                                    },
                                    "opacity" : {
                                      "type" : "double",
                                      "defaultValue" : 1.0,
                                      "interp" : "linr",
                                      "uiHints" : {
                                        "userInterfaceType" : 0,
                                        "unitType" : 0
                                      }
                                    }
                                  }
                                },
                                {
                                  "_type" : "GenericBehaviorEffect",
                                  "effectName" : "shifting",
                                  "start" : 0,
                                  "duration" : 244                                ,
                                  "in" : {
                                    "attributes" : {
                                      "name" : "shifting",
                                      "type" : 1,
                                      "characterOrder" : 4,
                                      "offsetBetweenCharacters" : "3/10",
                                      "suggestedDurationPerCharacter" : "91/2",
                                      "overlapProportion" : 0,
                                      "movement" : 30,
                                      "springDamping" : 8.62000000000001,
                                      "springStiffness" : 50.0,
                                      "bounceBounciness" : 0.45
                                    }
                                  
                                  },
                                  "center" : {
                                    "attributes" : {
                                      "name" : "shifting",
                                      "type" : 1,
                                      "characterOrder" : 3,
                                      "offsetBetweenCharacters" : 0,
                                      "secondsPerLoop" : "317/100",
                                      "numberOfLoops" : -1,
                                      "delayBetweenLoops" : 0,
                                      "offsetBetweenCharacters" : 0
                                    },
                                    "parameters" : {
                                      "movement" : {
                                        "type" : "int",
                                        "valueBounds" : {
                                          "minValue" : 0,
                                          "maxValue" : 31,
                                          "defaultValue" : 12
                                        },
                                        "uiHints" : {
                                          "userInterfaceType" : 4,
                                          "unitType" : 0
                                        },
                                        "keyframes" : [
                                          {
                                            "endTime" : 0,
                                            "time" : 0,
                                            "value" : 12,
                                            "duration" : 0
                                          }
                                        ]
                                      },
                                      "shift" : {
                                        "type" : "double",
                                        "defaultValue" : 5.0,
                                        "interp" : "linr",
                                        "valueBounds" : {
                                          "minValue" : 0.0,
                                          "maxValue" : 100.0,
                                          "defaultValue" : 5.0
                                        },
                                        "uiHints" : {
                                          "userInterfaceType" : 1,
                                          "unitType" : 0
                                        }
                                      }
                                    }
                                  
                                  },
                                  "out" : {
                                    "attributes" : {
                                      "name" : "shifting",
                                      "type" : 1,
                                      "characterOrder" : 4,
                                      "offsetBetweenCharacters" : 1,
                                      "suggestedDurationPerCharacter" : "167/5",
                                      "overlapProportion" : "1/2",
                                      "movement" : 14,
                                      "springDamping" : 5.0,
                                      "springStiffness" : 50.0,
                                      "bounceBounciness" : 0.45
                                    }
                                  
                                  }
                                }
                            ],
                            "start" : 14,
                            "duration" : 235,
                            "mediaStart" : 0,
                            "mediaDuration" : 235,
                            "scalar" : 1,
                            "metadata" : {
                              "WinSubProjectDisplayName" : "",
                              "clipSpeedAttribute" : false
                            },
                            "animationTracks" : {

                            }
                          }
                        ],
                          "ident" : "",
                          "audioMuted" : false,
                          "videoHidden" : false,
                          "magnetic" : false,
                          "matte" : 0,
                          "metadata" : {
                            "IsLocked" : "False",
                            "WinTrackHeight" : "8.20840064505345e-312"
                          }
                      }
                    ],
                    "attributes" : {
                      "ident" : "Stationary",
                      "gain" : 1.0,
                      "mixToMono" : false,
                      "assetProperties" : [
                        {
                          "type" : 0,
                          "name" : "Title",
                          "objects" : [ 93 ],
                          "themeMappings" :  {
                            "font-color" : "foreground-1",
                            "font-family" : "font-1"
                          }
                        },
                        {
                          "type" : 0,
                          "name" : "Subtitle",
                          "objects" : [ 92 ],
                          "themeMappings" :  {
                            "font-color" : "accent-1",
                            "font-family" : "font-2"
                          }
                        }
                      ]
                    },
                    "effects" : [

                    ],
                    "start" : 4092,
                    "duration" : 90,
                    "mediaStart" : 0.0,
                    "mediaDuration" : 90.0,
                    "scalar" : 1,
                    "metadata" : {
                      "AppliedThemeId" : "",
                      "IsGroupExpanded" : "False",
                      "WinSubProjectDisplayName" : "Stationary_Intro",
                      "clipSpeedAttribute" : false,
                      "default-scale0" : 0.174999997019768,
                      "default-scale1" : 0.174999997019768,
                      "default-translation0" : -90.3096901876124,
                      "default-translation1" : -15.6187497340108,
                      "effectApplied" : "none",
                      "isOpen" : false
                    },
                    "animationTracks" : {

                    }
                  },
                  {
                    "id" : 94,
                    "_type" : "Group",
                    "parameters" : {
                      "translation0" : {
                        "type" : "double",
                        "defaultValue" : -2.88480350718601e-12,
                        "interp" : "eioe"
                      },
                      "scale0" : {
                        "type" : "double",
                        "defaultValue" : 0.210937499999984,
                        "interp" : "eioe"
                      },
                      "scale1" : {
                        "type" : "double",
                        "defaultValue" : 0.210937499999984,
                        "interp" : "eioe"
                      },
                      "volume" : 1.0
                    },
                    "tracks" : [
                      {
                        "trackIndex" : 0,
                        "medias" : [
                          {
                            "id" : 95,
                            "_type" : "Group",
                            "parameters" : {
                              "volume" : 1.0
                            },
                            "tracks" : [
                              {
                                "trackIndex" : 0,
                                "medias" : [
                                  {
                                    "id" : 96,
                                    "_type" : "StitchedMedia",
                                    "minMediaStart" : 0,
                                    "attributes" : {
                                      "ident" : "laptop-open-background",
                                      "gain" : 1.0,
                                      "mixToMono" : false
                                    },
                                    "parameters" : {
                                      "cursorOpacity" : {
                                        "type" : "double",
                                        "defaultValue" : 1.0,
                                        "interp" : "linr"
                                      },
                                      "cursorScale" : {
                                        "type" : "double",
                                        "defaultValue" : 1.0,
                                        "interp" : "linr"
                                      }
                                    },
                                    "medias" : [
                                        {
                                          "id" : 97,
                                          "_type" : "VMFile",
                                          "src" : 17,
                                          "trackNumber" : 0,
                                          "attributes" : {
                                            "ident" : "laptop-open-background"
                                          },
                                          "effects" : [

                                          ],
                                          "start" : 0,
                                          "duration" : 100,
                                          "mediaStart" : 0,
                                          "mediaDuration" : 100,
                                          "scalar" : 1,
                                          "metadata" : {
                                            "WinSubProjectDisplayName" : "",
                                            "clipSpeedAttribute" : false
                                          },
                                          "animationTracks" : {

                                          }
                                        },
                                        {
                                          "id" : 98,
                                          "_type" : "IMFile",
                                          "src" : 17,
                                          "trackNumber" : 0,
                                          "trimStartSum" : 0,
                                          "attributes" : {
                                            "ident" : "laptop-open-background"
                                          },
                                          "effects" : [

                                          ],
                                          "start" : 100,
                                          "duration" : 90,
                                          "mediaStart" : 99,
                                          "mediaDuration" : 1,
                                          "scalar" : 1,
                                          "metadata" : {
                                            "WinSubProjectDisplayName" : ""
                                          },
                                          "animationTracks" : {

                                          }
                                        },
                                        {
                                          "id" : 99,
                                          "_type" : "VMFile",
                                          "src" : 17,
                                          "trackNumber" : 0,
                                          "attributes" : {
                                            "ident" : "laptop-open-background"
                                          },
                                          "effects" : [

                                          ],
                                          "start" : 190,
                                          "duration" : 587,
                                          "mediaStart" : 100,
                                          "mediaDuration" : 587,
                                          "scalar" : 1,
                                          "metadata" : {
                                            "WinSubProjectDisplayName" : "",
                                            "clipSpeedAttribute" : false
                                          },
                                          "animationTracks" : {

                                          }
                                        }
                                    ],
                                    "effects" : [

                                    ],
                                    "start" : 0,
                                    "duration" : 191,
                                    "mediaStart" : 0,
                                    "mediaDuration" : 191,
                                    "scalar" : 1,
                                    "metadata" : {
                                      "WinSubProjectDisplayName" : "",
                                      "clipSpeedAttribute" : false
                                    },
                                    "animationTracks" : {

                                    }
                                  },
                                  {
                                    "id" : 100,
                                    "_type" : "VMFile",
                                    "src" : 17,
                                    "trackNumber" : 0,
                                    "attributes" : {
                                      "ident" : "laptop-open-background"
                                    },
                                    "effects" : [

                                    ],
                                    "start" : 191,
                                    "duration" : 104,
                                    "mediaStart" : 109,
                                    "mediaDuration" : 104,
                                    "scalar" : 1,
                                    "metadata" : {
                                      "WinSubProjectDisplayName" : "",
                                      "clipSpeedAttribute" : false
                                    },
                                    "animationTracks" : {

                                    }
                                  }
                                ],
                                  "ident" : "",
                                  "audioMuted" : false,
                                  "videoHidden" : false,
                                  "magnetic" : false,
                                  "matte" : 0,
                                  "metadata" : {
                                    "IsLocked" : "False",
                                    "WinTrackHeight" : "0"
                                  }
                              }
                            ],
                            "attributes" : {
                              "ident" : "Shapes",
                              "gain" : 1.0,
                              "mixToMono" : false
                            },
                            "effects" : [

                            ],
                            "start" : 0,
                            "duration" : 295,
                            "mediaStart" : 0.0,
                            "mediaDuration" : 295.0,
                            "scalar" : 1,
                            "metadata" : {
                              "IsGroupExpanded" : "False",
                              "WinSubProjectDisplayName" : "Shapes",
                              "clipSpeedAttribute" : false,
                              "effectApplied" : "none",
                              "isOpen" : false
                            },
                            "animationTracks" : {

                            }
                          }
                        ],
                          "ident" : "",
                          "audioMuted" : false,
                          "videoHidden" : false,
                          "magnetic" : false,
                          "matte" : 0,
                          "metadata" : {
                            "IsLocked" : "False",
                            "WinTrackHeight" : "0",
                            "trackHeight" : "48"
                          }
                      },
                      {
                        "trackIndex" : 1,
                        "medias" : [
                          {
                            "id" : 101,
                            "_type" : "Callout",
                            "def" : {
                              "kind" : "remix",
                              "shape" : "text",
                              "style" : "basic",
                              "height" : {
                                "type" : "double",
                                "defaultValue" : 441.250000000173,
                                "interp" : "linr"
                              },
                              "line-spacing" : {
                                "type" : "double",
                                "defaultValue" : 0.0,
                                "interp" : "linr"
                              },
                              "width" : {
                                "type" : "double",
                                "defaultValue" : 819.999999998967,
                                "interp" : "linr"
                              },
                              "word-wrap" : {
                                "type" : "double",
                                "defaultValue" : 1.0,
                                "interp" : "linr"
                              },
                              "horizontal-alignment" : "center",
                              "resize-behavior" : "resizeText",
                              "text" : "visit: fasih.herokuapp.com",
                              "vertical-alignment" : "center",
                              "font" : {
                                "color-blue" : {
                                  "type" : "double",
                                  "defaultValue" : 1.0,
                                  "interp" : "linr"
                                },
                                "color-green" : {
                                  "type" : "double",
                                  "defaultValue" : 1.0,
                                  "interp" : "linr"
                                },
                                "color-red" : {
                                  "type" : "double",
                                  "defaultValue" : 1.0,
                                  "interp" : "linr"
                                },
                                "size" : {
                                  "type" : "double",
                                  "defaultValue" : 96.0,
                                  "interp" : "linr"
                                },
                                "tracking" : {
                                  "type" : "double",
                                  "defaultValue" : 0.0,
                                  "interp" : "linr"
                                },
                                "name" : "Montserrat",
                                "weight" : "Regular"
                              },
                              "textAttributes" : {
                                "type" : "textAttributeList",
                                "keyframes" : [
                                  {
                                    "endTime" : 0,
                                    "time" : 0,
                                    "value" : [{"name":"fontItalic","rangeEnd":26,"rangeStart":0,"value":0,"valueType":"int"},{"name":"fontWeight","rangeEnd":26,"rangeStart":0,"value":100,"valueType":"int"},{"name":"underline","rangeEnd":26,"rangeStart":0,"value":0,"valueType":"int"},{"name":"fontName","rangeEnd":26,"rangeStart":0,"value":"Montserrat","valueType":"string"},{"name":"strikethrough","rangeEnd":26,"rangeStart":0,"value":0,"valueType":"int"},{"name":"fontSize","rangeEnd":26,"rangeStart":0,"value":55,"valueType":"double"},{"name":"fgColor","rangeEnd":26,"rangeStart":0,"value":"(0,0,0,255)","valueType":"color"}],
                                    "duration" : 0
                                  }
                                ]
                              }
                            },
                            "attributes" : {
                              "autoRotateText" : true
                            },
                            "parameters" : {
                              "translation0" : {
                                "type" : "double",
                                "defaultValue" : -28.7499999993803,
                                "interp" : "eioe"
                              },
                              "translation1" : {
                                "type" : "double",
                                "defaultValue" : 94.1250000000071,
                                "interp" : "eioe"
                              }
                            },
                            "effects" : [
                                {
                                  "_type" : "GenericBehaviorEffect",
                                  "effectName" : "scale",
                                  "start" : -1,
                                  "duration" : 91                                ,
                                  "in" : {
                                    "attributes" : {
                                      "name" : "grow",
                                      "type" : 1,
                                      "characterOrder" : 6,
                                      "offsetBetweenCharacters" : 1,
                                      "suggestedDurationPerCharacter" : 18,
                                      "overlapProportion" : "3/4",
                                      "movement" : 30,
                                      "springDamping" : 5.0,
                                      "springStiffness" : 50.0,
                                      "bounceBounciness" : 0.45
                                    }
                                  
                                  },
                                  "center" : {
                                    "attributes" : {
                                      "name" : "none",
                                      "type" : 1,
                                      "characterOrder" : 6,
                                      "offsetBetweenCharacters" : 0,
                                      "secondsPerLoop" : 1,
                                      "numberOfLoops" : -1,
                                      "delayBetweenLoops" : 0,
                                      "offsetBetweenCharacters" : 0
                                    }
                                  
                                  },
                                  "out" : {
                                    "attributes" : {
                                      "name" : "shrink",
                                      "type" : 1,
                                      "characterOrder" : 6,
                                      "offsetBetweenCharacters" : 1,
                                      "suggestedDurationPerCharacter" : "29/2",
                                      "overlapProportion" : "1/10",
                                      "movement" : 11,
                                      "springDamping" : 5.0,
                                      "springStiffness" : 50.0,
                                      "bounceBounciness" : 0.45
                                    }
                                  
                                  }
                                }
                            ],
                            "start" : 100,
                            "duration" : 91,
                            "mediaStart" : -1,
                            "mediaDuration" : 91,
                            "scalar" : 1,
                            "metadata" : {
                              "WinSubProjectDisplayName" : "",
                              "clipSpeedAttribute" : false,
                              "effectApplied" : "none"
                            },
                            "animationTracks" : {

                            }
                          }
                        ],
                          "ident" : "",
                          "audioMuted" : false,
                          "videoHidden" : false,
                          "magnetic" : false,
                          "matte" : 0,
                          "metadata" : {
                            "IsLocked" : "False",
                            "WinTrackHeight" : "1.05102561619514e-311",
                            "trackHeight" : "48"
                          }
                      }
                    ],
                    "attributes" : {
                      "ident" : "spinningcomputer",
                      "gain" : 1.0,
                      "mixToMono" : false,
                      "assetProperties" : [
                        {
                          "type" : 0,
                          "name" : "Title",
                          "objects" : [ 101 ],
                          "themeMappings" :  {
                            "font-color" : "foreground-1",
                            "font-family" : "font-1"
                          }
                        }
                      ]
                    },
                    "effects" : [

                    ],
                    "start" : 4182,
                    "duration" : 185,
                    "mediaStart" : 110.0,
                    "mediaDuration" : 185.0,
                    "scalar" : 1,
                    "metadata" : {
                      "IsGroupExpanded" : "False",
                      "WinSubProjectDisplayName" : "",
                      "clipSpeedAttribute" : false,
                      "default-scale0" : 0.174999997019768,
                      "default-scale1" : 0.174999997019768,
                      "default-translation0" : 0.0,
                      "effectApplied" : "none",
                      "isOpen" : false
                    },
                    "animationTracks" : {

                    }
                  }
                ],
                "transitions" : [
                  {
                    "name" : "Glow",
                    "duration" : 11,
                    "trivial" : false,
                    "reverse" : false,
                    "useAudioPreRoll" : true,
                    "useVisualPreRoll" : true,
                    "leftMedia" : 38,
                    "rightMedia" : 46
                  },
                  {
                    "name" : "BarnDoor",
                    "duration" : 15,
                    "trivial" : false,
                    "reverse" : false,
                    "useAudioPreRoll" : true,
                    "useVisualPreRoll" : true,
                    "leftMedia" : 46,
                    "rightMedia" : 50
                  }
                ]
              },
              {
                "trackIndex" : 1,
                "medias" : [
                  {
                    "id" : 102,
                    "_type" : "Callout",
                    "def" : {
                      "kind" : "TypeWinBlur",
                      "shape" : "",
                      "style" : "",
                      "blur-invert" : 0.0,
                      "height" : 47.25,
                      "intensity" : 1.0,
                      "width" : 101.25,
                      "filename" : "C:\\Users\\Administrator\\AppData\\Local\\TechSmith\\Camtasia Studio\\19.0\\Features\\Tools\\Annotations\\Defaults\\blur_100x100.xml",
                      "name" : "Blur",
                      "xmlContent" : "﻿<?xml version=\"1.0\"?>\n\n<Overlay version=\"1.0.1\">\n\n<Overlay_Filename>blur_100x100.png</Overlay_Filename>\n<Overlay_Name>Blur</Overlay_Name>\n<Text_Top>0</Text_Top>\n<Text_Left>0</Text_Left>\n<Text_Bottom>0</Text_Bottom>\n<Text_Right>0</Text_Right>\n<Fill_Color>0</Fill_Color>\n<Border_Color>0</Border_Color>\n</Overlay>"
                    },
                    "attributes" : {
                      "autoRotateText" : true
                    },
                    "parameters" : {
                      "translation0" : -4.71978012228647e-12,
                      "translation1" : -1.37010403022941e-11,
                      "scale0" : 4.20740740740888,
                      "scale1" : 4.52910052910204
                    },
                    "effects" : [

                    ],
                    "start" : 382,
                    "duration" : 180,
                    "mediaStart" : -421,
                    "mediaDuration" : 180,
                    "scalar" : 1,
                    "metadata" : {
                      "clipSpeedAttribute" : false,
                      "default-scale0" : 1.0,
                      "default-scale1" : 1.0,
                      "default-translation0" : 0.0,
                      "default-translation1" : 0.0
                    },
                    "animationTracks" : {

                    }
                  },
                  {
                    "id" : 103,
                    "_type" : "Callout",
                    "def" : {
                      "kind" : "TypeWinBlur",
                      "shape" : "",
                      "style" : "",
                      "blur-invert" : 0.0,
                      "height" : {
                        "type" : "double",
                        "defaultValue" : 47.25,
                        "interp" : "linr"
                      },
                      "intensity" : {
                        "type" : "double",
                        "defaultValue" : 1.0,
                        "interp" : "linr"
                      },
                      "width" : {
                        "type" : "double",
                        "defaultValue" : 101.25,
                        "interp" : "linr"
                      },
                      "filename" : "C:\\Users\\Administrator\\AppData\\Local\\TechSmith\\Camtasia Studio\\19.0\\Features\\Tools\\Annotations\\Defaults\\blur_100x100.xml",
                      "name" : "Blur",
                      "xmlContent" : "﻿<?xml version=\"1.0\"?>\n\n<Overlay version=\"1.0.1\">\n\n<Overlay_Filename>blur_100x100.png</Overlay_Filename>\n<Overlay_Name>Blur</Overlay_Name>\n<Text_Top>0</Text_Top>\n<Text_Left>0</Text_Left>\n<Text_Bottom>0</Text_Bottom>\n<Text_Right>0</Text_Right>\n<Fill_Color>0</Fill_Color>\n<Border_Color>0</Border_Color>\n</Overlay>"
                    },
                    "attributes" : {
                      "autoRotateText" : true
                    },
                    "parameters" : {
                      "translation0" : {
                        "type" : "double",
                        "defaultValue" : -4.71978012228647e-12,
                        "interp" : "eioe"
                      },
                      "translation1" : {
                        "type" : "double",
                        "defaultValue" : -1.37010403022941e-11,
                        "interp" : "eioe"
                      },
                      "scale0" : {
                        "type" : "double",
                        "defaultValue" : 4.20740740740888,
                        "interp" : "eioe"
                      },
                      "scale1" : {
                        "type" : "double",
                        "defaultValue" : 4.52910052910204,
                        "interp" : "eioe"
                      }
                    },
                    "effects" : [

                    ],
                    "start" : 656,
                    "duration" : 557,
                    "mediaStart" : -60,
                    "mediaDuration" : 557,
                    "scalar" : 1,
                    "metadata" : {
                      "clipSpeedAttribute" : false,
                      "default-scale0" : 1.0,
                      "default-scale1" : 1.0,
                      "default-translation0" : 0.0,
                      "default-translation1" : 0.0
                    },
                    "animationTracks" : {

                    }
                  },
                  {
                    "id" : 104,
                    "_type" : "Callout",
                    "def" : {
                      "kind" : "TypeWinBlur",
                      "shape" : "",
                      "style" : "",
                      "blur-invert" : 0.0,
                      "height" : 47.25,
                      "intensity" : 1.0,
                      "width" : 101.25,
                      "filename" : "C:\\Users\\Administrator\\AppData\\Local\\TechSmith\\Camtasia Studio\\19.0\\Features\\Tools\\Annotations\\Defaults\\blur_100x100.xml",
                      "name" : "Blur",
                      "xmlContent" : "﻿<?xml version=\"1.0\"?>\n\n<Overlay version=\"1.0.1\">\n\n<Overlay_Filename>blur_100x100.png</Overlay_Filename>\n<Overlay_Name>Blur</Overlay_Name>\n<Text_Top>0</Text_Top>\n<Text_Left>0</Text_Left>\n<Text_Bottom>0</Text_Bottom>\n<Text_Right>0</Text_Right>\n<Fill_Color>0</Fill_Color>\n<Border_Color>0</Border_Color>\n</Overlay>"
                    },
                    "attributes" : {
                      "autoRotateText" : true
                    },
                    "parameters" : {
                      "translation0" : 2.43289832724258e-11,
                      "translation1" : -1.20241594459003e-11,
                      "scale0" : 4.4641975308635,
                      "scale1" : 4.5502645502626
                    },
                    "effects" : [

                    ],
                    "start" : 1333,
                    "duration" : 1304,
                    "mediaStart" : 269,
                    "mediaDuration" : 1304,
                    "scalar" : 1,
                    "metadata" : {
                      "clipSpeedAttribute" : false,
                      "default-scale0" : 1.0,
                      "default-scale1" : 1.0,
                      "default-translation0" : 0.0,
                      "default-translation1" : 0.0
                    },
                    "animationTracks" : {

                    }
                  },
                  {
                    "id" : 105,
                    "_type" : "Callout",
                    "def" : {
                      "kind" : "TypeWinBlur",
                      "shape" : "",
                      "style" : "",
                      "blur-invert" : 0.0,
                      "height" : 47.25,
                      "intensity" : 1.0,
                      "width" : 101.25,
                      "filename" : "C:\\Users\\Administrator\\AppData\\Local\\TechSmith\\Camtasia Studio\\19.0\\Features\\Tools\\Annotations\\Defaults\\blur_100x100.xml",
                      "name" : "Blur",
                      "xmlContent" : "﻿<?xml version=\"1.0\"?>\n\n<Overlay version=\"1.0.1\">\n\n<Overlay_Filename>blur_100x100.png</Overlay_Filename>\n<Overlay_Name>Blur</Overlay_Name>\n<Text_Top>0</Text_Top>\n<Text_Left>0</Text_Left>\n<Text_Bottom>0</Text_Bottom>\n<Text_Right>0</Text_Right>\n<Fill_Color>0</Fill_Color>\n<Border_Color>0</Border_Color>\n</Overlay>"
                    },
                    "attributes" : {
                      "autoRotateText" : true
                    },
                    "parameters" : {
                      "translation0" : -1.37374556175018e-11,
                      "translation1" : 4.00124378074906e-12,
                      "scale0" : 4.28888888889048,
                      "scale1" : 4.61904761905068
                    },
                    "effects" : [

                    ],
                    "start" : 2787,
                    "duration" : 81,
                    "mediaStart" : 0,
                    "mediaDuration" : 81,
                    "scalar" : 1,
                    "metadata" : {
                      "clipSpeedAttribute" : false,
                      "default-scale0" : 1.0,
                      "default-scale1" : 1.0,
                      "default-translation0" : 0.0,
                      "default-translation1" : 0.0
                    },
                    "animationTracks" : {

                    }
                  },
                  {
                    "id" : 106,
                    "_type" : "Callout",
                    "def" : {
                      "kind" : "TypeWinBlur",
                      "shape" : "",
                      "style" : "",
                      "blur-invert" : 0.0,
                      "height" : 47.25,
                      "intensity" : 1.0,
                      "width" : 101.25,
                      "filename" : "C:\\Users\\Administrator\\AppData\\Local\\TechSmith\\Camtasia Studio\\19.0\\Features\\Tools\\Annotations\\Defaults\\blur_100x100.xml",
                      "name" : "Blur",
                      "xmlContent" : "﻿<?xml version=\"1.0\"?>\n\n<Overlay version=\"1.0.1\">\n\n<Overlay_Filename>blur_100x100.png</Overlay_Filename>\n<Overlay_Name>Blur</Overlay_Name>\n<Text_Top>0</Text_Top>\n<Text_Left>0</Text_Left>\n<Text_Bottom>0</Text_Bottom>\n<Text_Right>0</Text_Right>\n<Fill_Color>0</Fill_Color>\n<Border_Color>0</Border_Color>\n</Overlay>"
                    },
                    "attributes" : {
                      "autoRotateText" : true
                    },
                    "parameters" : {
                      "translation0" : -1.37374556175018e-11,
                      "translation1" : 4.00124378074906e-12,
                      "scale0" : 4.28888888889048,
                      "scale1" : 4.61904761905068
                    },
                    "effects" : [

                    ],
                    "start" : 2868,
                    "duration" : 90,
                    "mediaStart" : 308,
                    "mediaDuration" : 90,
                    "scalar" : 1,
                    "metadata" : {
                      "clipSpeedAttribute" : false,
                      "default-scale0" : 1.0,
                      "default-scale1" : 1.0,
                      "default-translation0" : 0.0,
                      "default-translation1" : 0.0
                    },
                    "animationTracks" : {

                    }
                  },
                  {
                    "id" : 107,
                    "_type" : "Callout",
                    "def" : {
                      "kind" : "TypeWinBlur",
                      "shape" : "",
                      "style" : "",
                      "blur-invert" : 0.0,
                      "height" : 47.25,
                      "intensity" : 1.0,
                      "width" : 101.25,
                      "filename" : "C:\\Users\\Administrator\\AppData\\Local\\TechSmith\\Camtasia Studio\\19.0\\Features\\Tools\\Annotations\\Defaults\\blur_100x100.xml",
                      "name" : "Blur",
                      "xmlContent" : "﻿<?xml version=\"1.0\"?>\n\n<Overlay version=\"1.0.1\">\n\n<Overlay_Filename>blur_100x100.png</Overlay_Filename>\n<Overlay_Name>Blur</Overlay_Name>\n<Text_Top>0</Text_Top>\n<Text_Left>0</Text_Left>\n<Text_Bottom>0</Text_Bottom>\n<Text_Right>0</Text_Right>\n<Fill_Color>0</Fill_Color>\n<Border_Color>0</Border_Color>\n</Overlay>"
                    },
                    "attributes" : {
                      "autoRotateText" : true
                    },
                    "parameters" : {
                      "translation0" : -1.37374556175018e-11,
                      "translation1" : 4.00124378074906e-12,
                      "scale0" : 4.28888888889048,
                      "scale1" : 4.61904761905068
                    },
                    "effects" : [

                    ],
                    "start" : 2958,
                    "duration" : 303,
                    "mediaStart" : 524,
                    "mediaDuration" : 303,
                    "scalar" : 1,
                    "metadata" : {
                      "clipSpeedAttribute" : false,
                      "default-scale0" : 1.0,
                      "default-scale1" : 1.0,
                      "default-translation0" : 0.0,
                      "default-translation1" : 0.0
                    },
                    "animationTracks" : {

                    }
                  },
                  {
                    "id" : 108,
                    "_type" : "Callout",
                    "def" : {
                      "kind" : "TypeWinBlur",
                      "shape" : "",
                      "style" : "",
                      "blur-invert" : 0.0,
                      "height" : 47.25,
                      "intensity" : 1.0,
                      "width" : 101.25,
                      "filename" : "C:\\Users\\Administrator\\AppData\\Local\\TechSmith\\Camtasia Studio\\19.0\\Features\\Tools\\Annotations\\Defaults\\blur_100x100.xml",
                      "name" : "Blur",
                      "xmlContent" : "﻿<?xml version=\"1.0\"?>\n\n<Overlay version=\"1.0.1\">\n\n<Overlay_Filename>blur_100x100.png</Overlay_Filename>\n<Overlay_Name>Blur</Overlay_Name>\n<Text_Top>0</Text_Top>\n<Text_Left>0</Text_Left>\n<Text_Bottom>0</Text_Bottom>\n<Text_Right>0</Text_Right>\n<Fill_Color>0</Fill_Color>\n<Border_Color>0</Border_Color>\n</Overlay>"
                    },
                    "attributes" : {
                      "autoRotateText" : true
                    },
                    "parameters" : {
                      "translation0" : -1.37374556175018e-11,
                      "translation1" : 4.00124378074906e-12,
                      "scale0" : 4.28888888889048,
                      "scale1" : 4.61904761905068
                    },
                    "effects" : [

                    ],
                    "start" : 3261,
                    "duration" : 74,
                    "mediaStart" : 977,
                    "mediaDuration" : 74,
                    "scalar" : 1,
                    "metadata" : {
                      "clipSpeedAttribute" : false,
                      "default-scale0" : 1.0,
                      "default-scale1" : 1.0,
                      "default-translation0" : 0.0,
                      "default-translation1" : 0.0
                    },
                    "animationTracks" : {

                    }
                  },
                  {
                    "id" : 109,
                    "_type" : "Callout",
                    "def" : {
                      "kind" : "TypeWinBlur",
                      "shape" : "",
                      "style" : "",
                      "blur-invert" : 0.0,
                      "height" : {
                        "type" : "double",
                        "defaultValue" : 47.25,
                        "interp" : "linr"
                      },
                      "intensity" : {
                        "type" : "double",
                        "defaultValue" : 1.0,
                        "interp" : "linr"
                      },
                      "width" : {
                        "type" : "double",
                        "defaultValue" : 101.25,
                        "interp" : "linr"
                      },
                      "filename" : "C:\\Users\\Administrator\\AppData\\Local\\TechSmith\\Camtasia Studio\\19.0\\Features\\Tools\\Annotations\\Defaults\\blur_100x100.xml",
                      "name" : "Blur",
                      "xmlContent" : "﻿<?xml version=\"1.0\"?>\n\n<Overlay version=\"1.0.1\">\n\n<Overlay_Filename>blur_100x100.png</Overlay_Filename>\n<Overlay_Name>Blur</Overlay_Name>\n<Text_Top>0</Text_Top>\n<Text_Left>0</Text_Left>\n<Text_Bottom>0</Text_Bottom>\n<Text_Right>0</Text_Right>\n<Fill_Color>0</Fill_Color>\n<Border_Color>0</Border_Color>\n</Overlay>"
                    },
                    "attributes" : {
                      "autoRotateText" : true
                    },
                    "parameters" : {
                      "translation0" : {
                        "type" : "double",
                        "defaultValue" : -1.37374556175018e-11,
                        "interp" : "eioe"
                      },
                      "translation1" : {
                        "type" : "double",
                        "defaultValue" : 4.00124378074906e-12,
                        "interp" : "eioe"
                      },
                      "scale0" : {
                        "type" : "double",
                        "defaultValue" : 4.28888888889048,
                        "interp" : "eioe"
                      },
                      "scale1" : {
                        "type" : "double",
                        "defaultValue" : 4.61904761905068,
                        "interp" : "eioe"
                      }
                    },
                    "effects" : [

                    ],
                    "start" : 3621,
                    "duration" : 471,
                    "mediaStart" : 977,
                    "mediaDuration" : 471,
                    "scalar" : 1,
                    "metadata" : {
                      "clipSpeedAttribute" : false,
                      "default-scale0" : 1.0,
                      "default-scale1" : 1.0,
                      "default-translation0" : 0.0,
                      "default-translation1" : 0.0
                    },
                    "animationTracks" : {

                    }
                  }
                ]
              },
              {
                "trackIndex" : 2,
                "medias" : [
                  {
                    "id" : 110,
                    "_type" : "IMFile",
                    "src" : 21,
                    "trackNumber" : 0,
                    "trimStartSum" : 0,
                    "attributes" : {
                      "ident" : "received_1292239330903200"
                    },
                    "parameters" : {
                      "translation0" : {
                        "type" : "double",
                        "defaultValue" : 20.0000000000038,
                        "interp" : "eioe"
                      },
                      "translation1" : {
                        "type" : "double",
                        "defaultValue" : 5.58841861675319e-12,
                        "interp" : "eioe"
                      },
                      "scale0" : {
                        "type" : "double",
                        "defaultValue" : 0.597222222222332,
                        "interp" : "eioe"
                      },
                      "scale1" : {
                        "type" : "double",
                        "defaultValue" : 0.597222222222332,
                        "interp" : "eioe"
                      },
                      "geometryCrop0" : {
                        "type" : "double",
                        "defaultValue" : 36.8372093022333,
                        "interp" : "linr"
                      },
                      "geometryCrop2" : {
                        "type" : "double",
                        "defaultValue" : 103.813953488182,
                        "interp" : "linr"
                      }
                    },
                    "effects" : [

                    ],
                    "start" : 382,
                    "duration" : 90,
                    "mediaStart" : 0,
                    "mediaDuration" : 1,
                    "scalar" : 1,
                    "metadata" : {
                      "clipSpeedAttribute" : false,
                      "default-scale0" : 0.466666666666667,
                      "default-scale1" : 0.466666666666667,
                      "default-translation0" : 0.0,
                      "default-translation1" : 0.0
                    },
                    "animationTracks" : {

                    }
                  },
                  {
                    "id" : 111,
                    "_type" : "IMFile",
                    "src" : 20,
                    "trackNumber" : 0,
                    "trimStartSum" : 26,
                    "attributes" : {
                      "ident" : "orca-image-1504264582699.jpg_1504264582757"
                    },
                    "parameters" : {
                      "translation0" : {
                        "type" : "double",
                        "defaultValue" : -16.3807905614238,
                        "interp" : "eioe"
                      },
                      "translation1" : {
                        "type" : "double",
                        "defaultValue" : 15.7689935786244,
                        "interp" : "eioe"
                      },
                      "rotation2" : {
                        "type" : "double",
                        "defaultValue" : 0.0122173047639603,
                        "interp" : "eioe"
                      },
                      "scale0" : {
                        "type" : "double",
                        "defaultValue" : 0.622498199728186,
                        "interp" : "eioe"
                      },
                      "scale1" : {
                        "type" : "double",
                        "defaultValue" : 0.622498199728186,
                        "interp" : "eioe"
                      },
                      "geometryCrop0" : {
                        "type" : "double",
                        "defaultValue" : 86.5384615386602,
                        "interp" : "linr"
                      },
                      "geometryCrop1" : {
                        "type" : "double",
                        "defaultValue" : 56.2500000001066,
                        "interp" : "linr"
                      },
                      "geometryCrop2" : {
                        "type" : "double",
                        "defaultValue" : 34.6153846153507,
                        "interp" : "linr"
                      },
                      "geometryCrop3" : {
                        "type" : "double",
                        "defaultValue" : 21.6346153846794,
                        "interp" : "linr"
                      }
                    },
                    "effects" : [

                    ],
                    "start" : 472,
                    "duration" : 90,
                    "mediaStart" : 0,
                    "mediaDuration" : 1,
                    "scalar" : 1,
                    "metadata" : {
                      "clipSpeedAttribute" : false,
                      "default-rotation1" : 0.0,
                      "default-rotation2" : 0.0,
                      "default-scale0" : 0.466666666666667,
                      "default-scale1" : 0.466666666666667,
                      "default-translation0" : 0.0,
                      "default-translation1" : 0.0
                    },
                    "animationTracks" : {

                    }
                  },
                  {
                    "id" : 112,
                    "_type" : "IMFile",
                    "src" : 22,
                    "trackNumber" : 0,
                    "trimStartSum" : 0,
                    "attributes" : {
                      "ident" : "20170313_225044"
                    },
                    "parameters" : {
                      "scale0" : {
                        "type" : "double",
                        "defaultValue" : 0.123046875,
                        "interp" : "eioe"
                      },
                      "scale1" : {
                        "type" : "double",
                        "defaultValue" : 0.123046875,
                        "interp" : "eioe"
                      }
                    },
                    "effects" : [

                    ],
                    "start" : 656,
                    "duration" : 60,
                    "mediaStart" : 0,
                    "mediaDuration" : 1,
                    "scalar" : 1,
                    "metadata" : {
                      "clipSpeedAttribute" : false
                    },
                    "animationTracks" : {

                    }
                  },
                  {
                    "id" : 113,
                    "_type" : "VMFile",
                    "src" : 5,
                    "trackNumber" : 0,
                    "attributes" : {
                      "ident" : "(187) AI Based LFR - YouTube"
                    },
                    "parameters" : {
                      "translation1" : 6.25000000002651,
                      "scale0" : 0.279861111111185,
                      "scale1" : 0.279861111111185
                    },
                    "effects" : [

                    ],
                    "start" : 716,
                    "duration" : 497,
                    "mediaStart" : 55,
                    "mediaDuration" : 497,
                    "scalar" : 1,
                    "metadata" : {
                      "clipSpeedAttribute" : false,
                      "default-scale0" : 0.2625,
                      "default-scale1" : 0.2625,
                      "default-translation1" : 0.0
                    },
                    "animationTracks" : {

                    }
                  },
                  {
                    "id" : 114,
                    "_type" : "IMFile",
                    "src" : 23,
                    "trackNumber" : 0,
                    "trimStartSum" : 0,
                    "attributes" : {
                      "ident" : "IMG-20170420-WA0021"
                    },
                    "parameters" : {
                      "translation0" : {
                        "type" : "double",
                        "defaultValue" : -3.30402372128447e-13,
                        "interp" : "eioe"
                      },
                      "translation1" : {
                        "type" : "double",
                        "defaultValue" : -6.12132566857326e-12,
                        "interp" : "eioe"
                      },
                      "scale0" : {
                        "type" : "double",
                        "defaultValue" : 0.374999999999967,
                        "interp" : "eioe"
                      },
                      "scale1" : {
                        "type" : "double",
                        "defaultValue" : 0.374999999999967,
                        "interp" : "eioe"
                      }
                    },
                    "effects" : [

                    ],
                    "start" : 1213,
                    "duration" : 120,
                    "mediaStart" : 0,
                    "mediaDuration" : 1,
                    "scalar" : 1,
                    "metadata" : {
                      "clipSpeedAttribute" : false,
                      "default-scale0" : 0.310855263157895,
                      "default-scale1" : 0.310855263157895,
                      "default-translation0" : 0.0,
                      "default-translation1" : 0.0
                    },
                    "animationTracks" : {

                    }
                  },
                  {
                    "id" : 115,
                    "_type" : "IMFile",
                    "src" : 15,
                    "trackNumber" : 0,
                    "trimStartSum" : 0,
                    "attributes" : {
                      "ident" : "received_1389832337810565"
                    },
                    "parameters" : {
                      "translation0" : {
                        "type" : "double",
                        "defaultValue" : 3.888889210657e-12,
                        "interp" : "eioe"
                      },
                      "translation1" : {
                        "type" : "double",
                        "defaultValue" : -2.91666690799275e-12,
                        "interp" : "eioe"
                      },
                      "scale0" : {
                        "type" : "double",
                        "defaultValue" : 0.196874999999994,
                        "interp" : "eioe"
                      },
                      "scale1" : {
                        "type" : "double",
                        "defaultValue" : 0.196874999999994,
                        "interp" : "eioe"
                      }
                    },
                    "effects" : [

                    ],
                    "start" : 1333,
                    "duration" : 65,
                    "mediaStart" : 0,
                    "mediaDuration" : 1,
                    "scalar" : 1,
                    "metadata" : {
                      "clipSpeedAttribute" : false,
                      "default-scale0" : 0.196875,
                      "default-scale1" : 0.196875,
                      "default-translation0" : 0.0,
                      "default-translation1" : 0.0
                    },
                    "animationTracks" : {

                    }
                  },
                  {
                    "id" : 116,
                    "_type" : "IMFile",
                    "src" : 8,
                    "trackNumber" : 0,
                    "trimStartSum" : 0,
                    "attributes" : {
                      "ident" : "IMG_20171106_214223"
                    },
                    "parameters" : {
                      "scale0" : {
                        "type" : "double",
                        "defaultValue" : 0.0454326923076923,
                        "interp" : "eioe"
                      },
                      "scale1" : {
                        "type" : "double",
                        "defaultValue" : 0.0454326923076923,
                        "interp" : "eioe"
                      }
                    },
                    "effects" : [

                    ],
                    "start" : 1398,
                    "duration" : 63,
                    "mediaStart" : 0,
                    "mediaDuration" : 1,
                    "scalar" : 1,
                    "metadata" : {
                      "clipSpeedAttribute" : false
                    },
                    "animationTracks" : {

                    }
                  },
                  {
                    "id" : 117,
                    "_type" : "IMFile",
                    "src" : 9,
                    "trackNumber" : 0,
                    "trimStartSum" : 0,
                    "attributes" : {
                      "ident" : "IMG_20171107_153310"
                    },
                    "parameters" : {
                      "scale0" : {
                        "type" : "double",
                        "defaultValue" : 0.0454326923076923,
                        "interp" : "eioe"
                      },
                      "scale1" : {
                        "type" : "double",
                        "defaultValue" : 0.0454326923076923,
                        "interp" : "eioe"
                      }
                    },
                    "effects" : [

                    ],
                    "start" : 1461,
                    "duration" : 69,
                    "mediaStart" : 0,
                    "mediaDuration" : 1,
                    "scalar" : 1,
                    "metadata" : {
                      "clipSpeedAttribute" : false
                    },
                    "animationTracks" : {

                    }
                  },
                  {
                    "id" : 118,
                    "_type" : "IMFile",
                    "src" : 11,
                    "trackNumber" : 0,
                    "trimStartSum" : 0,
                    "attributes" : {
                      "ident" : "received_1313332308793902"
                    },
                    "parameters" : {
                      "scale0" : {
                        "type" : "double",
                        "defaultValue" : 0.153908794788274,
                        "interp" : "eioe"
                      },
                      "scale1" : {
                        "type" : "double",
                        "defaultValue" : 0.153908794788274,
                        "interp" : "eioe"
                      }
                    },
                    "effects" : [

                    ],
                    "start" : 1530,
                    "duration" : 65,
                    "mediaStart" : 0,
                    "mediaDuration" : 1,
                    "scalar" : 1,
                    "metadata" : {
                      "clipSpeedAttribute" : false
                    },
                    "animationTracks" : {

                    }
                  },
                  {
                    "id" : 119,
                    "_type" : "IMFile",
                    "src" : 12,
                    "trackNumber" : 0,
                    "trimStartSum" : 0,
                    "attributes" : {
                      "ident" : "received_1313332378793895"
                    },
                    "parameters" : {
                      "scale0" : {
                        "type" : "double",
                        "defaultValue" : 0.153908794788274,
                        "interp" : "eioe"
                      },
                      "scale1" : {
                        "type" : "double",
                        "defaultValue" : 0.153908794788274,
                        "interp" : "eioe"
                      }
                    },
                    "effects" : [

                    ],
                    "start" : 1595,
                    "duration" : 65,
                    "mediaStart" : 0,
                    "mediaDuration" : 1,
                    "scalar" : 1,
                    "metadata" : {
                      "clipSpeedAttribute" : false
                    },
                    "animationTracks" : {

                    }
                  },
                  {
                    "id" : 120,
                    "_type" : "IMFile",
                    "src" : 14,
                    "trackNumber" : 0,
                    "trimStartSum" : 0,
                    "attributes" : {
                      "ident" : "received_1389831824477283"
                    },
                    "parameters" : {
                      "scale0" : {
                        "type" : "double",
                        "defaultValue" : 0.14765625,
                        "interp" : "eioe"
                      },
                      "scale1" : {
                        "type" : "double",
                        "defaultValue" : 0.14765625,
                        "interp" : "eioe"
                      }
                    },
                    "effects" : [

                    ],
                    "start" : 1660,
                    "duration" : 67,
                    "mediaStart" : 0,
                    "mediaDuration" : 1,
                    "scalar" : 1,
                    "metadata" : {
                      "clipSpeedAttribute" : false
                    },
                    "animationTracks" : {

                    }
                  },
                  {
                    "id" : 121,
                    "_type" : "IMFile",
                    "src" : 13,
                    "trackNumber" : 0,
                    "trimStartSum" : 0,
                    "attributes" : {
                      "ident" : "received_1389831691143963"
                    },
                    "parameters" : {
                      "scale0" : {
                        "type" : "double",
                        "defaultValue" : 0.14765625,
                        "interp" : "eioe"
                      },
                      "scale1" : {
                        "type" : "double",
                        "defaultValue" : 0.14765625,
                        "interp" : "eioe"
                      }
                    },
                    "effects" : [

                    ],
                    "start" : 1727,
                    "duration" : 69,
                    "mediaStart" : 0,
                    "mediaDuration" : 1,
                    "scalar" : 1,
                    "metadata" : {
                      "clipSpeedAttribute" : false
                    },
                    "animationTracks" : {

                    }
                  },
                  {
                    "id" : 122,
                    "_type" : "IMFile",
                    "src" : 10,
                    "trackNumber" : 0,
                    "trimStartSum" : 0,
                    "attributes" : {
                      "ident" : "IMG_20171107_224950"
                    },
                    "parameters" : {
                      "translation1" : {
                        "type" : "double",
                        "defaultValue" : 39.9999999999984,
                        "interp" : "eioe"
                      },
                      "scale0" : {
                        "type" : "double",
                        "defaultValue" : 0.0646634615384608,
                        "interp" : "eioe"
                      },
                      "scale1" : {
                        "type" : "double",
                        "defaultValue" : 0.0646634615384608,
                        "interp" : "eioe"
                      }
                    },
                    "effects" : [

                    ],
                    "start" : 1796,
                    "duration" : 63,
                    "mediaStart" : 0,
                    "mediaDuration" : 1,
                    "scalar" : 1,
                    "metadata" : {
                      "clipSpeedAttribute" : false,
                      "default-scale0" : 0.0454326923076923,
                      "default-scale1" : 0.0454326923076923,
                      "default-translation1" : 0.0
                    },
                    "animationTracks" : {

                    }
                  },
                  {
                    "id" : 123,
                    "_type" : "VMFile",
                    "src" : 4,
                    "trackNumber" : 0,
                    "attributes" : {
                      "ident" : "(187) 888 LED Cube - YouTube"
                    },
                    "parameters" : {
                      "translation0" : 8.15703060652595e-11,
                      "scale0" : 0.778387555825197,
                      "scale1" : 0.778387555825197,
                      "geometryCrop0" : 64.2353537461123,
                      "geometryCrop2" : 51.3882829968856
                    },
                    "effects" : [

                    ],
                    "start" : 1859,
                    "duration" : 598,
                    "mediaStart" : 269,
                    "mediaDuration" : 598,
                    "scalar" : 1,
                    "metadata" : {
                      "clipSpeedAttribute" : false,
                      "default-scale0" : 0.2625,
                      "default-scale1" : 0.2625,
                      "default-translation0" : 0.0
                    },
                    "animationTracks" : {

                    }
                  },
                  {
                    "id" : 124,
                    "_type" : "IMFile",
                    "src" : 24,
                    "trackNumber" : 0,
                    "trimStartSum" : 0,
                    "attributes" : {
                      "ident" : "IMG-20170428-WA0031"
                    },
                    "parameters" : {
                      "translation0" : {
                        "type" : "double",
                        "defaultValue" : -9.81970060820458e-11,
                        "interp" : "eioe"
                      },
                      "scale0" : {
                        "type" : "double",
                        "defaultValue" : 0.304166666666622,
                        "interp" : "eioe"
                      },
                      "scale1" : {
                        "type" : "double",
                        "defaultValue" : 0.304166666666622,
                        "interp" : "eioe"
                      },
                      "geometryCrop0" : {
                        "type" : "double",
                        "defaultValue" : 213.698630136832,
                        "interp" : "linr"
                      },
                      "geometryCrop2" : {
                        "type" : "double",
                        "defaultValue" : 164.383561644287,
                        "interp" : "linr"
                      }
                    },
                    "effects" : [

                    ],
                    "start" : 2457,
                    "duration" : 90,
                    "mediaStart" : 0,
                    "mediaDuration" : 1,
                    "scalar" : 1,
                    "metadata" : {
                      "clipSpeedAttribute" : false,
                      "default-scale0" : 0.233333333333333,
                      "default-scale1" : 0.233333333333333,
                      "default-translation0" : 0.0
                    },
                    "animationTracks" : {

                    }
                  },
                  {
                    "id" : 125,
                    "_type" : "IMFile",
                    "src" : 25,
                    "trackNumber" : 0,
                    "trimStartSum" : 0,
                    "attributes" : {
                      "ident" : "IMG-20170428-WA0144"
                    },
                    "parameters" : {
                      "translation0" : {
                        "type" : "double",
                        "defaultValue" : -8.37090396998974e-11,
                        "interp" : "eioe"
                      },
                      "translation1" : {
                        "type" : "double",
                        "defaultValue" : -1.39124267661828e-11,
                        "interp" : "eioe"
                      },
                      "scale0" : {
                        "type" : "double",
                        "defaultValue" : 0.293421052631436,
                        "interp" : "eioe"
                      },
                      "scale1" : {
                        "type" : "double",
                        "defaultValue" : 0.293421052631436,
                        "interp" : "eioe"
                      }
                    },
                    "effects" : [

                    ],
                    "start" : 2547,
                    "duration" : 90,
                    "mediaStart" : 0,
                    "mediaDuration" : 1,
                    "scalar" : 1,
                    "metadata" : {
                      "clipSpeedAttribute" : false,
                      "default-scale0" : 0.175,
                      "default-scale1" : 0.175,
                      "default-translation0" : 0.0,
                      "default-translation1" : 0.0
                    },
                    "animationTracks" : {

                    }
                  },
                  {
                    "id" : 126,
                    "_type" : "VMFile",
                    "src" : 7,
                    "trackNumber" : 0,
                    "attributes" : {
                      "ident" : "Flower Recognition"
                    },
                    "parameters" : {
                      "translation0" : 20.5000000000321,
                      "translation1" : -20.059068219593,
                      "scale0" : 0.404330745054501,
                      "scale1" : 0.404330745054501,
                      "geometryCrop0" : 37.0983413542132,
                      "geometryCrop1" : 76.669905465213,
                      "geometryCrop2" : 46.9912323818099
                    },
                    "effects" : [

                    ],
                    "start" : 2787,
                    "duration" : 81,
                    "mediaStart" : 0,
                    "mediaDuration" : 81,
                    "scalar" : 1,
                    "metadata" : {
                      "clipSpeedAttribute" : false,
                      "default-scale0" : 0.2625,
                      "default-scale1" : 0.2625,
                      "default-translation0" : 0.0,
                      "default-translation1" : 0.0
                    },
                    "animationTracks" : {

                    }
                  },
                  {
                    "id" : 127,
                    "_type" : "VMFile",
                    "src" : 7,
                    "trackNumber" : 0,
                    "attributes" : {
                      "ident" : "Flower Recognition"
                    },
                    "parameters" : {
                      "translation0" : 20.5000000000321,
                      "translation1" : -20.059068219593,
                      "scale0" : 0.404330745054501,
                      "scale1" : 0.404330745054501,
                      "geometryCrop0" : 37.0983413542132,
                      "geometryCrop1" : 76.669905465213,
                      "geometryCrop2" : 46.9912323818099
                    },
                    "effects" : [

                    ],
                    "start" : 2868,
                    "duration" : 90,
                    "mediaStart" : 308,
                    "mediaDuration" : 90,
                    "scalar" : 1,
                    "metadata" : {
                      "clipSpeedAttribute" : false,
                      "default-scale0" : 0.2625,
                      "default-scale1" : 0.2625,
                      "default-translation0" : 0.0,
                      "default-translation1" : 0.0
                    },
                    "animationTracks" : {

                    }
                  },
                  {
                    "id" : 128,
                    "_type" : "VMFile",
                    "src" : 7,
                    "trackNumber" : 0,
                    "attributes" : {
                      "ident" : "Flower Recognition"
                    },
                    "parameters" : {
                      "translation0" : 20.5000000000321,
                      "translation1" : -20.059068219593,
                      "scale0" : 0.404330745054501,
                      "scale1" : 0.404330745054501,
                      "geometryCrop0" : 37.0983413542132,
                      "geometryCrop1" : 76.669905465213,
                      "geometryCrop2" : 46.9912323818099
                    },
                    "effects" : [

                    ],
                    "start" : 2958,
                    "duration" : 303,
                    "mediaStart" : 524,
                    "mediaDuration" : 303,
                    "scalar" : 1,
                    "metadata" : {
                      "clipSpeedAttribute" : false,
                      "default-scale0" : 0.2625,
                      "default-scale1" : 0.2625,
                      "default-translation0" : 0.0,
                      "default-translation1" : 0.0
                    },
                    "animationTracks" : {

                    }
                  },
                  {
                    "id" : 129,
                    "_type" : "VMFile",
                    "src" : 7,
                    "trackNumber" : 0,
                    "attributes" : {
                      "ident" : "Flower Recognition"
                    },
                    "parameters" : {
                      "translation0" : 20.5000000000321,
                      "translation1" : -20.059068219593,
                      "scale0" : 0.404330745054501,
                      "scale1" : 0.404330745054501,
                      "geometryCrop0" : 37.0983413542132,
                      "geometryCrop1" : 76.669905465213,
                      "geometryCrop2" : 46.9912323818099
                    },
                    "effects" : [

                    ],
                    "start" : 3261,
                    "duration" : 74,
                    "mediaStart" : 977,
                    "mediaDuration" : 74,
                    "scalar" : 1,
                    "metadata" : {
                      "clipSpeedAttribute" : false,
                      "default-scale0" : 0.2625,
                      "default-scale1" : 0.2625,
                      "default-translation0" : 0.0,
                      "default-translation1" : 0.0
                    },
                    "animationTracks" : {

                    }
                  },
                  {
                    "id" : 130,
                    "_type" : "VMFile",
                    "src" : 1,
                    "trackNumber" : 0,
                    "attributes" : {
                      "ident" : "OCR"
                    },
                    "parameters" : {
                      "translation0" : 57.6562500001083,
                      "translation1" : -55.9999999999852,
                      "scale0" : 1.35879629629704,
                      "scale1" : 1.35879629629704
                    },
                    "effects" : [

                    ],
                    "start" : 3335,
                    "duration" : 286,
                    "mediaStart" : 0,
                    "mediaDuration" : 286,
                    "scalar" : 1,
                    "metadata" : {
                      "clipSpeedAttribute" : false,
                      "default-scale0" : 1.31435185185253,
                      "default-scale1" : 1.31435185185253,
                      "default-translation0" : 43.0000000001013,
                      "default-translation1" : -53.5555555555914
                    },
                    "animationTracks" : {

                    }
                  },
                  {
                    "id" : 131,
                    "_type" : "VMFile",
                    "src" : 3,
                    "trackNumber" : 0,
                    "attributes" : {
                      "ident" : "Smile Detector"
                    },
                    "parameters" : {
                      "scale0" : {
                        "type" : "double",
                        "defaultValue" : 0.583333333333333,
                        "interp" : "eioe"
                      },
                      "scale1" : {
                        "type" : "double",
                        "defaultValue" : 0.583333333333333,
                        "interp" : "eioe"
                      }
                    },
                    "effects" : [

                    ],
                    "start" : 3621,
                    "duration" : 184,
                    "mediaStart" : 41,
                    "mediaDuration" : 184,
                    "scalar" : 1,
                    "metadata" : {
                      "clipSpeedAttribute" : false
                    },
                    "animationTracks" : {

                    }
                  },
                  {
                    "id" : 132,
                    "_type" : "VMFile",
                    "src" : 6,
                    "trackNumber" : 0,
                    "attributes" : {
                      "ident" : "Face Recognition"
                    },
                    "parameters" : {
                      "scale0" : {
                        "type" : "double",
                        "defaultValue" : 0.2625,
                        "interp" : "eioe"
                      },
                      "scale1" : {
                        "type" : "double",
                        "defaultValue" : 0.2625,
                        "interp" : "eioe"
                      }
                    },
                    "effects" : [

                    ],
                    "start" : 3805,
                    "duration" : 287,
                    "mediaStart" : 0,
                    "mediaDuration" : 287,
                    "scalar" : 1,
                    "metadata" : {
                      "clipSpeedAttribute" : false
                    },
                    "animationTracks" : {

                    }
                  }
                ],
                "transitions" : [
                  {
                    "name" : "Wheel",
                    "duration" : 15,
                    "trivial" : false,
                    "reverse" : false,
                    "useAudioPreRoll" : true,
                    "useVisualPreRoll" : true,
                    "leftMedia" : 114,
                    "rightMedia" : 115
                  },
                  {
                    "name" : "RandomBars",
                    "duration" : 25,
                    "trivial" : false,
                    "reverse" : false,
                    "useAudioPreRoll" : true,
                    "useVisualPreRoll" : true,
                    "leftMedia" : 129,
                    "rightMedia" : 130
                  }
                ]
              },
              {
                "trackIndex" : 3,
                "medias" : [
                  {
                    "id" : 133,
                    "_type" : "Callout",
                    "def" : {
                      "kind" : "TypeWinSpotlight",
                      "shape" : "",
                      "style" : "",
                      "height" : 47.25,
                      "intensity" : 0.5,
                      "width" : 101.25,
                      "filename" : "C:\\Users\\Administrator\\AppData\\Local\\TechSmith\\Camtasia Studio\\19.0\\Features\\Tools\\Annotations\\Defaults\\ReverseHighlight_100x100.xml",
                      "name" : "Spotlight",
                      "xmlContent" : "﻿<?xml version=\"1.0\"?>\n\n<Overlay version=\"1.0.1\">\n\n<Overlay_Filename>ReverseHighlight_100x100.png</Overlay_Filename>\n<Overlay_Name>Spotlight</Overlay_Name>\n<Text_Top>0</Text_Top>\n<Text_Left>0</Text_Left>\n<Text_Bottom>0</Text_Bottom>\n<Text_Right>0</Text_Right>\n<Fill_Color>0</Fill_Color>\n<Border_Color>0</Border_Color>\n</Overlay>"
                    },
                    "attributes" : {
                      "autoRotateText" : true
                    },
                    "parameters" : {
                      "translation0" : -33.7506944443481,
                      "translation1" : 78.8750000000226,
                      "scale0" : 1.03211248285338,
                      "scale1" : 0.661375661375071
                    },
                    "effects" : [

                    ],
                    "start" : 2826,
                    "duration" : 77,
                    "mediaStart" : 0,
                    "mediaDuration" : 77,
                    "scalar" : 1,
                    "metadata" : {
                      "clipSpeedAttribute" : false,
                      "default-scale0" : 1.0,
                      "default-scale1" : 1.0,
                      "default-translation0" : 40.0,
                      "default-translation1" : -40.0
                    },
                    "animationTracks" : {

                    }
                  }
                ]
              },
              {
                "trackIndex" : 4,
                "medias" : [
                ]
              },
              {
                "trackIndex" : 5,
                "medias" : [
                ]
              }
            ]
          }
        }
      ]
    },
    "trackAttributes" : [
      {
        "ident" : "",
        "audioMuted" : false,
        "videoHidden" : false,
        "magnetic" : false,
        "matte" : 0,
        "metadata" : {
          "IsLocked" : "False",
          "WinTrackHeight" : "56"
        }
      },
      {
        "ident" : "",
        "audioMuted" : false,
        "videoHidden" : false,
        "magnetic" : false,
        "matte" : 0,
        "metadata" : {
          "IsLocked" : "False",
          "WinTrackHeight" : "56"
        }
      },
      {
        "ident" : "",
        "audioMuted" : false,
        "videoHidden" : false,
        "magnetic" : false,
        "matte" : 0,
        "metadata" : {
          "IsLocked" : "False",
          "WinTrackHeight" : "56"
        }
      },
      {
        "ident" : "",
        "audioMuted" : false,
        "videoHidden" : false,
        "magnetic" : false,
        "matte" : 0,
        "metadata" : {
          "IsLocked" : "False",
          "WinTrackHeight" : "56"
        }
      },
      {
        "ident" : "",
        "audioMuted" : false,
        "videoHidden" : false,
        "magnetic" : false,
        "matte" : 0,
        "metadata" : {
          "IsLocked" : "False",
          "WinTrackHeight" : "56"
        }
      },
      {
        "ident" : "",
        "audioMuted" : false,
        "videoHidden" : false,
        "magnetic" : false,
        "matte" : 0,
        "metadata" : {
          "IsLocked" : "False",
          "WinTrackHeight" : "56"
        }
      }
    ],
    "captionAttributes" : {
      "enabled" : true,
      "fontName" : "Arial",
      "fontSize" : 11,
      "backgroundColor" : [ 0, 0, 0, 191],
      "foregroundColor" : [ 255, 255, 255, 255],
      "lang" : "en",
      "alignment" : 0,
      "defaultFontSize" : true,
      "opacity" : 0.5,
      "backgroundEnabled" : true,
      "backgroundOnlyAroundText" : true
    },
    "backgroundColor" : [ 0, 0, 0, 255]
  },
  "metadata" : {
    "AutoSaveFile" : "",
    "CanvasZoom" : 100,
    "Date" : "2020-11-23 05:24:27 PM",
    "Fit" : 0,
    "IsAutoSave" : "0",
    "Language" : "ENU",
    "ProfileName" : "",
    "ProjectDimensionsChanged" : "1",
    "Title" : "Intro Project",
    "audioNarrationNotes" : "",
    "calloutStyle" : "Abstract",
    "canvasDetached" : "False",
    "canvasPositionHeight" : "600",
    "canvasPositionLeft" : "283",
    "canvasPositionTop" : "69",
    "canvasPositionWidth" : "800"
  }
}
